{"glyphs":{"0":{"ha":674,"x_min":82,"x_max":707,"o":"m 210 0 q 113 54 144 0 q 88 195 82 108 q 139 378 94 282 q 229 525 176 457 q 341 644 282 593 q 460 725 400 696 q 569 754 519 754 q 655 728 625 754 q 696 659 685 701 q 703 566 707 617 q 685 466 699 515 q 654 378 672 417 q 511 158 590 242 q 353 38 432 75 q 210 0 274 0 m 219 14 q 315 42 261 14 q 425 122 368 71 q 533 238 482 172 q 618 378 583 303 q 658 483 643 431 q 675 583 672 536 q 669 665 678 629 q 640 721 660 700 q 588 742 619 742 q 490 707 542 742 q 389 617 439 672 q 297 498 339 561 q 228 378 256 435 q 165 219 185 288 q 147 106 146 151 q 167 37 149 60 q 219 14 186 14 z "},"1":{"ha":526,"x_min":83,"x_max":615,"o":"m 153 318 q 258 391 199 342 q 380 504 318 440 q 497 635 442 568 q 590 758 553 701 q 607 767 599 772 q 608 750 615 761 q 498 574 556 671 q 384 377 440 478 q 278 183 328 276 q 192 17 229 89 q 146 20 171 17 q 83 14 121 24 q 105 46 85 15 q 158 125 125 76 q 231 233 192 174 q 309 351 269 292 q 383 463 349 411 q 441 548 418 514 q 468 589 464 582 l 518 622 q 492 594 515 618 q 435 534 469 569 q 360 459 400 499 q 280 383 319 419 q 208 323 240 347 q 157 294 175 299 q 140 301 140 290 q 153 318 139 313 z "},"2":{"ha":767,"x_min":1,"x_max":729,"o":"m 581 754 q 649 741 615 754 q 706 696 683 728 q 729 610 729 664 q 685 467 729 535 q 569 344 642 400 q 411 244 497 288 q 268 177 339 208 q 138 108 197 146 q 38 15 78 71 l 32 25 q 147 99 83 72 q 292 126 211 126 q 369 116 340 126 q 419 92 399 106 q 458 69 439 79 q 507 58 478 58 q 560 72 536 58 q 602 106 585 86 q 628 144 619 126 q 633 171 636 163 q 639 181 632 181 q 647 171 646 182 q 638 132 649 160 q 603 74 626 104 q 547 22 581 43 q 471 0 514 0 q 398 15 429 0 q 338 48 367 29 q 277 81 308 67 q 206 96 246 96 q 141 80 172 96 q 84 42 110 64 q 43 3 58 21 q 26 -21 28 -15 q 13 -30 25 -32 q 7 -12 1 -28 q 60 67 21 31 q 154 136 100 103 q 268 201 208 169 q 383 264 328 232 q 482 333 433 293 q 571 422 531 374 q 635 526 611 471 q 658 639 658 581 q 634 719 658 696 q 572 742 610 742 q 493 719 536 742 q 409 659 450 696 q 334 578 368 622 q 279 492 300 535 q 258 418 258 450 q 270 381 258 396 q 308 365 282 365 q 369 382 340 365 q 423 422 399 399 q 463 464 447 444 q 483 490 479 483 q 496 499 490 501 q 496 485 501 496 q 455 429 485 461 q 385 374 425 397 q 304 351 346 351 q 244 371 269 351 q 218 433 218 390 q 248 537 218 482 q 329 642 278 592 q 445 723 381 692 q 581 754 510 754 z "},"3":{"ha":719,"x_min":-51,"x_max":715,"o":"m 153 -128 q 44 -111 90 -128 q -26 -71 -1 -94 q -51 -28 -51 -47 q -42 -2 -51 -12 q -18 8 -32 8 q 6 -2 -3 8 q 15 -19 15 -12 q 14 -47 15 -37 q 13 -60 13 -57 q 29 -79 13 -65 q 77 -105 46 -93 q 153 -117 108 -117 q 276 -85 211 -117 q 396 0 340 -54 q 486 124 451 54 q 521 269 521 193 q 502 316 521 306 q 461 326 483 326 q 397 313 426 326 q 345 282 368 300 q 310 248 322 264 q 296 226 297 232 q 282 209 294 213 q 269 224 269 206 q 301 267 269 242 q 381 321 333 293 q 474 374 428 349 q 526 410 497 386 q 583 470 556 435 q 627 549 610 506 q 644 640 644 592 q 624 713 644 686 q 553 739 604 739 q 485 718 522 739 q 408 663 447 697 q 338 588 369 629 q 285 506 306 547 q 265 431 265 465 q 278 389 265 399 q 307 379 292 379 q 374 404 339 379 q 439 467 408 429 q 490 545 469 506 q 513 615 510 585 q 518 626 514 626 q 524 615 522 625 q 506 536 526 579 q 450 454 485 493 q 376 390 415 415 q 300 365 336 365 q 242 388 263 365 q 222 449 222 411 q 254 549 222 496 q 337 649 286 603 q 447 725 388 696 q 561 754 506 754 q 676 719 638 754 q 715 624 715 685 q 680 513 715 563 q 591 424 644 463 q 485 358 538 385 q 396 319 432 332 l 418 335 q 456 345 433 342 q 490 349 479 349 q 513 346 496 349 q 550 332 531 343 q 584 299 569 321 q 599 236 599 276 q 563 120 599 183 q 463 1 526 57 q 320 -92 400 -56 q 153 -128 240 -128 z "},"4":{"ha":789,"x_min":39,"x_max":814,"o":"m 592 740 q 629 745 604 742 q 683 751 654 749 q 729 754 711 754 q 745 749 743 754 q 728 738 747 744 q 659 689 699 728 q 572 597 619 650 q 472 485 525 543 q 362 376 419 426 q 244 293 304 325 q 125 261 185 261 q 63 272 88 261 q 39 301 39 282 q 67 335 39 319 q 157 351 94 351 q 288 337 224 351 q 415 303 353 322 q 535 270 476 285 q 647 256 593 256 q 715 265 683 256 q 768 287 746 275 q 797 303 790 299 q 811 306 808 310 q 807 296 814 303 q 780 275 800 289 q 720 249 760 261 q 614 238 681 238 q 495 253 554 238 q 378 288 436 268 q 265 322 321 307 q 157 338 210 338 q 96 326 118 338 q 74 301 74 314 q 89 281 74 286 q 139 275 104 275 q 219 303 175 275 q 311 379 264 332 q 404 481 358 426 q 489 588 450 535 q 555 681 528 640 q 592 740 582 722 m 788 535 q 803 535 803 542 q 792 522 804 529 q 714 452 761 504 q 612 331 667 400 q 504 186 557 261 q 412 45 451 111 q 356 -62 372 -21 l 282 -24 q 360 85 314 22 q 460 219 406 149 q 573 353 515 289 q 685 467 631 418 q 788 535 740 515 z "},"5":{"ha":683,"x_min":-146,"x_max":792,"o":"m 561 753 q 619 742 589 753 q 683 731 650 731 q 740 744 719 731 q 769 773 760 757 q 778 794 778 789 q 785 801 779 801 q 790 794 792 800 q 778 768 789 788 q 745 726 767 749 q 688 687 724 703 q 597 671 651 671 q 534 681 563 671 q 482 692 506 692 q 455 684 471 692 q 423 664 439 676 q 394 633 407 651 l 407 665 q 443 703 421 682 q 496 738 465 724 q 561 753 526 753 m 415 744 l 460 747 l 275 411 l 215 374 l 415 744 m 375 446 q 457 433 417 446 q 524 385 497 419 q 550 289 550 351 q 522 154 550 221 q 445 29 494 88 q 330 -74 396 -29 q 186 -144 264 -118 q 25 -169 108 -169 q -92 -146 -53 -169 q -142 -97 -132 -122 q -140 -77 -146 -83 q -124 -72 -133 -71 q -112 -83 -114 -74 q -65 -136 -104 -118 q 38 -154 -26 -154 q 176 -123 110 -154 q 297 -41 242 -92 q 392 71 351 10 q 456 193 433 132 q 478 304 478 254 q 462 381 478 356 q 421 416 446 407 q 365 425 396 425 q 279 403 321 425 q 207 352 238 381 q 164 301 176 324 q 152 295 158 290 q 149 307 146 300 q 172 340 153 318 q 221 387 190 363 q 291 428 251 411 q 375 446 331 444 z "},"6":{"ha":739,"x_min":125,"x_max":771,"o":"m 656 757 q 740 735 708 757 q 771 685 771 713 q 755 635 771 654 q 717 615 739 615 q 692 624 704 615 q 681 651 681 632 q 692 676 681 668 q 715 692 704 685 q 726 708 726 699 q 710 731 726 719 q 654 742 694 742 q 519 698 586 742 q 392 582 451 654 q 286 426 332 510 q 215 259 240 342 q 189 111 189 176 q 194 72 189 94 q 214 33 200 50 q 253 17 228 17 q 346 47 300 17 q 433 126 392 78 q 506 228 474 174 q 556 332 538 282 q 574 415 574 382 q 558 469 574 460 q 525 479 542 479 q 468 458 501 479 q 401 405 435 438 q 344 335 368 372 q 317 267 321 299 q 308 249 315 251 q 301 269 300 247 q 324 345 304 306 q 375 418 343 385 q 447 472 407 451 q 531 493 488 493 q 606 463 582 493 q 631 390 631 432 q 607 269 631 326 q 543 162 583 211 q 454 76 503 113 q 354 20 406 40 q 258 0 303 0 q 160 47 196 0 q 125 175 125 94 q 157 327 125 247 q 243 483 189 407 q 366 622 297 560 q 509 720 435 683 q 656 757 583 757 z "},"7":{"ha":679,"x_min":192,"x_max":819,"o":"m 324 738 q 333 749 322 747 q 343 738 343 751 q 322 641 344 690 q 267 551 299 592 q 208 488 235 510 q 195 483 199 478 q 199 497 192 488 q 251 561 219 522 q 305 646 282 600 q 324 738 328 692 m 482 753 q 539 742 515 753 q 583 718 563 732 q 626 694 603 704 q 679 683 649 683 q 731 697 711 683 q 765 725 750 710 q 792 746 779 740 q 813 747 806 753 q 808 732 819 740 q 552 481 660 610 q 387 222 444 353 q 329 -39 329 92 q 340 -152 329 -103 q 365 -233 350 -201 q 394 -278 381 -265 q 399 -287 406 -286 q 388 -287 393 -289 q 342 -249 371 -281 q 290 -167 313 -218 q 267 -51 267 -117 q 299 124 267 36 q 382 293 331 211 q 494 448 433 375 q 613 578 556 521 q 716 676 671 636 q 781 729 761 715 q 794 732 796 740 q 783 715 792 724 q 749 689 776 708 q 682 652 721 669 q 601 635 643 635 q 553 644 572 635 q 517 666 533 654 q 481 688 500 678 q 429 697 461 697 q 372 682 396 697 q 331 648 347 667 q 307 618 315 629 l 318 656 q 351 697 328 674 q 408 736 374 719 q 482 753 442 753 z "},"8":{"ha":688,"x_min":101,"x_max":671,"o":"m 528 757 q 592 747 558 757 q 648 712 625 736 q 671 647 671 688 q 647 555 671 596 q 586 483 624 514 q 506 434 549 453 q 428 408 464 415 l 417 418 q 520 463 471 429 q 601 544 569 496 q 633 646 633 593 q 618 703 633 682 q 578 733 603 724 q 529 742 554 742 q 458 723 493 742 q 399 673 422 704 q 376 604 376 642 q 401 501 376 549 q 457 408 425 453 q 513 315 489 363 q 538 215 538 268 q 513 122 538 163 q 449 55 488 82 q 367 14 411 28 q 286 0 324 0 q 177 24 218 0 q 119 86 136 49 q 101 161 101 124 q 128 264 101 219 q 197 341 156 308 q 280 394 238 374 q 353 426 322 415 q 390 439 385 438 l 394 424 q 335 401 374 418 q 254 356 296 385 q 183 283 213 326 q 154 179 154 240 q 172 90 154 126 q 224 34 190 53 q 306 15 258 15 q 371 35 335 15 q 433 91 407 54 q 460 179 460 128 q 436 285 460 236 q 381 379 413 333 q 326 471 350 425 q 303 567 303 517 q 335 663 303 619 q 419 731 367 706 q 528 757 471 757 z "},"9":{"ha":718,"x_min":71,"x_max":700,"o":"m 542 753 q 612 739 575 753 q 674 688 649 725 q 700 582 700 651 q 673 423 700 504 q 599 266 646 342 q 492 131 553 190 q 365 35 432 71 q 232 0 299 0 q 110 32 149 0 q 71 99 71 64 q 85 134 71 122 q 110 146 100 146 q 139 138 128 146 q 150 119 150 131 q 142 94 150 100 q 135 72 135 88 q 159 35 135 57 q 239 14 183 14 q 350 57 293 14 q 460 169 407 100 q 553 322 513 239 q 619 486 594 404 q 643 632 643 568 q 618 716 643 694 q 544 738 593 738 q 474 713 510 738 q 403 651 438 689 q 343 568 369 613 q 301 481 317 524 q 285 408 285 439 q 305 347 285 376 q 372 318 325 318 q 463 344 418 318 q 547 415 508 371 q 612 513 586 460 q 643 617 638 565 l 693 564 q 672 533 690 560 q 622 467 653 506 q 553 392 592 429 q 469 331 514 356 q 381 306 425 306 q 313 318 347 306 q 256 360 279 331 q 233 439 233 389 q 253 537 233 483 q 313 640 274 590 q 410 721 353 689 q 542 753 467 753 z "},"A":{"ha":839,"x_min":-97,"x_max":1036,"o":"m 13 -14 q -64 3 -40 -14 q -92 39 -87 19 q -97 68 -97 58 q -81 97 -96 86 q -49 108 -67 108 q -29 103 -37 108 q -21 83 -21 99 q -31 64 -21 69 q -51 58 -40 58 q -69 61 -61 58 q -76 64 -76 64 q -49 14 -76 26 q 14 1 -21 1 q 126 32 68 1 q 244 113 183 63 q 370 227 306 164 q 503 354 435 290 q 649 492 576 424 q 790 617 722 561 q 917 706 858 672 q 1021 739 975 739 q 1034 733 1036 739 q 1011 725 1032 728 q 905 681 963 717 q 783 591 847 646 q 652 472 719 536 q 515 342 585 407 q 387 218 451 281 q 259 103 322 156 q 134 18 196 50 q 13 -14 72 -14 m 440 49 q 422 45 432 46 q 415 51 411 44 q 431 76 419 58 q 453 118 443 93 q 464 169 464 143 q 452 249 464 204 q 415 338 440 294 q 347 409 389 381 q 243 438 304 438 q 174 418 203 438 q 131 372 146 399 q 117 319 117 344 q 149 217 117 265 q 249 138 182 168 q 414 108 315 108 q 608 146 522 108 q 753 243 694 183 q 835 368 811 303 q 847 383 842 389 q 851 371 851 376 q 819 275 851 324 q 729 185 788 226 q 594 119 671 144 q 428 94 518 94 q 256 121 335 94 q 130 199 178 147 q 82 322 82 250 q 123 412 82 371 q 243 453 164 453 q 355 422 310 453 q 428 347 400 392 q 468 258 456 303 q 481 185 481 214 q 472 122 481 153 q 455 70 464 90 q 440 49 446 50 m 358 -11 q 386 22 360 -10 q 456 107 413 54 q 553 226 499 160 q 665 361 607 292 q 780 497 724 431 q 884 616 836 563 q 965 701 932 669 q 1007 735 997 733 q 1019 735 1014 738 q 1017 725 1025 732 q 978 680 1011 721 q 894 573 944 639 q 784 428 843 507 q 667 273 725 350 q 560 131 608 196 q 483 28 513 67 q 451 -11 453 -11 q 433 -8 446 -10 q 407 -7 419 -7 q 378 -9 394 -7 q 358 -11 363 -11 z "},"Á":{"ha":839,"x_min":-97,"x_max":1172,"o":"m 1032 785 q 1096 840 1075 808 q 1119 897 1117 871 q 1129 925 1122 915 q 1150 935 1136 935 q 1166 928 1160 935 q 1172 903 1172 921 q 1151 862 1172 886 q 1100 814 1131 838 q 1038 774 1069 790 q 1025 774 1028 768 q 1032 785 1022 779 m 13 -14 q -64 3 -40 -14 q -92 39 -87 19 q -97 68 -97 58 q -81 97 -96 86 q -49 108 -67 108 q -29 103 -37 108 q -21 83 -21 99 q -31 64 -21 69 q -51 58 -40 58 q -69 61 -61 58 q -76 64 -76 64 q -49 14 -76 26 q 14 1 -21 1 q 126 32 68 1 q 244 113 183 63 q 370 227 306 164 q 503 354 435 290 q 649 492 576 424 q 790 617 722 561 q 917 706 858 672 q 1021 739 975 739 q 1034 733 1036 739 q 1011 725 1032 728 q 905 681 963 717 q 783 591 847 646 q 652 472 719 536 q 515 342 585 407 q 387 218 451 281 q 259 103 322 156 q 134 18 196 50 q 13 -14 72 -14 m 440 49 q 422 45 432 46 q 415 51 411 44 q 431 76 419 58 q 453 118 443 93 q 464 169 464 143 q 452 249 464 204 q 415 338 440 294 q 347 409 389 381 q 243 438 304 438 q 174 418 203 438 q 131 372 146 399 q 117 319 117 344 q 149 217 117 265 q 249 138 182 168 q 414 108 315 108 q 608 146 522 108 q 753 243 694 183 q 835 368 811 303 q 847 383 842 389 q 851 371 851 376 q 819 275 851 324 q 729 185 788 226 q 594 119 671 144 q 428 94 518 94 q 256 121 335 94 q 130 199 178 147 q 82 322 82 250 q 123 412 82 371 q 243 453 164 453 q 355 422 310 453 q 428 347 400 392 q 468 258 456 303 q 481 185 481 214 q 472 122 481 153 q 455 70 464 90 q 440 49 446 50 m 358 -11 q 386 22 360 -10 q 456 107 413 54 q 553 226 499 160 q 665 361 607 292 q 780 497 724 431 q 884 616 836 563 q 965 701 932 669 q 1007 735 997 733 q 1019 735 1014 738 q 1017 725 1025 732 q 978 680 1011 721 q 894 573 944 639 q 784 428 843 507 q 667 273 725 350 q 560 131 608 196 q 483 28 513 67 q 451 -11 453 -11 q 433 -8 446 -10 q 407 -7 419 -7 q 378 -9 394 -7 q 358 -11 363 -11 z "},"Â":{"ha":839,"x_min":-97,"x_max":1119,"o":"m 904 763 q 937 789 914 771 q 989 830 960 807 q 1046 876 1018 853 q 1090 921 1074 900 q 1104 928 1100 932 q 1106 918 1108 925 q 1096 888 1101 907 q 1090 844 1090 868 q 1097 796 1090 819 q 1113 763 1104 772 q 1113 753 1119 757 q 1096 753 1107 749 q 1073 777 1083 758 q 1056 817 1063 796 q 1049 849 1049 839 q 1028 833 1044 846 q 988 805 1011 821 q 945 775 965 789 q 914 756 925 761 q 899 751 900 746 q 904 763 899 757 m 13 -14 q -64 3 -40 -14 q -92 39 -87 19 q -97 68 -97 58 q -81 97 -96 86 q -49 108 -67 108 q -29 103 -37 108 q -21 83 -21 99 q -31 64 -21 69 q -51 58 -40 58 q -69 61 -61 58 q -76 64 -76 64 q -49 14 -76 26 q 14 1 -21 1 q 126 32 68 1 q 244 113 183 63 q 370 227 306 164 q 503 354 435 290 q 649 492 576 424 q 790 617 722 561 q 917 706 858 672 q 1021 739 975 739 q 1034 733 1036 739 q 1010 725 1032 728 q 903 683 961 718 q 783 592 846 647 q 651 473 719 538 q 514 342 583 408 q 386 218 450 281 q 259 103 322 156 q 134 18 196 50 q 13 -14 72 -14 m 440 49 q 422 45 432 46 q 415 51 411 44 q 431 76 419 58 q 453 118 443 93 q 464 169 464 143 q 452 249 464 204 q 415 338 440 294 q 347 409 389 381 q 243 438 304 438 q 174 418 203 438 q 131 372 146 399 q 117 319 117 344 q 149 217 117 265 q 248 138 182 168 q 413 108 314 108 q 606 147 521 108 q 750 244 692 185 q 833 368 808 304 q 847 383 842 389 q 851 371 851 376 q 819 275 851 324 q 729 185 788 226 q 594 119 671 144 q 426 94 517 94 q 256 121 335 94 q 130 199 178 147 q 82 322 82 250 q 123 412 82 371 q 243 453 164 453 q 355 422 310 453 q 428 347 400 392 q 468 258 456 303 q 481 185 481 214 q 472 122 481 153 q 455 72 464 92 q 440 49 446 51 m 357 -11 q 385 22 358 -10 q 455 107 411 54 q 553 225 499 160 q 665 360 607 290 q 780 494 724 429 q 884 613 836 560 q 965 699 932 667 q 1007 735 997 732 q 1020 734 1014 738 q 1017 725 1026 731 q 978 679 1011 721 q 894 572 944 638 q 784 428 843 506 q 667 273 725 350 q 560 131 608 196 q 483 28 513 67 q 451 -11 453 -11 q 433 -8 446 -10 q 407 -7 419 -7 q 378 -9 394 -7 q 357 -11 363 -11 z "},"Ä":{"ha":839,"x_min":-97,"x_max":1163,"o":"m 13 -14 q -64 3 -40 -14 q -92 39 -87 19 q -97 68 -97 58 q -81 97 -96 86 q -49 108 -67 108 q -29 103 -37 108 q -21 83 -21 99 q -31 64 -21 69 q -51 58 -40 58 q -69 61 -61 58 q -76 64 -76 64 q -49 14 -76 26 q 14 1 -21 1 q 126 32 68 1 q 244 113 183 63 q 370 227 306 164 q 503 354 435 290 q 649 492 576 424 q 790 617 722 561 q 917 706 858 672 q 1021 739 975 739 q 1034 733 1036 739 q 1011 725 1032 728 q 905 681 963 717 q 783 591 847 646 q 652 472 719 536 q 515 342 585 407 q 387 218 451 281 q 259 103 322 156 q 134 18 196 50 q 13 -14 72 -14 m 440 49 q 422 45 432 46 q 415 51 411 44 q 431 76 419 58 q 453 118 443 93 q 464 169 464 143 q 452 249 464 204 q 415 338 440 294 q 347 409 389 381 q 243 438 304 438 q 174 418 203 438 q 131 372 146 399 q 117 319 117 344 q 149 217 117 265 q 249 138 182 168 q 414 108 315 108 q 608 146 522 108 q 753 243 694 183 q 835 368 811 303 q 847 383 842 389 q 851 371 851 376 q 819 275 851 324 q 729 185 788 226 q 594 119 671 144 q 428 94 518 94 q 256 121 335 94 q 130 199 178 147 q 82 322 82 250 q 123 412 82 371 q 243 453 164 453 q 355 422 310 453 q 428 347 400 392 q 468 258 456 303 q 481 185 481 214 q 472 122 481 153 q 455 70 464 90 q 440 49 446 50 m 358 -11 q 386 22 360 -10 q 456 107 413 54 q 553 226 499 160 q 665 361 607 292 q 780 497 724 431 q 884 616 836 563 q 965 701 932 669 q 1007 735 997 733 q 1019 735 1014 738 q 1017 725 1025 732 q 978 680 1011 721 q 894 573 944 639 q 784 428 843 507 q 667 273 725 350 q 560 131 608 196 q 483 28 513 67 q 451 -11 453 -11 q 433 -8 446 -10 q 407 -7 419 -7 q 378 -9 394 -7 q 358 -11 363 -11 m 985 794 q 938 781 961 774 q 915 811 915 789 q 921 831 915 822 q 932 846 926 840 q 977 861 953 867 q 1001 832 1001 856 q 997 810 1001 819 q 985 794 992 801 m 1146 794 q 1098 781 1121 772 q 1075 811 1075 789 q 1090 846 1075 833 q 1140 860 1117 868 q 1163 832 1163 853 q 1158 810 1163 819 q 1146 794 1153 801 z "},"À":{"ha":839,"x_min":-97,"x_max":1049,"o":"m 896 913 q 901 930 896 919 q 917 940 907 940 q 941 930 935 940 q 950 904 947 919 q 982 833 960 857 q 1038 789 1004 808 q 1046 778 1049 783 q 1035 775 1043 772 q 999 794 1022 779 q 953 829 976 808 q 913 872 929 850 q 896 913 896 893 m 13 -14 q -64 3 -40 -14 q -92 39 -87 19 q -97 68 -97 58 q -81 97 -96 86 q -49 108 -67 108 q -29 103 -37 108 q -21 83 -21 99 q -31 64 -21 69 q -51 58 -40 58 q -69 61 -61 58 q -76 64 -76 64 q -49 14 -76 26 q 14 1 -21 1 q 126 32 68 1 q 244 113 183 63 q 370 227 306 164 q 503 354 435 290 q 649 492 576 424 q 790 617 722 561 q 917 706 858 672 q 1021 739 975 739 q 1034 733 1036 739 q 1011 725 1032 728 q 905 681 963 717 q 783 591 847 646 q 652 472 719 536 q 515 342 585 407 q 387 218 451 281 q 259 103 322 156 q 134 18 196 50 q 13 -14 72 -14 m 440 49 q 422 45 432 46 q 415 51 411 44 q 431 76 419 58 q 453 118 443 93 q 464 169 464 143 q 452 249 464 204 q 415 338 440 294 q 347 409 389 381 q 243 438 304 438 q 174 418 203 438 q 131 372 146 399 q 117 319 117 344 q 149 217 117 265 q 249 138 182 168 q 414 108 315 108 q 608 146 522 108 q 753 243 694 183 q 835 368 811 303 q 847 383 842 389 q 851 371 851 376 q 819 275 851 324 q 729 185 788 226 q 594 119 671 144 q 428 94 518 94 q 256 121 335 94 q 130 199 178 147 q 82 322 82 250 q 123 412 82 371 q 243 453 164 453 q 355 422 310 453 q 428 347 400 392 q 468 258 456 303 q 481 185 481 214 q 472 122 481 153 q 455 70 464 90 q 440 49 446 50 m 358 -11 q 386 22 360 -10 q 456 107 413 54 q 553 226 499 160 q 665 361 607 292 q 780 497 724 431 q 884 616 836 563 q 965 701 932 669 q 1007 735 997 733 q 1019 735 1014 738 q 1017 725 1025 732 q 978 680 1011 721 q 894 573 944 639 q 784 428 843 507 q 667 273 725 350 q 560 131 608 196 q 483 28 513 67 q 451 -11 453 -11 q 433 -8 446 -10 q 407 -7 419 -7 q 378 -9 394 -7 q 358 -11 363 -11 z "},"Å":{"ha":839,"x_min":-97,"x_max":1129,"o":"m 13 -14 q -64 3 -40 -14 q -92 39 -87 19 q -97 68 -97 58 q -81 97 -96 86 q -49 108 -67 108 q -29 103 -37 108 q -21 83 -21 99 q -31 64 -21 69 q -51 58 -40 58 q -69 61 -61 58 q -76 64 -76 64 q -49 14 -76 26 q 14 1 -21 1 q 126 32 68 1 q 244 113 183 63 q 370 227 306 164 q 503 354 435 290 q 649 492 576 424 q 790 617 722 561 q 917 706 858 672 q 1021 739 975 739 q 1034 733 1036 739 q 1011 725 1032 728 q 905 681 963 717 q 783 591 847 646 q 652 472 719 536 q 515 342 585 407 q 387 218 451 281 q 259 103 322 156 q 134 18 196 50 q 13 -14 72 -14 m 440 49 q 422 45 432 46 q 415 51 411 44 q 431 76 419 58 q 453 118 443 93 q 464 169 464 143 q 452 249 464 204 q 415 338 440 294 q 347 409 389 381 q 243 438 304 438 q 174 418 203 438 q 131 372 146 399 q 117 319 117 344 q 149 217 117 265 q 249 138 182 168 q 414 108 315 108 q 608 146 522 108 q 753 243 694 183 q 835 368 811 303 q 847 383 842 389 q 851 371 851 376 q 819 275 851 324 q 729 185 788 226 q 594 119 671 144 q 428 94 518 94 q 256 121 335 94 q 130 199 178 147 q 82 322 82 250 q 123 412 82 371 q 243 453 164 453 q 355 422 310 453 q 428 347 400 392 q 468 258 456 303 q 481 185 481 214 q 472 122 481 153 q 455 70 464 90 q 440 49 446 50 m 358 -11 q 386 22 360 -10 q 456 107 413 54 q 553 226 499 160 q 665 361 607 292 q 780 497 724 431 q 884 616 836 563 q 965 701 932 669 q 1007 735 997 733 q 1019 735 1014 738 q 1017 725 1025 732 q 978 680 1011 721 q 894 573 944 639 q 784 428 843 507 q 667 273 725 350 q 560 131 608 196 q 483 28 513 67 q 451 -11 453 -11 q 433 -8 446 -10 q 407 -7 419 -7 q 378 -9 394 -7 q 358 -11 363 -11 m 999 775 q 971 783 985 775 q 957 817 957 790 q 977 864 957 840 q 1028 903 997 888 q 1088 919 1058 919 q 1118 908 1107 919 q 1129 881 1129 896 q 1110 833 1129 858 q 1062 792 1092 808 q 999 775 1032 775 m 1011 789 q 1055 803 1035 789 q 1087 839 1075 818 q 1099 878 1099 860 q 1094 897 1099 888 q 1076 906 1090 906 q 1033 890 1054 906 q 1000 855 1013 875 q 988 819 988 835 q 992 799 988 808 q 1011 789 997 789 z "},"Ã":{"ha":839,"x_min":-97,"x_max":1200,"o":"m 933 811 q 949 838 936 821 q 983 869 963 856 q 1024 883 1003 883 q 1060 872 1042 883 q 1097 849 1078 861 q 1132 838 1115 838 q 1165 854 1153 838 q 1182 881 1178 871 q 1193 888 1186 890 q 1197 875 1200 885 q 1182 845 1196 864 q 1149 812 1168 826 q 1111 797 1129 797 q 1069 809 1089 797 q 1033 832 1050 821 q 1000 843 1017 843 q 968 831 981 843 q 950 804 956 819 q 938 794 946 790 q 933 811 931 797 m 13 -14 q -64 3 -40 -14 q -92 39 -87 19 q -97 68 -97 58 q -81 97 -96 86 q -49 108 -67 108 q -29 103 -37 108 q -21 83 -21 99 q -31 64 -21 69 q -51 58 -40 58 q -69 61 -61 58 q -76 64 -76 64 q -49 14 -76 26 q 14 1 -21 1 q 126 32 68 1 q 244 113 183 63 q 370 227 306 164 q 503 354 435 290 q 649 492 576 424 q 790 617 722 561 q 917 706 858 672 q 1021 739 975 739 q 1034 733 1036 739 q 1011 725 1032 728 q 905 681 963 717 q 783 591 847 646 q 652 472 719 536 q 515 342 585 407 q 387 218 451 281 q 259 103 322 156 q 134 18 196 50 q 13 -14 72 -14 m 440 49 q 422 45 432 46 q 415 51 411 44 q 431 76 419 58 q 453 118 443 93 q 464 169 464 143 q 452 249 464 204 q 415 338 440 294 q 347 409 389 381 q 243 438 304 438 q 174 418 203 438 q 131 372 146 399 q 117 319 117 344 q 149 217 117 265 q 249 138 182 168 q 414 108 315 108 q 608 146 522 108 q 753 243 694 183 q 835 368 811 303 q 847 383 842 389 q 851 371 851 376 q 819 275 851 324 q 729 185 788 226 q 594 119 671 144 q 428 94 518 94 q 256 121 335 94 q 130 199 178 147 q 82 322 82 250 q 123 412 82 371 q 243 453 164 453 q 355 422 310 453 q 428 347 400 392 q 468 258 456 303 q 481 185 481 214 q 472 122 481 153 q 455 70 464 90 q 440 49 446 50 m 358 -11 q 386 22 360 -10 q 456 107 413 54 q 553 226 499 160 q 665 361 607 292 q 780 497 724 431 q 884 616 836 563 q 965 701 932 669 q 1007 735 997 733 q 1019 735 1014 738 q 1017 725 1025 732 q 978 680 1011 721 q 894 573 944 639 q 784 428 843 507 q 667 273 725 350 q 560 131 608 196 q 483 28 513 67 q 451 -11 453 -11 q 433 -8 446 -10 q 407 -7 419 -7 q 378 -9 394 -7 q 358 -11 363 -11 z "},"Æ":{"ha":1160,"x_min":-97,"x_max":1350,"o":"m 13 -1 q -64 15 -40 -1 q -92 51 -87 32 q -97 81 -97 71 q -81 110 -96 99 q -49 121 -67 121 q -29 116 -37 121 q -21 96 -21 111 q -31 76 -21 82 q -51 71 -40 71 q -69 74 -61 71 q -76 76 -76 76 q -49 26 -76 39 q 14 14 -21 14 q 126 44 68 14 q 244 126 183 75 q 370 240 306 176 q 503 367 435 303 q 649 505 576 436 q 790 629 722 574 q 917 718 858 685 q 1021 751 975 751 q 1034 746 1036 751 q 1011 738 1032 740 q 905 694 963 731 q 783 604 847 658 q 652 485 719 550 q 515 354 585 419 q 387 231 451 293 q 259 115 322 168 q 134 31 196 63 q 13 -1 72 -1 m 440 61 q 422 58 432 58 q 415 64 411 57 q 430 85 421 74 q 439 135 439 96 q 422 233 439 185 q 375 322 406 282 q 302 387 344 363 q 210 411 260 411 q 128 377 157 411 q 100 307 100 343 q 135 203 100 253 q 241 122 169 153 q 422 90 313 90 q 478 92 468 90 q 488 88 488 94 q 466 78 488 82 q 408 74 444 74 q 224 106 301 74 q 105 193 146 139 q 64 310 64 247 q 103 394 64 358 q 210 429 142 429 q 310 403 265 429 q 388 336 356 378 q 438 246 421 294 q 456 150 456 197 q 451 83 456 101 q 440 61 447 64 m 358 1 q 393 44 360 3 q 481 150 426 85 q 600 294 535 215 q 732 450 665 372 q 857 594 799 528 q 956 703 915 661 q 1007 747 996 744 q 1020 747 1014 750 q 1017 738 1026 743 q 978 692 1011 733 q 894 584 944 650 q 784 440 843 518 q 667 285 725 363 q 560 144 608 208 q 483 40 513 79 q 451 1 453 1 q 433 4 446 3 q 407 6 419 6 q 378 3 394 6 q 358 1 363 1 m 743 -146 q 714 -109 731 -136 q 697 -11 697 -82 q 717 83 697 33 q 771 175 736 132 q 850 245 806 218 q 944 272 894 272 q 1014 203 1014 272 q 976 108 1014 156 q 877 30 939 61 q 739 -1 815 -1 q 612 38 663 -1 q 561 158 561 78 q 588 248 561 204 q 659 327 614 292 q 760 383 704 363 q 876 404 817 404 q 938 399 904 404 q 995 381 971 393 q 1019 346 1019 368 q 1011 333 1019 336 q 993 331 1003 331 q 924 363 950 331 q 899 454 899 396 q 928 545 899 496 q 1006 639 957 594 q 1114 712 1054 683 q 1236 740 1174 740 q 1319 722 1289 740 q 1350 651 1350 703 q 1324 567 1350 608 q 1256 492 1297 525 q 1167 439 1214 458 q 1081 419 1121 419 q 1021 435 1035 419 q 1007 472 1007 451 q 1027 527 1007 496 q 1081 588 1047 558 q 1160 638 1115 618 q 1256 657 1206 657 q 1269 650 1268 657 q 1257 643 1271 643 q 1169 625 1211 643 q 1096 580 1128 607 q 1045 524 1064 553 q 1026 471 1026 494 q 1037 444 1026 453 q 1071 435 1047 435 q 1153 456 1108 435 q 1237 511 1197 478 q 1302 583 1276 544 q 1328 656 1328 622 q 1309 706 1328 688 q 1250 725 1290 725 q 1141 692 1196 725 q 1040 610 1086 660 q 967 508 994 560 q 939 417 939 456 q 951 363 939 381 q 985 346 963 346 q 993 347 989 346 q 997 353 997 347 q 987 366 997 358 q 959 379 976 374 q 919 385 942 385 q 800 355 857 385 q 699 281 743 325 q 628 192 654 236 q 603 119 603 149 q 638 44 603 74 q 751 14 674 14 q 827 37 785 14 q 908 93 869 60 q 971 160 946 126 q 996 215 996 194 q 985 247 996 235 q 951 258 975 258 q 871 233 913 258 q 794 166 829 207 q 736 78 758 125 q 714 -14 714 31 q 719 -78 714 -56 q 733 -112 725 -100 q 751 -139 742 -125 q 753 -147 754 -143 q 743 -146 751 -151 z "},"B":{"ha":878,"x_min":-89,"x_max":1013,"o":"m 26 -1 q -61 25 -33 -1 q -89 79 -89 51 q -76 110 -89 100 q -44 121 -62 121 q -19 113 -26 121 q -12 96 -12 106 q -24 76 -12 82 q -46 71 -35 71 q -60 72 -56 71 q -68 75 -65 74 q -44 31 -68 50 q 21 13 -19 13 q 136 51 78 13 q 249 145 194 89 q 354 260 304 201 q 444 358 404 318 q 563 478 501 415 q 691 597 624 540 q 832 695 758 654 q 986 749 906 736 q 1009 747 1006 751 q 1001 739 1013 742 q 859 688 925 725 q 730 592 793 651 q 599 452 667 533 q 453 268 532 371 q 372 175 418 222 q 271 88 326 128 q 154 23 215 47 q 26 -1 93 -1 m 471 -1 q 365 57 365 -1 q 393 126 365 92 q 465 189 421 160 q 556 235 508 218 q 642 250 603 251 q 653 244 650 250 q 642 238 656 238 q 561 222 606 238 q 476 179 517 206 q 408 121 435 153 q 382 57 382 89 q 403 24 382 33 q 453 14 424 14 q 538 36 494 14 q 617 97 581 58 q 676 186 654 136 q 699 290 699 236 q 681 342 699 322 q 632 361 664 361 q 581 356 600 361 q 561 343 561 350 q 569 333 561 336 q 597 331 576 331 q 684 353 638 331 q 773 414 731 375 q 842 501 815 453 q 869 603 869 550 q 850 673 869 638 q 779 733 831 708 q 631 757 728 757 q 476 730 550 757 q 338 660 401 703 q 227 568 275 617 q 153 474 179 519 q 126 399 126 429 q 143 353 126 375 q 207 332 160 332 q 308 360 253 332 q 413 437 363 389 q 499 547 464 485 q 542 675 535 608 q 550 690 544 692 q 557 676 556 689 q 531 549 561 613 q 450 434 501 486 q 336 351 399 382 q 213 321 274 321 q 135 340 160 321 q 111 407 111 360 q 153 522 111 460 q 267 641 194 585 q 434 733 340 697 q 633 768 528 768 q 803 742 740 768 q 895 672 867 715 q 924 578 924 629 q 890 474 924 522 q 803 390 856 426 q 698 334 751 354 q 607 314 644 314 q 551 321 567 314 q 535 339 535 328 q 563 363 535 353 q 631 372 592 372 q 689 360 660 372 q 737 315 718 347 q 756 226 756 283 q 730 144 756 185 q 663 70 704 103 q 571 18 621 38 q 471 -1 521 -1 z "},"C":{"ha":726,"x_min":71,"x_max":828,"o":"m 465 785 q 482 777 481 783 q 468 772 483 771 q 325 756 393 779 q 205 694 257 733 q 123 613 153 656 q 93 538 93 569 q 142 444 93 475 q 267 414 190 414 q 408 437 333 414 q 556 497 483 460 q 686 574 628 533 q 779 651 744 615 q 814 710 814 688 q 801 731 814 726 q 771 736 788 736 q 660 704 725 736 q 520 617 594 672 q 374 496 446 563 q 244 359 303 429 q 149 225 185 289 q 114 114 114 161 q 147 38 114 61 q 224 14 179 14 q 312 38 267 14 q 400 99 357 61 q 477 179 443 136 q 531 264 511 222 q 551 336 551 306 q 537 371 551 363 q 503 379 522 379 q 396 347 449 379 q 300 260 343 314 q 231 144 257 207 q 206 18 206 81 q 214 -36 206 -6 q 231 -90 222 -67 q 239 -118 239 -112 q 236 -133 240 -128 q 224 -129 232 -139 q 203 -82 215 -121 q 190 15 190 -43 q 216 151 190 85 q 286 273 242 218 q 389 360 331 328 q 514 393 447 393 q 575 374 549 393 q 601 319 601 356 q 573 222 601 276 q 492 117 544 168 q 370 34 440 67 q 218 1 300 1 q 112 42 146 1 q 78 132 78 83 q 109 269 78 199 q 194 410 140 340 q 318 540 249 479 q 466 648 388 601 q 624 722 544 694 q 775 749 703 749 q 810 742 792 749 q 828 715 828 735 q 792 633 828 676 q 697 549 757 590 q 563 475 636 508 q 412 422 489 442 q 265 401 335 401 q 123 435 175 401 q 71 551 71 469 q 106 638 71 594 q 198 717 140 682 q 326 771 256 751 q 465 785 396 790 z "},"Ç":{"ha":726,"x_min":71,"x_max":828,"o":"m 465 783 q 482 776 481 782 q 468 771 483 769 q 325 753 393 776 q 205 691 257 729 q 123 610 153 653 q 93 536 93 568 q 142 443 93 474 q 267 413 190 413 q 408 435 333 413 q 556 495 483 458 q 686 573 628 532 q 779 650 744 614 q 814 708 814 686 q 801 730 814 725 q 771 735 788 735 q 660 703 725 735 q 520 616 594 671 q 374 494 446 561 q 244 358 303 428 q 149 224 185 288 q 114 113 114 160 q 147 36 114 60 q 224 13 179 13 q 312 36 267 13 q 400 97 357 60 q 477 178 443 135 q 531 263 511 221 q 551 335 551 304 q 537 369 551 361 q 503 378 522 378 q 396 345 449 378 q 300 259 343 313 q 231 142 257 206 q 206 17 206 79 q 206 14 206 17 q 206 8 206 11 q 201 4 206 6 q 193 6 196 3 q 191 11 192 8 q 190 14 190 14 q 216 150 190 83 q 286 272 242 217 q 389 359 331 326 q 514 392 447 392 q 575 373 549 392 q 601 318 601 354 q 573 221 601 275 q 492 116 544 167 q 370 33 440 65 q 218 0 300 0 q 112 41 146 0 q 78 131 78 82 q 109 268 78 197 q 194 408 140 339 q 318 539 249 478 q 466 647 388 600 q 624 720 544 693 q 775 747 703 747 q 810 740 792 747 q 828 714 828 733 q 792 632 828 675 q 697 548 757 589 q 563 474 636 507 q 412 420 489 440 q 265 400 335 400 q 123 434 175 400 q 71 550 71 468 q 106 637 71 593 q 198 715 140 681 q 326 769 256 750 q 465 783 396 789 m 238 8 l 256 8 l 229 -35 q 238 -33 229 -35 q 257 -32 246 -32 q 283 -44 269 -32 q 296 -74 296 -56 q 274 -124 296 -100 q 220 -166 251 -149 q 158 -190 189 -183 q 142 -187 144 -193 q 153 -175 140 -181 q 183 -163 160 -171 q 226 -137 206 -156 q 247 -89 247 -119 q 237 -71 247 -75 q 215 -67 226 -67 q 197 -69 206 -67 q 188 -71 188 -71 l 238 8 z "},"D":{"ha":951,"x_min":-15,"x_max":1065,"o":"m 90 0 q 18 9 51 0 q -15 39 -15 18 q 1 64 -15 53 q 40 81 17 75 q 81 88 63 88 q 196 70 140 88 q 310 35 251 53 q 438 18 369 18 q 597 53 521 18 q 733 147 674 88 q 827 283 793 207 q 861 440 861 358 q 831 593 861 528 q 737 694 801 658 q 569 731 672 731 q 418 699 492 731 q 286 619 344 668 q 193 513 228 569 q 158 406 158 456 q 179 351 158 379 q 251 324 200 324 q 357 349 300 324 q 466 419 414 375 q 556 517 518 463 q 601 631 593 572 q 610 647 604 649 q 615 631 615 646 q 585 513 615 571 q 504 410 554 456 q 394 336 454 364 q 272 308 333 308 q 186 326 218 308 q 140 372 154 344 q 126 425 126 399 q 159 534 126 478 q 251 638 192 590 q 390 714 310 685 q 563 743 469 743 q 711 720 649 743 q 814 658 774 697 q 874 566 854 618 q 894 456 894 514 q 858 276 894 358 q 757 132 821 193 q 611 37 693 71 q 440 3 529 3 q 318 17 375 3 q 208 47 261 32 q 94 63 154 63 q 59 61 82 63 q 18 55 36 60 q 0 39 0 50 q 17 24 0 29 q 56 17 33 18 q 92 15 78 15 q 214 40 156 15 q 326 107 272 64 q 430 205 381 150 q 525 321 479 260 q 650 471 583 400 q 786 597 717 542 q 922 683 856 651 q 1047 714 989 714 q 1061 708 1065 714 q 1046 701 1057 701 q 944 669 999 701 q 834 583 890 638 q 726 464 778 529 q 633 332 675 399 q 547 218 599 276 q 428 110 496 160 q 275 31 360 61 q 90 0 190 0 z "},"Ð":{"ha":944,"x_min":-15,"x_max":1065,"o":"m 90 0 q 18 9 51 0 q -15 39 -15 18 q 1 64 -15 53 q 40 81 17 75 q 81 88 63 88 q 196 70 140 88 q 310 35 251 53 q 438 18 369 18 q 597 53 521 18 q 733 147 674 88 q 827 283 793 207 q 861 440 861 358 q 831 593 861 528 q 737 694 801 658 q 569 731 672 731 q 418 699 492 731 q 286 619 344 668 q 193 513 228 569 q 158 406 158 456 q 179 351 158 379 q 251 324 200 324 q 356 349 300 324 q 465 419 413 375 q 554 517 517 463 q 601 631 592 572 q 610 647 604 649 q 615 631 615 646 q 585 513 615 571 q 504 410 554 456 q 394 336 454 364 q 272 308 333 308 q 186 326 218 308 q 140 372 154 344 q 126 425 126 399 q 159 534 126 478 q 251 638 192 590 q 390 714 310 685 q 563 743 469 743 q 711 720 649 743 q 814 658 774 697 q 874 566 854 618 q 894 456 894 514 q 858 276 894 358 q 757 132 821 193 q 611 37 693 71 q 440 3 529 3 q 318 17 375 3 q 208 47 261 32 q 94 63 154 63 q 59 61 82 63 q 18 55 36 60 q 0 39 0 50 q 17 24 0 29 q 56 17 33 18 q 92 15 78 15 q 214 40 156 15 q 326 107 272 64 q 430 205 381 150 q 525 321 479 260 q 650 471 583 400 q 786 597 717 542 q 922 683 856 651 q 1047 714 989 714 q 1061 708 1065 714 q 1046 701 1057 701 q 944 669 999 701 q 834 583 890 638 q 726 464 778 529 q 633 332 675 399 q 547 218 599 276 q 428 110 496 160 q 275 31 360 61 q 90 0 190 0 m 397 244 q 407 252 401 247 q 413 263 413 257 q 443 263 413 263 q 518 263 474 263 q 607 263 563 263 q 682 263 651 263 q 713 263 713 263 q 707 253 708 258 q 704 244 706 247 q 673 244 704 244 q 597 244 642 244 q 506 244 551 244 q 428 244 460 244 q 397 244 397 244 z "},"E":{"ha":621,"x_min":-26,"x_max":783,"o":"m 176 -147 q 149 -106 164 -139 q 135 -1 135 -72 q 153 92 135 44 q 203 181 171 140 q 278 247 235 222 q 371 272 321 272 q 433 247 413 272 q 454 189 454 221 q 424 108 454 153 q 333 31 393 63 q 182 -1 272 -1 q 83 13 131 -1 q 4 61 35 28 q -26 149 -26 94 q 19 278 -26 219 q 137 371 64 336 q 292 406 210 406 q 353 401 315 406 q 419 383 390 396 q 449 349 449 371 q 442 335 449 339 q 425 332 435 332 q 354 352 389 332 q 297 406 319 372 q 274 478 274 439 q 320 616 274 554 q 442 714 367 678 q 606 750 518 750 q 739 719 694 750 q 783 633 783 688 q 737 540 783 586 q 610 465 690 494 q 428 436 529 436 q 249 457 318 436 q 140 508 179 478 q 85 565 101 538 q 65 603 69 592 q 65 616 61 614 q 76 611 69 618 q 94 579 81 604 q 140 525 107 554 q 236 474 172 496 q 406 453 300 453 q 527 467 464 453 q 644 506 590 481 q 731 565 697 531 q 764 639 764 599 q 729 708 764 681 q 621 736 694 736 q 504 707 558 736 q 409 634 450 678 q 344 545 368 590 q 321 469 321 500 q 337 410 321 439 q 377 363 353 381 q 426 344 401 344 q 436 351 436 344 q 424 365 436 357 q 390 380 411 374 q 340 386 368 386 q 231 363 285 386 q 131 301 176 339 q 59 217 86 263 q 32 126 32 171 q 48 68 32 93 q 94 28 64 43 q 171 14 125 14 q 263 34 217 14 q 347 86 308 54 q 408 152 385 118 q 431 213 431 186 q 415 247 431 233 q 372 260 400 260 q 286 235 326 260 q 215 172 246 211 q 165 84 183 132 q 149 -11 147 36 q 159 -88 150 -54 q 185 -140 168 -122 q 186 -149 188 -144 q 176 -147 185 -153 z "},"É":{"ha":621,"x_min":-26,"x_max":908,"o":"m 176 -147 q 149 -106 164 -139 q 135 -1 135 -72 q 153 92 135 44 q 203 181 171 140 q 278 247 235 222 q 371 272 321 272 q 433 247 413 272 q 454 189 454 221 q 424 108 454 153 q 333 31 393 63 q 182 -1 272 -1 q 83 13 131 -1 q 4 61 35 28 q -26 149 -26 94 q 19 278 -26 219 q 137 371 64 336 q 292 406 210 406 q 353 401 315 406 q 419 383 390 396 q 449 349 449 371 q 442 335 449 339 q 425 332 435 332 q 354 352 389 332 q 297 406 319 372 q 274 478 274 439 q 320 616 274 554 q 442 714 367 678 q 606 750 518 750 q 739 719 694 750 q 783 633 783 688 q 737 540 783 586 q 610 465 690 494 q 428 436 529 436 q 249 457 318 436 q 140 508 179 478 q 85 565 101 538 q 65 603 69 592 q 65 616 61 614 q 76 611 69 618 q 94 579 81 604 q 140 525 107 554 q 236 474 172 496 q 406 453 300 453 q 527 467 464 453 q 644 506 590 481 q 731 565 697 531 q 764 639 764 599 q 729 708 764 681 q 621 736 694 736 q 504 707 558 736 q 409 634 450 678 q 344 545 368 590 q 321 469 321 500 q 337 410 321 439 q 377 363 353 381 q 426 344 401 344 q 436 351 436 344 q 424 365 436 357 q 390 380 411 374 q 340 386 368 386 q 231 363 285 386 q 131 301 176 339 q 59 217 86 263 q 32 126 32 171 q 48 68 32 93 q 94 28 64 43 q 171 14 125 14 q 263 34 217 14 q 347 86 308 54 q 408 152 385 118 q 431 213 431 186 q 415 247 431 233 q 372 260 400 260 q 286 235 326 260 q 215 172 246 211 q 165 84 183 132 q 149 -11 147 36 q 159 -88 150 -54 q 185 -140 168 -122 q 186 -149 188 -144 q 176 -147 185 -153 m 774 786 q 761 786 764 781 q 768 797 758 792 q 831 852 811 821 q 856 910 851 883 q 865 938 858 928 q 886 947 872 947 q 902 940 896 947 q 908 915 908 933 q 888 875 908 899 q 835 828 867 851 q 774 786 804 804 z "},"Ê":{"ha":782,"x_min":-26,"x_max":811,"o":"m 176 -147 q 149 -106 164 -139 q 135 -1 135 -72 q 153 92 135 44 q 203 181 171 140 q 278 247 235 222 q 371 272 321 272 q 433 247 413 272 q 454 189 454 221 q 424 108 454 153 q 333 31 393 63 q 182 -1 272 -1 q 83 13 131 -1 q 4 61 35 28 q -26 149 -26 94 q 19 278 -26 219 q 137 371 64 336 q 292 406 210 406 q 353 401 315 406 q 419 383 390 396 q 449 349 449 371 q 442 335 449 339 q 425 332 435 332 q 354 352 389 332 q 297 406 319 372 q 274 478 274 439 q 320 616 274 554 q 442 714 367 678 q 606 750 518 750 q 739 719 694 750 q 783 633 783 688 q 737 540 783 586 q 610 465 690 494 q 428 436 529 436 q 249 457 318 436 q 140 508 179 478 q 85 565 101 538 q 65 603 69 592 q 65 616 61 614 q 76 611 69 618 q 94 579 81 604 q 140 525 107 554 q 236 474 172 496 q 406 453 300 453 q 527 467 464 453 q 644 506 590 481 q 731 565 697 531 q 764 639 764 599 q 729 708 764 681 q 621 736 694 736 q 504 707 558 736 q 409 634 450 678 q 344 545 368 590 q 321 469 321 500 q 337 410 321 439 q 377 363 353 381 q 426 344 401 344 q 436 351 436 344 q 424 365 436 357 q 390 380 411 374 q 340 386 368 386 q 231 363 285 386 q 131 301 176 339 q 59 217 86 263 q 32 126 32 171 q 48 68 32 93 q 94 28 64 43 q 171 14 125 14 q 263 34 217 14 q 347 86 308 54 q 408 152 385 118 q 431 213 431 186 q 415 247 431 233 q 372 260 400 260 q 286 235 326 260 q 215 172 246 211 q 165 84 183 132 q 149 -11 147 36 q 159 -88 150 -54 q 185 -140 168 -122 q 186 -149 188 -144 q 176 -147 185 -153 m 606 772 q 591 768 592 763 q 596 779 590 774 q 628 806 604 788 q 681 848 651 825 q 737 894 710 871 q 782 938 764 918 q 796 945 792 949 q 797 935 800 942 q 788 904 793 924 q 782 861 782 885 q 788 812 782 836 q 804 779 794 788 q 805 769 811 774 q 788 769 799 765 q 765 794 775 775 q 747 834 754 813 q 740 865 740 856 q 719 851 736 863 q 679 823 701 839 q 636 793 657 807 q 606 772 615 779 z "},"Ë":{"ha":621,"x_min":-26,"x_max":854,"o":"m 176 -147 q 149 -106 164 -139 q 135 -1 135 -72 q 153 92 135 44 q 203 181 171 140 q 278 247 235 222 q 371 272 321 272 q 433 247 413 272 q 454 189 454 221 q 424 108 454 153 q 333 31 393 63 q 182 -1 272 -1 q 83 13 131 -1 q 4 61 35 28 q -26 149 -26 94 q 19 278 -26 219 q 137 371 64 336 q 292 406 210 406 q 353 401 315 406 q 419 383 390 396 q 449 349 449 371 q 442 335 449 339 q 425 332 435 332 q 354 352 389 332 q 297 406 319 372 q 274 478 274 439 q 320 616 274 554 q 442 714 367 678 q 606 750 518 750 q 739 719 694 750 q 783 633 783 688 q 737 540 783 586 q 610 465 690 494 q 428 436 529 436 q 249 457 318 436 q 140 508 179 478 q 85 565 101 538 q 65 603 69 592 q 65 616 61 614 q 76 611 69 618 q 94 579 81 604 q 140 525 107 554 q 236 474 172 496 q 406 453 300 453 q 527 467 464 453 q 644 506 590 481 q 731 565 697 531 q 764 639 764 599 q 729 708 764 681 q 621 736 694 736 q 504 707 558 736 q 409 634 450 678 q 344 545 368 590 q 321 469 321 500 q 337 410 321 439 q 377 363 353 381 q 426 344 401 344 q 436 351 436 344 q 424 365 436 357 q 390 380 411 374 q 340 386 368 386 q 231 363 285 386 q 131 301 176 339 q 59 217 86 263 q 32 126 32 171 q 48 68 32 93 q 94 28 64 43 q 171 14 125 14 q 263 34 217 14 q 347 86 308 54 q 408 152 385 118 q 431 213 431 186 q 415 247 431 233 q 372 260 400 260 q 286 235 326 260 q 215 172 246 211 q 165 84 183 132 q 149 -11 147 36 q 159 -88 150 -54 q 185 -140 168 -122 q 186 -149 188 -144 q 176 -147 185 -153 m 676 803 q 630 788 653 779 q 607 819 607 797 q 613 840 607 831 q 624 854 618 849 q 669 869 644 875 q 693 840 693 864 q 688 819 693 828 q 676 803 683 810 m 838 803 q 790 788 814 779 q 767 819 767 797 q 782 854 767 842 q 831 869 808 876 q 854 840 854 861 q 849 819 854 828 q 838 803 844 810 z "},"È":{"ha":621,"x_min":-26,"x_max":783,"o":"m 176 -147 q 149 -106 164 -139 q 135 -1 135 -72 q 153 92 135 44 q 203 181 171 140 q 278 247 235 222 q 371 272 321 272 q 433 247 413 272 q 454 189 454 221 q 424 108 454 153 q 333 31 393 63 q 182 -1 272 -1 q 83 13 131 -1 q 4 61 35 28 q -26 149 -26 94 q 19 278 -26 219 q 137 371 64 336 q 292 406 210 406 q 353 401 315 406 q 419 383 390 396 q 449 349 449 371 q 442 335 449 339 q 425 332 435 332 q 354 352 389 332 q 297 406 319 372 q 274 478 274 439 q 320 616 274 554 q 442 714 367 678 q 606 750 518 750 q 739 719 694 750 q 783 633 783 688 q 737 540 783 586 q 610 465 690 494 q 428 436 529 436 q 249 457 318 436 q 140 508 179 478 q 85 565 101 538 q 65 603 69 592 q 65 616 61 614 q 76 611 69 618 q 94 579 81 604 q 140 525 107 554 q 236 474 172 496 q 406 453 300 453 q 527 467 464 453 q 644 506 590 481 q 731 565 697 531 q 764 639 764 599 q 729 708 764 681 q 621 736 694 736 q 504 707 558 736 q 409 634 450 678 q 344 545 368 590 q 321 469 321 500 q 337 410 321 439 q 377 363 353 381 q 426 344 401 344 q 436 351 436 344 q 424 365 436 357 q 390 380 411 374 q 340 386 368 386 q 231 363 285 386 q 131 301 176 339 q 59 217 86 263 q 32 126 32 171 q 48 68 32 93 q 94 28 64 43 q 171 14 125 14 q 263 34 217 14 q 347 86 308 54 q 408 152 385 118 q 431 213 431 186 q 415 247 431 233 q 372 260 400 260 q 286 235 326 260 q 215 172 246 211 q 165 84 183 132 q 149 -11 147 36 q 159 -88 150 -54 q 185 -140 168 -122 q 186 -149 188 -144 q 176 -147 185 -153 m 725 782 q 690 801 713 786 q 643 836 667 815 q 603 878 619 857 q 586 919 586 900 q 592 937 586 926 q 607 947 597 947 q 631 937 625 947 q 640 911 638 926 q 672 840 650 864 q 728 796 693 815 q 736 785 739 790 q 725 782 733 779 z "},"F":{"ha":750,"x_min":-69,"x_max":1129,"o":"m 60 0 q -17 14 11 0 q -58 47 -46 28 q -69 76 -69 65 q -56 110 -69 99 q -21 121 -42 121 q 7 94 7 121 q -2 77 7 85 q -22 69 -11 69 q -42 73 -35 69 q -49 76 -49 76 q -32 40 -49 54 q 9 19 -15 25 q 56 13 33 13 q 197 56 132 13 q 317 173 261 100 q 424 331 374 246 q 542 488 474 415 q 681 604 610 560 q 808 650 751 649 q 825 646 825 651 q 808 638 825 640 q 708 587 763 631 q 595 472 653 543 q 482 308 538 400 q 376 163 438 235 q 237 46 315 92 q 60 0 158 0 m 122 186 q 193 264 146 232 q 299 318 240 296 q 419 356 358 340 q 533 383 481 371 q 618 407 586 394 q 650 424 644 417 q 654 431 653 428 q 656 435 656 435 q 694 433 667 435 q 738 428 721 431 q 678 388 710 418 q 625 324 647 357 q 597 274 603 292 q 589 265 596 265 q 583 279 582 265 q 594 312 585 290 q 614 355 603 333 q 633 386 625 376 q 566 368 614 378 q 456 345 518 358 q 329 311 393 332 q 213 260 265 290 q 135 188 161 231 q 124 178 131 181 q 122 186 117 175 m 299 433 q 257 439 279 433 q 219 460 235 444 q 204 507 204 476 q 229 581 204 539 q 310 663 254 624 q 458 729 365 703 q 688 756 551 756 q 790 747 729 756 q 919 738 850 738 q 1010 751 974 738 q 1068 783 1047 765 q 1099 816 1089 801 q 1108 831 1108 831 q 1122 840 1115 843 q 1122 828 1129 838 q 1103 800 1118 822 q 1057 752 1088 778 q 975 707 1026 726 q 849 688 924 688 q 783 692 824 688 q 697 701 743 696 q 607 710 650 706 q 535 714 564 714 q 433 697 488 714 q 329 652 378 681 q 250 588 281 624 q 219 513 219 551 q 224 488 219 501 q 241 464 228 474 q 281 454 254 454 q 362 476 321 454 q 437 531 403 499 q 492 596 471 564 q 513 646 513 628 q 516 658 513 660 q 521 649 519 656 q 506 578 525 615 q 455 508 488 540 q 381 454 422 475 q 299 433 340 433 z "},"G":{"ha":624,"x_min":-68,"x_max":731,"o":"m 65 0 q -28 21 13 0 q -68 76 -68 42 q -50 110 -68 99 q -19 122 -32 122 q 1 115 -7 122 q 8 99 8 108 q -1 78 8 86 q -21 71 -10 71 q -40 74 -33 71 q -47 78 -47 78 q -41 51 -47 67 q -10 25 -35 36 q 68 14 15 14 q 174 48 122 14 q 273 134 225 82 q 365 244 321 186 q 451 353 410 303 q 531 429 492 403 q 556 447 546 440 q 560 446 567 453 q 513 407 547 433 q 431 353 478 381 q 336 305 385 325 q 246 285 288 285 q 185 295 203 285 q 168 344 168 306 q 202 458 168 399 q 292 574 236 518 q 415 674 349 629 q 547 746 482 719 q 665 772 613 772 q 717 758 704 772 q 731 721 731 744 q 692 638 731 685 q 591 545 654 592 q 449 460 528 499 q 290 397 371 421 q 138 372 210 372 q 50 385 82 372 q 11 403 18 397 q 6 413 1 410 q 17 411 11 415 q 52 395 22 407 q 138 383 82 383 q 288 411 208 383 q 444 483 368 439 q 582 575 519 526 q 681 665 644 624 q 718 729 718 707 q 703 751 718 744 q 674 758 689 758 q 581 733 631 758 q 478 665 531 707 q 378 574 426 624 q 293 477 331 525 q 233 392 256 429 q 211 335 211 354 q 222 308 211 317 q 251 299 232 299 q 341 319 293 299 q 437 372 389 340 q 527 434 485 403 q 599 488 569 465 q 638 513 628 510 q 659 513 653 517 q 654 503 665 510 q 588 442 622 485 q 514 342 553 399 q 429 225 475 285 q 329 114 383 165 q 210 31 275 63 q 65 0 144 0 z "},"H":{"ha":888,"x_min":-160,"x_max":1135,"o":"m 514 0 q 467 17 492 0 q 442 72 442 33 q 478 208 442 133 q 576 358 515 282 q 709 506 636 435 q 855 633 782 576 q 990 723 928 690 q 1088 756 1051 756 q 1135 717 1135 756 q 1103 651 1135 696 q 1001 550 1072 606 q 815 440 931 494 q 528 344 699 386 q 367 306 449 325 q 215 263 286 286 q 92 208 143 239 q 22 136 42 178 q 15 131 19 129 q 15 143 10 132 q 83 213 32 182 q 205 269 133 244 q 358 316 276 294 q 521 357 440 338 q 760 435 660 390 q 929 528 861 481 q 1038 617 997 575 q 1097 688 1079 660 q 1115 724 1115 717 q 1093 743 1115 743 q 1010 713 1060 743 q 903 631 961 682 q 784 515 844 579 q 667 383 724 451 q 567 251 611 315 q 497 137 522 188 q 471 57 471 86 q 485 20 471 26 q 518 14 500 14 q 588 38 551 14 q 656 101 624 63 q 711 184 689 140 q 740 265 733 228 q 751 273 743 276 q 757 246 758 269 q 733 173 756 215 q 675 92 711 131 q 597 26 639 53 q 514 0 556 0 m -47 0 q -128 19 -97 0 q -160 72 -160 38 q -147 103 -160 90 q -111 117 -133 117 q -83 94 -83 117 q -94 72 -83 78 q -111 67 -104 67 q -131 69 -125 67 q -137 72 -137 72 q -124 37 -137 58 q -60 15 -111 15 q 48 47 -4 15 q 149 130 100 78 q 247 244 199 182 q 343 367 294 306 q 426 468 382 417 q 517 565 471 519 q 603 640 563 610 q 623 651 614 649 q 629 647 632 654 q 599 619 628 643 q 528 567 571 596 q 438 515 485 538 q 351 493 390 493 q 305 507 321 493 q 289 546 289 521 q 305 601 289 578 q 341 642 321 625 q 377 671 361 658 q 393 696 393 683 q 372 723 393 715 q 321 731 350 731 q 227 710 267 731 q 171 671 188 690 q 157 667 163 663 q 157 678 151 672 q 186 701 164 686 q 243 730 208 717 q 321 743 278 743 q 356 740 333 743 q 398 724 379 736 q 417 681 417 711 q 400 619 417 643 q 363 581 383 596 q 325 557 342 567 q 308 535 308 547 q 321 516 308 525 q 357 507 333 507 q 438 529 396 507 q 523 585 481 551 q 606 653 565 618 q 680 716 646 689 q 740 750 714 743 q 751 751 747 753 q 743 742 754 749 q 658 670 704 721 q 558 551 611 619 q 448 408 506 483 q 330 261 390 333 q 207 130 269 189 q 81 35 144 71 q -47 0 17 0 z "},"I":{"ha":638,"x_min":-156,"x_max":933,"o":"m -29 -1 q -90 8 -61 -1 q -137 35 -119 17 q -156 79 -156 53 q -138 113 -156 100 q -107 126 -121 126 q -83 117 -89 126 q -78 99 -78 107 q -88 83 -78 90 q -110 74 -99 75 q -126 75 -119 72 q -132 78 -132 78 q -110 35 -132 58 q -42 13 -89 13 q 72 40 19 13 q 174 117 125 68 q 270 229 222 167 q 368 360 318 292 q 485 502 422 433 q 618 624 549 571 q 761 709 688 678 q 910 740 835 740 q 933 731 933 740 q 903 722 932 722 q 861 724 892 722 q 801 728 831 726 q 757 729 771 729 q 619 703 694 729 q 470 631 544 676 q 333 531 396 586 q 233 417 271 475 q 196 306 196 358 q 220 228 196 261 q 317 196 244 196 q 451 228 385 196 q 569 314 517 261 q 651 428 621 367 q 676 550 681 490 q 681 571 675 569 q 688 554 686 572 q 665 422 694 488 q 583 301 636 356 q 462 215 531 247 q 319 182 393 182 q 210 217 251 182 q 169 321 169 251 q 201 448 169 386 q 290 563 233 510 q 422 657 347 617 q 580 720 496 697 q 751 743 664 743 q 822 740 785 743 q 883 736 858 736 q 896 732 899 736 q 886 726 893 728 q 744 673 807 713 q 626 577 681 633 q 522 453 572 521 q 418 314 472 386 q 315 195 372 251 q 198 94 258 139 q 79 24 138 50 q -29 -1 21 -1 z "},"Ĳ":{"ha":1215,"x_min":-156,"x_max":1494,"o":"m 242 -399 q 193 -383 206 -399 q 181 -344 181 -368 q 219 -248 181 -299 q 322 -149 257 -197 q 467 -59 388 -100 q 631 7 547 -18 q 775 49 704 29 q 904 87 846 68 q 999 125 963 106 q 1019 125 1014 133 q 1010 110 1025 117 q 925 76 976 93 q 817 43 874 60 q 706 10 760 26 q 613 -21 653 -6 q 506 -72 563 -40 q 394 -142 449 -104 q 295 -219 340 -181 q 224 -292 250 -258 q 197 -350 197 -326 q 209 -376 197 -369 q 235 -383 221 -383 q 342 -342 282 -383 q 467 -232 401 -300 q 601 -81 533 -164 q 731 86 668 3 q 844 242 793 169 q 929 360 896 314 q 1047 502 983 433 q 1179 624 1110 571 q 1322 709 1249 678 q 1471 740 1396 740 q 1494 731 1494 740 q 1464 722 1493 722 q 1422 724 1453 722 q 1362 728 1392 726 q 1318 729 1332 729 q 1181 703 1256 729 q 1031 631 1106 676 q 894 531 957 586 q 794 417 832 475 q 757 306 757 358 q 767 251 757 276 q 803 211 776 226 q 878 196 829 196 q 1011 228 946 196 q 1128 314 1076 261 q 1210 428 1181 367 q 1238 550 1240 490 q 1242 571 1236 569 q 1249 554 1247 572 q 1228 422 1257 488 q 1146 301 1200 356 q 1023 215 1092 247 q 881 182 954 182 q 772 217 813 182 q 731 321 731 251 q 763 448 731 386 q 851 563 794 510 q 983 657 908 617 q 1141 720 1057 697 q 1313 743 1225 743 q 1383 740 1346 743 q 1444 736 1419 736 q 1457 732 1460 736 q 1447 726 1454 728 q 1305 675 1368 714 q 1188 579 1242 636 q 1083 454 1133 522 q 979 314 1033 386 q 899 204 949 272 q 785 56 849 136 q 652 -105 722 -25 q 510 -251 582 -185 q 369 -358 438 -318 q 242 -399 300 -399 m -29 -1 q -90 8 -61 -1 q -137 35 -119 17 q -156 79 -156 53 q -138 113 -156 100 q -107 126 -121 126 q -83 117 -89 126 q -78 99 -78 107 q -88 83 -78 90 q -110 74 -99 75 q -126 75 -119 72 q -132 78 -132 78 q -110 35 -132 58 q -42 13 -89 13 q 72 40 19 13 q 174 117 125 68 q 270 229 222 167 q 368 360 318 292 q 485 502 422 433 q 618 624 549 571 q 761 709 688 678 q 910 740 835 740 q 933 731 933 740 q 903 722 932 722 q 861 724 892 722 q 801 728 831 726 q 757 729 771 729 q 619 703 694 729 q 470 631 544 676 q 333 531 396 586 q 233 417 271 475 q 196 306 196 358 q 220 228 196 261 q 317 196 244 196 q 451 228 385 196 q 569 314 517 261 q 651 428 621 367 q 676 550 681 490 q 681 571 675 569 q 688 554 686 572 q 665 422 694 488 q 583 301 636 356 q 462 215 531 247 q 319 182 393 182 q 210 217 251 182 q 169 321 169 251 q 201 448 169 386 q 290 563 233 510 q 422 657 347 617 q 580 720 496 697 q 751 743 664 743 q 822 740 785 743 q 883 736 858 736 q 896 732 899 736 q 886 726 893 728 q 744 673 807 713 q 626 577 681 633 q 522 453 572 521 q 418 314 472 386 q 315 195 372 251 q 198 94 258 139 q 79 24 138 50 q -29 -1 21 -1 z "},"Í":{"ha":638,"x_min":-156,"x_max":960,"o":"m -29 -1 q -90 8 -61 -1 q -137 35 -119 17 q -156 79 -156 53 q -138 113 -156 100 q -107 126 -121 126 q -83 117 -89 126 q -78 99 -78 107 q -88 83 -78 90 q -110 74 -99 75 q -126 75 -119 72 q -132 78 -132 78 q -110 35 -132 58 q -42 13 -89 13 q 72 40 19 13 q 174 117 125 68 q 270 229 222 167 q 368 360 318 292 q 485 502 422 433 q 618 624 549 571 q 761 709 688 678 q 910 740 835 740 q 933 731 933 740 q 903 722 932 722 q 861 724 892 722 q 801 728 831 726 q 757 729 771 729 q 619 703 694 729 q 470 631 544 676 q 333 531 396 586 q 233 417 271 475 q 196 306 196 358 q 220 228 196 261 q 317 196 244 196 q 451 228 385 196 q 569 314 517 261 q 651 428 621 367 q 676 550 681 490 q 681 571 675 569 q 688 554 686 572 q 665 422 694 488 q 583 301 636 356 q 462 215 531 247 q 319 182 393 182 q 210 217 251 182 q 169 321 169 251 q 201 448 169 386 q 290 563 233 510 q 422 657 347 617 q 580 720 496 697 q 751 743 664 743 q 822 740 785 743 q 883 736 858 736 q 896 732 899 736 q 886 726 893 728 q 744 673 807 713 q 626 577 681 633 q 522 453 572 521 q 418 314 472 386 q 315 195 372 251 q 198 94 258 139 q 79 24 138 50 q -29 -1 21 -1 m 825 779 q 813 779 815 774 q 819 790 810 785 q 883 845 863 814 q 907 903 903 876 q 917 931 910 921 q 938 940 924 940 q 953 933 947 940 q 960 908 960 926 q 939 868 960 892 q 887 821 918 844 q 825 779 856 797 z "},"Î":{"ha":638,"x_min":-156,"x_max":933,"o":"m -29 -1 q -90 8 -61 -1 q -137 35 -119 17 q -156 79 -156 53 q -138 113 -156 100 q -107 126 -121 126 q -83 117 -89 126 q -78 99 -78 107 q -88 83 -78 90 q -110 74 -99 75 q -126 75 -119 72 q -132 78 -132 78 q -110 35 -132 58 q -42 13 -89 13 q 72 40 19 13 q 174 117 125 68 q 270 229 222 167 q 368 360 318 292 q 485 502 422 433 q 618 624 549 571 q 761 709 688 678 q 910 740 835 740 q 933 731 933 740 q 903 722 932 722 q 861 724 892 722 q 801 728 831 726 q 757 729 771 729 q 619 703 694 729 q 470 631 544 676 q 333 531 396 586 q 233 417 271 475 q 196 306 196 358 q 220 228 196 261 q 317 196 244 196 q 451 228 385 196 q 569 314 517 261 q 651 428 621 367 q 676 550 681 490 q 681 571 675 569 q 688 554 686 572 q 665 422 694 488 q 583 301 636 356 q 462 215 531 247 q 319 182 393 182 q 210 217 251 182 q 169 321 169 251 q 201 448 169 386 q 290 563 233 510 q 422 657 347 617 q 580 720 496 697 q 751 743 664 743 q 822 740 785 743 q 883 736 858 736 q 896 732 899 736 q 886 726 893 728 q 744 673 807 713 q 626 577 681 633 q 522 453 572 521 q 418 314 472 386 q 315 195 372 251 q 198 94 258 139 q 79 24 138 50 q -29 -1 21 -1 m 703 771 q 688 767 689 761 q 693 778 688 772 q 725 805 701 786 q 778 847 749 824 q 834 893 807 869 q 879 936 861 917 q 893 944 889 947 q 894 933 897 940 q 885 903 890 922 q 879 860 879 883 q 885 810 879 835 q 901 778 892 786 q 902 768 908 772 q 885 768 896 764 q 862 792 872 774 q 844 833 851 811 q 838 864 838 854 q 816 849 833 861 q 776 822 799 838 q 733 792 754 806 q 703 771 713 778 z "},"Ï":{"ha":638,"x_min":-156,"x_max":949,"o":"m -29 -1 q -90 8 -61 -1 q -137 35 -119 17 q -156 79 -156 53 q -138 113 -156 100 q -107 126 -121 126 q -83 117 -89 126 q -78 99 -78 107 q -88 83 -78 90 q -110 74 -99 75 q -126 75 -119 72 q -132 78 -132 78 q -110 35 -132 58 q -42 13 -89 13 q 72 40 19 13 q 174 117 125 68 q 270 229 222 167 q 368 360 318 292 q 485 502 422 433 q 618 624 549 571 q 761 709 688 678 q 910 740 835 740 q 933 731 933 740 q 903 722 932 722 q 861 724 892 722 q 801 728 831 726 q 757 729 771 729 q 619 703 694 729 q 470 631 544 676 q 333 531 396 586 q 233 417 271 475 q 196 306 196 358 q 220 228 196 261 q 317 196 244 196 q 451 228 385 196 q 569 314 517 261 q 651 428 621 367 q 676 550 681 490 q 681 571 675 569 q 688 554 686 572 q 665 422 694 488 q 583 301 636 356 q 462 215 531 247 q 319 182 393 182 q 210 217 251 182 q 169 321 169 251 q 201 448 169 386 q 290 563 233 510 q 422 657 347 617 q 580 720 496 697 q 751 743 664 743 q 822 740 785 743 q 883 736 858 736 q 896 732 899 736 q 886 726 893 728 q 744 673 807 713 q 626 577 681 633 q 522 453 572 521 q 418 314 472 386 q 315 195 372 251 q 198 94 258 139 q 79 24 138 50 q -29 -1 21 -1 m 771 799 q 724 784 747 775 q 701 815 701 793 q 707 835 701 826 q 718 850 713 844 q 763 865 739 871 q 788 836 788 860 q 783 815 788 824 q 771 799 778 806 m 932 799 q 885 784 908 775 q 861 815 861 793 q 876 850 861 838 q 926 865 903 872 q 949 836 949 857 q 944 815 949 824 q 932 799 939 806 z "},"Ì":{"ha":638,"x_min":-156,"x_max":933,"o":"m -29 -1 q -90 8 -61 -1 q -137 35 -119 17 q -156 79 -156 53 q -138 113 -156 100 q -107 126 -121 126 q -83 117 -89 126 q -78 99 -78 107 q -88 83 -78 90 q -110 74 -99 75 q -126 75 -119 72 q -132 78 -132 78 q -110 35 -132 58 q -42 13 -89 13 q 72 40 19 13 q 174 117 125 68 q 270 229 222 167 q 368 360 318 292 q 485 502 422 433 q 618 624 549 571 q 761 709 688 678 q 910 740 835 740 q 933 731 933 740 q 903 722 932 722 q 861 724 892 722 q 801 728 831 726 q 757 729 771 729 q 619 703 694 729 q 470 631 544 676 q 333 531 396 586 q 233 417 271 475 q 196 306 196 358 q 220 228 196 261 q 317 196 244 196 q 451 228 385 196 q 569 314 517 261 q 651 428 621 367 q 676 550 681 490 q 681 571 675 569 q 688 554 686 572 q 665 422 694 488 q 583 301 636 356 q 462 215 531 247 q 319 182 393 182 q 210 217 251 182 q 169 321 169 251 q 201 448 169 386 q 290 563 233 510 q 422 657 347 617 q 580 720 496 697 q 751 743 664 743 q 822 740 785 743 q 883 736 858 736 q 896 732 899 736 q 886 726 893 728 q 744 673 807 713 q 626 577 681 633 q 522 453 572 521 q 418 314 472 386 q 315 195 372 251 q 198 94 258 139 q 79 24 138 50 q -29 -1 21 -1 m 819 778 q 784 797 807 782 q 738 832 761 811 q 697 874 714 853 q 681 915 681 896 q 686 933 681 922 q 701 943 692 943 q 726 933 719 943 q 735 907 732 922 q 766 835 744 860 q 822 792 788 811 q 831 781 833 786 q 819 778 828 775 z "},"Ĩ":{"ha":638,"x_min":-156,"x_max":983,"o":"m -29 -1 q -90 8 -61 -1 q -137 35 -119 17 q -156 79 -156 53 q -138 113 -156 100 q -107 126 -121 126 q -83 117 -89 126 q -78 99 -78 107 q -88 83 -78 90 q -110 74 -99 75 q -126 75 -119 72 q -132 78 -132 78 q -110 35 -132 58 q -42 13 -89 13 q 72 40 19 13 q 174 117 125 68 q 270 229 222 167 q 368 360 318 292 q 485 502 422 433 q 618 624 549 571 q 761 709 688 678 q 910 740 835 740 q 933 731 933 740 q 903 722 932 722 q 861 724 892 722 q 801 728 831 726 q 757 729 771 729 q 619 703 694 729 q 470 631 544 676 q 333 531 396 586 q 233 417 271 475 q 196 306 196 358 q 220 228 196 261 q 317 196 244 196 q 451 228 385 196 q 569 314 517 261 q 651 428 621 367 q 676 550 681 490 q 681 571 675 569 q 688 554 686 572 q 665 422 694 488 q 583 301 636 356 q 462 215 531 247 q 319 182 393 182 q 210 217 251 182 q 169 321 169 251 q 201 448 169 386 q 290 563 233 510 q 422 657 347 617 q 580 720 496 697 q 751 743 664 743 q 822 740 785 743 q 883 736 858 736 q 896 732 899 736 q 886 726 893 728 q 744 673 807 713 q 626 577 681 633 q 522 453 572 521 q 418 314 472 386 q 315 195 372 251 q 198 94 258 139 q 79 24 138 50 q -29 -1 21 -1 m 894 800 q 853 812 872 800 q 817 835 833 824 q 783 846 800 846 q 751 834 764 846 q 733 807 739 822 q 722 797 729 793 q 717 814 714 800 q 733 841 719 824 q 766 872 746 858 q 807 886 786 886 q 843 875 825 886 q 880 852 861 864 q 915 840 899 840 q 949 857 936 840 q 965 883 961 874 q 976 890 969 893 q 981 878 983 888 q 964 848 978 867 q 931 815 950 829 q 894 800 913 800 z "},"J":{"ha":647,"x_min":-382,"x_max":932,"o":"m -321 -396 q -369 -381 -357 -396 q -382 -342 -382 -365 q -344 -245 -382 -296 q -240 -146 -306 -194 q -95 -56 -175 -97 q 68 10 -15 -15 q 212 51 142 32 q 341 88 282 71 q 436 121 400 106 q 456 123 456 129 q 447 113 456 117 q 360 78 411 94 q 252 45 308 61 q 143 13 196 29 q 50 -18 90 -3 q -57 -69 0 -37 q -168 -140 -114 -101 q -267 -217 -222 -178 q -339 -290 -312 -256 q -365 -347 -365 -324 q -353 -374 -365 -367 q -328 -381 -342 -381 q -221 -339 -281 -381 q -95 -229 -161 -297 q 38 -78 -29 -161 q 168 89 106 6 q 282 244 231 172 q 367 363 333 317 q 484 505 421 436 q 617 627 547 574 q 760 712 686 681 q 908 743 833 743 q 931 734 932 743 q 901 725 931 725 q 860 727 890 725 q 799 731 829 729 q 756 732 769 732 q 618 706 693 732 q 469 634 543 679 q 332 533 394 589 q 232 419 269 478 q 194 308 194 361 q 202 250 194 279 q 233 202 210 221 q 306 183 257 183 q 400 206 350 183 q 499 268 450 229 q 588 356 549 307 q 651 455 628 404 q 671 551 674 506 q 677 573 669 571 q 686 557 685 575 q 662 424 694 492 q 572 298 629 356 q 445 205 515 240 q 308 169 375 169 q 204 212 240 169 q 168 324 168 254 q 200 451 168 389 q 289 566 232 513 q 420 660 346 619 q 578 723 494 700 q 750 746 663 746 q 820 742 783 746 q 882 739 857 739 q 894 735 897 739 q 885 729 892 731 q 742 678 806 717 q 625 582 679 639 q 521 457 571 525 q 417 317 471 389 q 336 207 386 275 q 223 58 286 139 q 90 -102 160 -22 q -53 -249 19 -182 q -194 -356 -125 -315 q -321 -396 -262 -396 z "},"Ĵ":{"ha":647,"x_min":-382,"x_max":932,"o":"m -321 -396 q -369 -381 -357 -396 q -382 -342 -382 -365 q -344 -245 -382 -296 q -240 -146 -306 -194 q -95 -56 -175 -97 q 68 10 -15 -15 q 212 51 142 32 q 341 88 282 71 q 436 121 400 106 q 456 123 456 129 q 447 113 456 117 q 360 78 411 94 q 252 45 308 61 q 143 13 196 29 q 50 -18 90 -3 q -57 -69 0 -37 q -168 -140 -114 -101 q -267 -217 -222 -178 q -339 -290 -312 -256 q -365 -347 -365 -324 q -353 -374 -365 -367 q -328 -381 -342 -381 q -221 -339 -281 -381 q -95 -229 -161 -297 q 38 -78 -29 -161 q 168 89 106 6 q 282 244 231 172 q 367 363 333 317 q 484 505 421 436 q 617 627 547 574 q 760 712 686 681 q 908 743 833 743 q 931 734 932 743 q 901 725 931 725 q 860 727 890 725 q 799 731 829 729 q 756 732 769 732 q 618 706 693 732 q 469 634 543 679 q 332 533 394 589 q 232 419 269 478 q 194 308 194 361 q 202 250 194 279 q 233 202 210 221 q 306 183 257 183 q 400 206 350 183 q 499 268 450 229 q 588 356 549 307 q 651 455 628 404 q 671 551 674 506 q 677 573 669 571 q 686 557 685 575 q 662 424 694 492 q 572 298 629 356 q 445 205 515 240 q 308 169 375 169 q 204 212 240 169 q 168 324 168 254 q 200 451 168 389 q 289 566 232 513 q 420 660 346 619 q 578 723 494 700 q 750 746 663 746 q 820 742 783 746 q 882 739 857 739 q 894 735 897 739 q 885 729 892 731 q 742 678 806 717 q 625 582 679 639 q 521 457 571 525 q 417 317 471 389 q 336 207 386 275 q 223 58 286 139 q 90 -102 160 -22 q -53 -249 19 -182 q -194 -356 -125 -315 q -321 -396 -262 -396 m 656 782 q 641 778 642 772 q 646 789 640 783 q 678 816 654 797 q 731 858 701 835 q 787 904 760 881 q 832 947 814 928 q 846 955 842 958 q 847 944 850 951 q 838 914 843 933 q 832 871 832 894 q 838 822 832 846 q 854 789 844 797 q 855 779 861 783 q 838 779 849 775 q 815 803 825 785 q 797 844 804 822 q 790 875 790 865 q 769 860 786 872 q 729 833 751 849 q 686 803 707 817 q 656 782 665 789 z "},"K":{"ha":949,"x_min":-83,"x_max":1308,"o":"m 29 1 q -52 20 -21 1 q -83 74 -83 39 q -70 105 -83 92 q -35 118 -57 118 q -7 96 -7 118 q -17 74 -7 79 q -35 68 -28 68 q -55 71 -49 68 q -61 74 -61 74 q -56 51 -61 64 q -33 27 -50 38 q 17 17 -17 17 q 126 49 74 17 q 228 133 179 81 q 326 247 278 185 q 425 368 375 308 q 488 436 449 396 q 575 521 528 476 q 668 606 622 565 q 749 674 714 646 q 767 685 760 682 q 771 681 774 688 q 740 654 769 676 q 665 603 710 632 q 573 554 621 575 q 486 533 525 533 q 447 544 463 533 q 431 576 431 554 q 447 630 431 608 q 483 665 463 651 q 519 690 503 679 q 535 714 535 701 q 518 740 535 733 q 476 747 501 747 q 376 723 422 747 q 297 663 331 699 q 243 592 263 628 q 221 532 224 556 q 213 523 219 519 q 208 536 207 526 q 228 592 210 556 q 280 667 246 628 q 363 734 314 707 q 476 761 413 761 q 538 749 511 761 q 565 706 565 738 q 549 651 565 675 q 510 612 532 628 q 471 585 488 596 q 454 565 454 574 q 462 552 454 556 q 493 549 469 549 q 576 569 532 549 q 667 622 621 590 q 756 688 713 654 q 837 747 800 721 q 899 781 874 772 q 912 779 906 783 q 901 768 918 775 q 801 699 856 750 q 687 578 747 649 q 563 430 626 508 q 431 276 499 351 q 297 138 364 200 q 162 39 229 76 q 29 1 94 1 m 1228 668 q 1240 688 1228 679 q 1264 697 1253 697 q 1281 694 1274 697 q 1289 692 1289 692 q 1283 728 1296 707 q 1236 750 1269 750 q 1147 725 1190 750 q 1061 660 1104 700 q 969 576 1018 621 q 856 479 917 526 q 737 402 796 432 q 629 372 678 372 q 588 380 608 372 q 568 400 568 388 q 587 419 568 413 q 626 425 606 425 q 660 421 640 425 q 697 401 681 417 q 714 351 714 386 q 694 261 714 303 q 647 186 675 219 q 589 126 618 153 q 540 78 560 99 q 521 43 521 58 q 536 21 521 26 q 565 15 551 15 q 653 44 610 15 q 731 115 696 72 q 788 201 765 157 q 813 276 810 246 q 819 285 814 288 q 825 271 824 283 q 804 190 828 236 q 741 101 781 144 q 654 28 701 57 q 563 0 607 0 q 514 13 535 0 q 493 56 493 25 q 513 130 493 94 q 562 198 532 165 q 621 261 592 231 q 669 319 650 292 q 689 371 689 346 q 678 399 689 390 q 653 411 667 408 q 631 414 639 414 q 606 411 618 414 q 593 401 593 408 q 603 392 593 396 q 628 388 614 388 q 719 421 676 388 q 809 503 763 454 q 910 601 856 553 q 1015 682 958 646 q 1128 740 1071 718 q 1236 761 1186 761 q 1286 748 1264 761 q 1308 703 1308 735 q 1293 658 1308 676 q 1257 639 1278 639 q 1228 668 1228 639 z "},"Ķ":{"ha":949,"x_min":-83,"x_max":1308,"o":"m 169 -189 q 219 -160 199 -178 q 253 -116 240 -142 q 268 -56 265 -90 q 278 -31 269 -46 q 308 -17 286 -17 q 324 -24 318 -17 q 331 -49 331 -31 q 315 -91 331 -67 q 274 -139 299 -115 q 223 -180 250 -162 q 175 -201 196 -197 q 163 -198 165 -203 q 169 -189 160 -193 m 29 1 q -52 20 -21 1 q -83 74 -83 39 q -70 105 -83 92 q -35 118 -57 118 q -7 96 -7 118 q -17 74 -7 79 q -35 68 -28 68 q -55 71 -49 68 q -61 74 -61 74 q -56 51 -61 64 q -33 27 -50 38 q 17 17 -17 17 q 126 49 74 17 q 228 133 179 81 q 326 247 278 185 q 425 368 375 308 q 488 436 449 396 q 575 521 528 476 q 668 606 622 565 q 749 674 714 646 q 767 685 760 682 q 771 681 774 688 q 740 654 769 676 q 665 603 710 632 q 573 554 621 575 q 486 533 525 533 q 447 544 463 533 q 431 576 431 554 q 447 630 431 608 q 483 665 463 651 q 519 690 503 679 q 535 714 535 701 q 518 740 535 733 q 476 747 501 747 q 376 723 422 747 q 297 663 331 699 q 243 592 263 628 q 221 532 224 556 q 213 523 219 519 q 208 536 207 526 q 228 592 210 556 q 280 667 246 628 q 363 734 314 707 q 476 761 413 761 q 538 749 511 761 q 565 706 565 738 q 549 651 565 675 q 510 612 532 628 q 471 585 488 596 q 454 565 454 574 q 462 552 454 556 q 493 549 469 549 q 576 569 532 549 q 667 622 621 590 q 756 688 713 654 q 837 747 800 721 q 899 781 874 772 q 912 779 906 783 q 901 768 918 775 q 801 699 856 750 q 687 578 747 649 q 563 430 626 508 q 431 276 499 351 q 297 138 364 200 q 162 39 229 76 q 29 1 94 1 m 1228 668 q 1240 688 1228 679 q 1264 697 1253 697 q 1281 694 1274 697 q 1289 692 1289 692 q 1283 728 1296 707 q 1236 750 1269 750 q 1147 725 1190 750 q 1061 660 1104 700 q 969 576 1018 621 q 856 479 917 526 q 737 402 796 432 q 629 372 678 372 q 588 380 608 372 q 568 400 568 388 q 587 419 568 413 q 626 425 606 425 q 660 421 640 425 q 697 401 681 417 q 714 351 714 386 q 694 261 714 303 q 647 186 675 219 q 589 126 618 153 q 540 78 560 99 q 521 43 521 58 q 536 21 521 26 q 565 15 551 15 q 653 44 610 15 q 731 115 696 72 q 788 201 765 157 q 813 276 810 246 q 819 285 814 288 q 825 271 824 283 q 804 190 828 236 q 741 101 781 144 q 654 28 701 57 q 563 0 607 0 q 514 13 535 0 q 493 56 493 25 q 513 130 493 94 q 562 198 532 165 q 621 261 592 231 q 669 319 650 292 q 689 371 689 346 q 678 399 689 390 q 653 411 667 408 q 631 414 639 414 q 606 411 618 414 q 593 401 593 408 q 603 392 593 396 q 628 388 614 388 q 719 421 676 388 q 809 503 763 454 q 910 601 856 553 q 1015 682 958 646 q 1128 740 1071 718 q 1236 761 1186 761 q 1286 748 1264 761 q 1308 703 1308 735 q 1293 658 1308 676 q 1257 639 1278 639 q 1228 668 1228 639 z "},"L":{"ha":749,"x_min":-143,"x_max":979,"o":"m 301 615 q 313 609 317 615 q 300 603 308 603 q 253 592 282 603 q 197 562 225 582 q 150 511 169 542 q 131 439 131 481 q 156 351 131 388 q 232 297 181 315 q 360 278 283 278 q 506 303 428 278 q 662 373 585 329 q 803 471 739 417 q 905 583 867 525 q 943 693 943 640 q 927 724 943 708 q 883 739 911 739 q 768 707 821 739 q 667 619 715 675 q 569 489 618 563 q 465 332 519 415 q 384 222 431 279 q 278 113 338 164 q 144 31 218 63 q -22 0 69 0 q -143 50 -143 0 q -113 83 -143 65 q -24 100 -83 100 q 76 87 33 100 q 165 57 119 74 q 271 27 210 40 q 425 14 332 14 q 517 27 467 14 q 590 71 567 40 q 601 76 596 78 q 600 64 607 75 q 538 15 583 40 q 421 -11 493 -11 q 304 1 365 -11 q 183 31 243 14 q 71 61 124 49 q -22 74 18 74 q -99 66 -71 74 q -128 50 -128 58 q -98 24 -128 35 q -21 14 -68 14 q 113 42 54 14 q 219 119 171 71 q 312 228 268 167 q 400 353 356 289 q 515 511 458 439 q 632 638 572 583 q 758 722 692 692 q 900 751 824 751 q 953 736 928 751 q 979 686 979 721 q 938 578 979 636 q 830 465 897 521 q 680 364 763 410 q 514 291 597 318 q 358 264 431 264 q 199 289 257 264 q 116 351 140 314 q 92 425 92 389 q 122 515 92 471 q 199 587 151 558 q 301 615 247 615 z "},"Ł":{"ha":744,"x_min":-143,"x_max":979,"o":"m 369 751 q 381 745 385 751 q 368 739 376 739 q 322 728 350 739 q 265 698 293 718 q 218 647 238 678 q 199 575 199 617 q 223 488 199 524 q 297 434 247 453 q 424 415 347 415 q 569 431 496 415 q 710 473 643 446 q 829 535 776 500 q 913 611 882 571 q 943 693 943 651 q 927 724 943 708 q 883 739 911 739 q 768 707 821 739 q 667 619 715 675 q 569 489 618 563 q 465 332 519 415 q 384 222 431 279 q 278 113 338 164 q 144 31 218 63 q -22 0 69 0 q -143 50 -143 0 q -113 83 -143 65 q -24 100 -83 100 q 76 87 33 100 q 165 57 119 74 q 271 27 210 40 q 425 14 332 14 q 517 27 467 14 q 590 71 567 40 q 601 76 596 78 q 600 64 607 75 q 538 15 583 40 q 421 -11 493 -11 q 304 1 365 -11 q 183 31 243 14 q 71 61 124 49 q -22 74 18 74 q -99 66 -71 74 q -128 50 -128 58 q -98 24 -128 35 q -21 14 -68 14 q 113 42 54 14 q 219 119 171 71 q 312 228 268 167 q 400 353 356 289 q 515 513 460 440 q 627 640 569 586 q 749 722 685 693 q 893 751 814 751 q 950 736 921 751 q 979 686 979 721 q 945 606 979 646 q 853 528 911 565 q 722 463 794 492 q 572 418 650 435 q 422 401 494 401 q 264 426 321 401 q 183 488 207 451 q 160 561 160 525 q 190 651 160 607 q 267 723 219 694 q 369 751 315 751 m 171 233 q 203 242 171 233 q 285 263 235 250 q 391 289 335 275 q 497 315 447 303 q 579 336 547 328 q 611 344 611 344 q 606 334 611 339 q 600 322 600 329 q 568 315 600 322 q 486 294 536 307 q 380 267 436 282 q 274 240 324 253 q 192 220 224 228 q 160 213 160 213 q 166 223 163 218 q 171 233 169 228 z "},"M":{"ha":974,"x_min":-149,"x_max":1211,"o":"m 640 -1 q 600 8 618 -1 q 582 47 582 17 q 610 124 582 74 q 685 238 638 174 q 790 374 732 303 q 908 512 847 444 q 1025 637 969 579 q 1124 733 1081 694 q 1188 782 1167 772 q 1197 783 1194 785 q 1190 776 1200 781 q 1090 710 1149 757 q 962 600 1031 664 q 821 464 893 536 q 681 320 749 392 q 556 187 614 249 q 458 81 499 125 q 403 19 418 36 q 372 6 385 1 q 360 36 360 10 q 382 126 360 72 q 442 244 404 181 q 525 375 479 308 q 617 505 571 442 q 706 619 664 568 q 778 705 749 671 q 818 747 808 739 q 836 753 824 751 q 838 747 849 754 q 761 686 810 733 q 650 572 713 639 q 516 426 588 504 q 368 274 444 349 q 217 137 292 199 q 75 38 143 75 q -49 0 7 0 q -126 20 -104 0 q -149 61 -149 40 q -133 102 -149 89 q -104 115 -118 115 q -72 93 -72 115 q -83 70 -72 76 q -101 64 -94 64 q -121 67 -114 64 q -128 71 -128 71 q -126 54 -128 68 q -108 27 -124 40 q -51 14 -92 14 q 76 55 6 14 q 224 163 146 96 q 383 310 303 229 q 538 474 463 392 q 678 625 613 556 q 792 740 743 694 q 865 790 840 785 q 885 790 885 794 q 878 779 885 786 q 828 724 860 765 q 756 624 796 683 q 670 496 715 565 q 581 356 625 426 q 498 220 536 285 q 432 106 460 156 q 393 29 404 56 q 382 21 392 26 q 374 17 372 15 q 404 51 375 18 q 483 140 433 85 q 596 262 532 194 q 731 401 660 329 q 872 542 801 474 q 1006 666 942 611 q 1119 756 1069 721 q 1196 793 1168 790 q 1210 790 1211 796 q 1204 781 1210 783 q 1128 715 1174 763 q 1028 601 1082 667 q 917 463 974 536 q 808 317 860 389 q 715 184 756 244 q 649 84 674 124 q 625 36 625 44 q 635 19 625 26 q 660 13 646 13 q 723 28 692 13 q 776 59 754 43 q 800 76 799 75 q 814 75 807 86 q 806 57 821 64 q 781 42 806 57 q 719 13 757 28 q 640 -1 682 -1 z "},"N":{"ha":833,"x_min":-122,"x_max":1393,"o":"m 397 -4 q 382 -8 389 -11 q 388 8 375 -4 q 426 76 408 29 q 465 189 444 122 q 515 335 486 256 q 587 501 544 415 q 689 672 629 588 q 699 681 693 678 q 703 679 704 685 q 676 640 703 678 q 601 542 649 603 q 494 410 554 482 q 366 265 433 338 q 231 133 299 193 q 100 36 163 72 q -11 0 38 0 q -99 24 -75 0 q -122 74 -122 49 q -106 105 -122 93 q -76 117 -90 117 q -46 93 -46 117 q -55 73 -46 81 q -78 65 -64 65 q -94 69 -87 65 q -101 72 -101 72 q -84 33 -101 54 q -19 13 -67 13 q 89 49 28 13 q 217 145 150 85 q 353 278 285 206 q 483 424 421 350 q 594 563 544 499 q 675 671 643 628 q 713 724 707 714 q 728 742 721 735 q 739 746 736 749 q 732 724 742 743 q 700 642 719 700 q 654 507 681 585 q 593 344 628 429 q 515 181 558 260 q 417 40 471 101 q 410 37 408 32 q 419 51 413 42 q 431 65 426 61 q 532 175 474 106 q 660 327 590 244 q 806 493 729 410 q 965 646 883 576 q 1127 758 1046 715 q 1286 800 1208 800 q 1367 769 1342 800 q 1393 697 1393 738 q 1369 623 1393 660 q 1308 556 1344 586 q 1238 505 1272 525 q 1185 482 1204 485 q 1167 481 1172 481 q 1176 490 1163 482 q 1203 503 1176 490 q 1267 542 1231 517 q 1331 608 1303 568 q 1358 700 1358 647 q 1352 737 1358 717 q 1329 772 1346 757 q 1281 786 1313 786 q 1130 743 1208 786 q 971 629 1051 700 q 811 472 890 558 q 658 295 732 385 q 517 128 583 206 q 397 -4 451 50 m 153 436 q 30 481 68 436 q -8 585 -8 525 q 17 667 -8 626 q 99 735 43 708 q 243 763 154 763 q 343 748 299 763 q 423 715 388 733 q 490 683 458 697 q 553 668 522 668 q 611 683 583 668 q 644 703 639 697 q 653 706 651 708 q 651 696 654 703 q 636 678 650 692 q 593 652 622 664 q 515 640 564 640 q 434 656 472 640 q 359 690 396 671 q 283 725 322 710 q 197 740 243 740 q 95 715 138 740 q 31 654 53 690 q 8 585 8 618 q 42 491 8 533 q 153 449 76 449 q 227 467 193 449 q 281 517 261 486 q 301 581 301 547 q 295 601 301 589 q 286 614 289 614 q 281 609 286 614 q 265 604 275 604 q 248 610 257 604 q 239 628 239 615 q 247 645 239 639 q 264 651 254 651 q 300 635 283 651 q 317 583 317 618 q 268 478 317 519 q 153 436 219 436 z "},"Ń":{"ha":836,"x_min":-122,"x_max":1393,"o":"m 397 -4 q 382 -8 389 -11 q 388 8 375 -4 q 426 76 408 29 q 465 189 444 122 q 515 335 486 256 q 587 501 544 415 q 689 672 629 588 q 699 681 693 678 q 703 679 704 685 q 676 640 703 678 q 601 542 649 603 q 494 410 554 482 q 366 265 433 338 q 231 133 299 193 q 100 36 163 72 q -11 0 38 0 q -99 24 -75 0 q -122 74 -122 49 q -106 105 -122 93 q -76 117 -90 117 q -46 93 -46 117 q -55 73 -46 81 q -78 65 -64 65 q -94 69 -87 65 q -101 72 -101 72 q -84 33 -101 54 q -19 13 -67 13 q 89 49 28 13 q 217 145 150 85 q 353 278 285 206 q 483 424 421 350 q 594 563 544 499 q 675 671 643 628 q 713 724 707 714 q 728 742 721 735 q 739 746 736 749 q 732 724 742 743 q 700 642 719 700 q 654 507 681 585 q 593 344 628 429 q 515 181 558 260 q 417 40 471 101 q 410 37 408 32 q 419 51 413 42 q 431 65 426 61 q 532 175 474 106 q 660 327 590 244 q 806 493 729 410 q 965 646 883 576 q 1127 758 1046 715 q 1286 800 1208 800 q 1367 769 1342 800 q 1393 697 1393 738 q 1369 623 1393 660 q 1308 556 1344 586 q 1238 505 1272 525 q 1185 482 1204 485 q 1167 481 1172 481 q 1176 490 1163 482 q 1203 503 1176 490 q 1267 542 1231 517 q 1331 608 1303 568 q 1358 700 1358 647 q 1352 737 1358 717 q 1329 772 1346 757 q 1281 786 1313 786 q 1130 743 1208 786 q 971 629 1051 700 q 811 472 890 558 q 658 295 732 385 q 517 128 583 206 q 397 -4 451 50 m 153 436 q 30 481 68 436 q -8 585 -8 525 q 17 667 -8 626 q 99 735 43 708 q 243 763 154 763 q 343 748 299 763 q 423 715 388 733 q 490 683 458 697 q 553 668 522 668 q 611 683 583 668 q 644 703 639 697 q 653 706 651 708 q 651 696 654 703 q 636 678 650 692 q 593 652 622 664 q 515 640 564 640 q 434 656 472 640 q 359 690 396 671 q 283 725 322 710 q 197 740 243 740 q 95 715 138 740 q 31 654 53 690 q 8 585 8 618 q 42 491 8 533 q 153 449 76 449 q 227 467 193 449 q 281 517 261 486 q 301 581 301 547 q 295 601 301 589 q 286 614 289 614 q 281 609 286 614 q 265 604 275 604 q 248 610 257 604 q 239 628 239 615 q 247 645 239 639 q 264 651 254 651 q 300 635 283 651 q 317 583 317 618 q 268 478 317 519 q 153 436 219 436 m 935 782 q 922 782 925 776 q 929 793 919 788 q 992 848 972 817 q 1017 906 1013 879 q 1026 933 1019 924 q 1047 943 1033 943 q 1063 936 1057 943 q 1069 911 1069 929 q 1049 871 1069 894 q 997 824 1028 847 q 935 782 965 800 z "},"Ñ":{"ha":838,"x_min":-122,"x_max":1393,"o":"m 397 -4 q 382 -8 389 -11 q 388 8 375 -4 q 426 76 408 29 q 465 189 444 122 q 515 335 486 256 q 587 501 544 415 q 689 672 629 588 q 699 681 693 678 q 703 679 704 685 q 676 640 703 678 q 601 542 649 603 q 494 410 554 482 q 366 265 433 338 q 231 133 299 193 q 100 36 163 72 q -11 0 38 0 q -99 24 -75 0 q -122 74 -122 49 q -106 105 -122 93 q -76 117 -90 117 q -46 93 -46 117 q -55 73 -46 81 q -78 65 -64 65 q -94 69 -87 65 q -101 72 -101 72 q -84 33 -101 54 q -19 13 -67 13 q 89 49 28 13 q 217 145 150 85 q 353 278 285 206 q 483 424 421 350 q 594 563 544 499 q 675 671 643 628 q 713 724 707 714 q 728 742 721 735 q 739 746 736 749 q 732 724 742 743 q 700 642 719 700 q 654 507 681 585 q 593 344 628 429 q 515 181 558 260 q 417 40 471 101 q 410 37 408 32 q 419 51 413 42 q 431 65 426 61 q 532 175 474 106 q 660 327 590 244 q 806 493 729 410 q 965 646 883 576 q 1127 758 1046 715 q 1286 800 1208 800 q 1367 769 1342 800 q 1393 697 1393 738 q 1369 623 1393 660 q 1308 556 1344 586 q 1238 505 1272 525 q 1185 482 1204 485 q 1167 481 1172 481 q 1176 490 1163 482 q 1203 503 1176 490 q 1267 542 1231 517 q 1331 608 1303 568 q 1358 700 1358 647 q 1352 737 1358 717 q 1329 772 1346 757 q 1281 786 1313 786 q 1130 743 1208 786 q 971 629 1051 700 q 811 472 890 558 q 658 295 732 385 q 517 128 583 206 q 397 -4 451 50 m 153 436 q 30 481 68 436 q -8 585 -8 525 q 17 667 -8 626 q 99 735 43 708 q 243 763 154 763 q 343 748 299 763 q 423 715 388 733 q 490 683 458 697 q 553 668 522 668 q 611 683 583 668 q 644 703 639 697 q 653 706 651 708 q 651 696 654 703 q 636 678 650 692 q 593 652 622 664 q 515 640 564 640 q 434 656 472 640 q 359 690 396 671 q 283 725 322 710 q 197 740 243 740 q 95 715 138 740 q 31 654 53 690 q 8 585 8 618 q 42 491 8 533 q 153 449 76 449 q 227 467 193 449 q 281 517 261 486 q 301 581 301 547 q 295 601 301 589 q 286 614 289 614 q 281 609 286 614 q 265 604 275 604 q 248 610 257 604 q 239 628 239 615 q 247 645 239 639 q 264 651 254 651 q 300 635 283 651 q 317 583 317 618 q 268 478 317 519 q 153 436 219 436 m 1007 804 q 965 816 985 804 q 929 839 946 828 q 896 850 913 850 q 864 838 876 850 q 846 811 851 826 q 834 801 842 797 q 829 818 826 804 q 845 845 832 828 q 878 876 858 863 q 919 890 899 890 q 956 879 938 890 q 992 856 974 868 q 1028 844 1011 844 q 1061 861 1049 844 q 1078 888 1074 878 q 1089 894 1082 897 q 1093 882 1096 892 q 1076 852 1090 871 q 1044 819 1063 833 q 1007 804 1025 804 z "},"O":{"ha":686,"x_min":19,"x_max":807,"o":"m 169 0 q 78 24 111 0 q 33 86 46 47 q 19 171 19 125 q 53 316 19 238 q 148 471 88 394 q 290 610 208 547 q 467 710 371 672 q 664 749 563 749 q 753 728 722 749 q 796 676 785 707 q 801 610 807 644 q 775 549 794 576 q 762 539 769 539 q 763 551 754 539 q 784 608 779 576 q 780 669 789 640 q 744 716 771 697 q 668 735 717 735 q 533 705 603 735 q 394 624 463 675 q 265 510 325 574 q 157 376 204 446 q 83 240 110 307 q 57 117 57 174 q 66 78 57 103 q 101 33 75 53 q 178 13 128 13 q 292 40 229 13 q 418 117 354 68 q 535 227 482 165 q 620 357 588 289 q 653 492 653 425 q 631 562 653 539 q 565 585 610 585 q 445 551 501 585 q 344 462 389 517 q 275 343 300 407 q 249 219 250 279 q 276 115 247 160 q 277 106 281 110 q 267 110 274 103 q 231 209 233 149 q 253 338 229 269 q 322 465 276 406 q 432 563 368 525 q 572 601 496 601 q 649 571 618 601 q 679 483 679 540 q 649 349 679 418 q 566 218 618 281 q 448 106 514 156 q 310 28 382 57 q 169 0 239 0 z "},"Ó":{"ha":685,"x_min":19,"x_max":807,"o":"m 169 0 q 78 24 111 0 q 33 86 46 47 q 19 171 19 125 q 53 316 19 238 q 148 471 88 394 q 290 610 208 547 q 467 710 371 672 q 664 749 563 749 q 753 728 722 749 q 796 676 785 707 q 801 610 807 644 q 775 549 794 576 q 762 539 769 539 q 763 551 754 539 q 784 608 779 576 q 780 669 789 640 q 744 716 771 697 q 668 735 717 735 q 533 705 603 735 q 394 624 463 675 q 265 510 325 574 q 157 376 204 446 q 83 240 110 307 q 57 117 57 174 q 66 78 57 103 q 101 33 75 53 q 178 13 128 13 q 292 40 229 13 q 418 117 354 68 q 535 227 482 165 q 620 357 588 289 q 653 492 653 425 q 631 562 653 539 q 565 585 610 585 q 445 551 501 585 q 344 462 389 517 q 275 343 300 407 q 249 219 250 279 q 276 115 247 160 q 277 106 281 110 q 267 110 274 103 q 231 209 233 149 q 253 338 229 269 q 322 465 276 406 q 432 563 368 525 q 572 601 496 601 q 649 571 618 601 q 679 483 679 540 q 649 349 679 418 q 566 218 618 281 q 448 106 514 156 q 310 28 382 57 q 169 0 239 0 m 622 782 q 610 782 613 776 q 617 793 607 788 q 680 848 660 817 q 704 906 700 879 q 714 933 707 924 q 735 943 721 943 q 751 936 744 943 q 757 911 757 929 q 736 871 757 894 q 684 824 715 847 q 622 782 653 800 z "},"Ô":{"ha":685,"x_min":19,"x_max":807,"o":"m 169 0 q 78 24 111 0 q 33 86 46 47 q 19 171 19 125 q 53 316 19 238 q 148 471 88 394 q 290 610 208 547 q 467 710 371 672 q 664 749 563 749 q 753 728 722 749 q 796 676 785 707 q 801 610 807 644 q 775 549 794 576 q 762 539 769 539 q 763 551 754 539 q 784 608 779 576 q 780 669 789 640 q 744 716 771 697 q 668 735 717 735 q 533 705 603 735 q 394 624 463 675 q 265 510 325 574 q 157 376 204 446 q 83 240 110 307 q 57 117 57 174 q 66 78 57 103 q 101 33 75 53 q 178 13 128 13 q 292 40 229 13 q 418 117 354 68 q 535 227 482 165 q 620 357 588 289 q 653 492 653 425 q 631 562 653 539 q 565 585 610 585 q 445 551 501 585 q 344 462 389 517 q 275 343 300 407 q 249 219 250 279 q 276 115 247 160 q 277 106 281 110 q 267 110 274 103 q 231 209 233 149 q 253 338 229 269 q 322 465 276 406 q 432 563 368 525 q 572 601 496 601 q 649 571 618 601 q 679 483 679 540 q 649 349 679 418 q 566 218 618 281 q 448 106 514 156 q 310 28 382 57 q 169 0 239 0 m 499 772 q 484 768 485 763 q 489 779 483 774 q 521 806 497 788 q 574 848 544 825 q 630 894 603 871 q 675 938 657 918 q 689 945 685 949 q 690 935 693 942 q 681 904 686 924 q 675 861 675 885 q 681 812 675 836 q 697 779 688 788 q 698 769 704 774 q 681 769 692 765 q 658 794 668 775 q 640 834 647 813 q 633 865 633 856 q 612 851 629 863 q 572 823 594 839 q 529 793 550 807 q 499 772 508 779 z "},"Ö":{"ha":686,"x_min":19,"x_max":807,"o":"m 169 0 q 78 24 111 0 q 33 86 46 47 q 19 171 19 125 q 53 316 19 238 q 148 471 88 394 q 290 610 208 547 q 467 710 371 672 q 664 749 563 749 q 753 728 722 749 q 796 676 785 707 q 801 610 807 644 q 775 549 794 576 q 762 539 769 539 q 763 551 754 539 q 784 608 779 576 q 780 669 789 640 q 744 716 771 697 q 668 735 717 735 q 533 705 603 735 q 394 624 463 675 q 265 510 325 574 q 157 376 204 446 q 83 240 110 307 q 57 117 57 174 q 66 78 57 103 q 101 33 75 53 q 178 13 128 13 q 292 40 229 13 q 418 117 354 68 q 535 227 482 165 q 620 357 588 289 q 653 492 653 425 q 631 562 653 539 q 565 585 610 585 q 445 551 501 585 q 344 462 389 517 q 275 343 300 407 q 249 219 250 279 q 276 115 247 160 q 277 106 281 110 q 267 110 274 103 q 231 209 233 149 q 253 338 229 269 q 322 465 276 406 q 432 563 368 525 q 572 601 496 601 q 649 571 618 601 q 679 483 679 540 q 649 349 679 418 q 566 218 618 281 q 448 106 514 156 q 310 28 382 57 q 169 0 239 0 m 569 801 q 523 787 546 778 q 500 818 500 796 q 506 838 500 829 q 517 853 511 847 q 562 868 538 874 q 586 839 586 863 q 581 817 586 826 q 569 801 576 808 m 731 801 q 683 787 707 778 q 660 818 660 796 q 675 853 660 840 q 724 867 701 875 q 747 839 747 860 q 742 817 747 826 q 731 801 738 808 z "},"Ò":{"ha":685,"x_min":19,"x_max":807,"o":"m 169 0 q 78 24 111 0 q 33 86 46 47 q 19 171 19 125 q 53 316 19 238 q 148 471 88 394 q 290 610 208 547 q 467 710 371 672 q 664 749 563 749 q 753 728 722 749 q 796 676 785 707 q 801 610 807 644 q 775 549 794 576 q 762 539 769 539 q 763 551 754 539 q 784 608 779 576 q 780 669 789 640 q 744 716 771 697 q 668 735 717 735 q 533 705 603 735 q 394 624 463 675 q 265 510 325 574 q 157 376 204 446 q 83 240 110 307 q 57 117 57 174 q 66 78 57 103 q 101 33 75 53 q 178 13 128 13 q 292 40 229 13 q 418 117 354 68 q 535 227 482 165 q 620 357 588 289 q 653 492 653 425 q 631 562 653 539 q 565 585 610 585 q 445 551 501 585 q 344 462 389 517 q 275 343 300 407 q 249 219 250 279 q 276 115 247 160 q 277 106 281 110 q 267 110 274 103 q 231 209 233 149 q 253 338 229 269 q 322 465 276 406 q 432 563 368 525 q 572 601 496 601 q 649 571 618 601 q 679 483 679 540 q 649 349 679 418 q 566 218 618 281 q 448 106 514 156 q 310 28 382 57 q 169 0 239 0 m 617 782 q 581 801 604 786 q 535 836 558 815 q 494 878 511 857 q 478 919 478 900 q 483 937 478 926 q 499 947 489 947 q 523 937 517 947 q 532 911 529 926 q 563 840 542 864 q 619 796 585 815 q 628 785 631 790 q 617 782 625 779 z "},"Ø":{"ha":686,"x_min":19,"x_max":807,"o":"m 56 -94 q 85 -55 56 -94 q 165 53 115 -15 q 278 205 215 121 q 408 379 342 289 q 538 553 475 469 q 651 706 601 638 q 731 813 701 774 q 761 853 761 853 q 789 851 772 844 q 759 812 789 851 q 679 704 729 772 q 566 552 629 636 q 436 378 503 468 q 306 205 369 289 q 193 53 243 121 q 113 -55 143 -15 q 83 -94 83 -94 q 56 -94 71 -92 m 169 0 q 78 24 111 0 q 33 86 46 47 q 19 171 19 125 q 53 316 19 238 q 148 471 88 394 q 290 610 208 547 q 467 710 371 672 q 664 749 563 749 q 753 728 722 749 q 796 676 785 707 q 801 610 807 644 q 775 549 794 576 q 762 539 769 539 q 763 551 754 539 q 784 608 779 576 q 780 669 789 640 q 744 716 771 697 q 668 735 717 735 q 533 705 603 735 q 394 624 463 675 q 265 510 325 574 q 157 376 204 446 q 83 240 110 307 q 57 117 57 174 q 66 78 57 103 q 101 33 75 53 q 178 13 128 13 q 292 40 229 13 q 418 117 354 68 q 535 227 482 165 q 620 357 588 289 q 653 492 653 425 q 631 562 653 539 q 565 585 610 585 q 475 565 519 585 q 391 514 431 546 q 319 441 351 482 q 265 356 286 400 q 236 269 243 311 q 228 260 235 264 q 224 265 222 257 q 249 353 229 307 q 300 443 268 399 q 374 523 332 488 q 467 580 417 558 q 572 601 517 601 q 649 571 618 601 q 679 483 679 540 q 649 349 679 418 q 566 218 618 281 q 448 106 514 156 q 310 28 382 57 q 169 0 239 0 z "},"Õ":{"ha":683,"x_min":19,"x_max":807,"o":"m 169 0 q 78 24 111 0 q 33 86 46 47 q 19 171 19 125 q 53 316 19 238 q 148 471 88 394 q 290 610 208 547 q 467 710 371 672 q 664 749 563 749 q 753 728 722 749 q 796 676 785 707 q 801 610 807 644 q 775 549 794 576 q 762 539 769 539 q 763 551 754 539 q 784 608 779 576 q 780 669 789 640 q 744 716 771 697 q 668 735 717 735 q 533 705 603 735 q 394 624 463 675 q 265 510 325 574 q 157 376 204 446 q 83 240 110 307 q 57 117 57 174 q 66 78 57 103 q 101 33 75 53 q 178 13 128 13 q 292 40 229 13 q 418 117 354 68 q 535 227 482 165 q 620 357 588 289 q 653 492 653 425 q 631 562 653 539 q 565 585 610 585 q 445 551 501 585 q 344 462 389 517 q 275 343 300 407 q 249 219 250 279 q 276 115 247 160 q 277 106 281 110 q 267 110 274 103 q 231 209 233 149 q 253 338 229 269 q 322 465 276 406 q 432 563 368 525 q 572 601 496 601 q 649 571 618 601 q 679 483 679 540 q 649 349 679 418 q 566 218 618 281 q 448 106 514 156 q 310 28 382 57 q 169 0 239 0 m 690 800 q 649 812 668 800 q 613 835 629 824 q 579 846 596 846 q 547 834 560 846 q 529 807 535 822 q 517 797 525 793 q 513 814 510 800 q 528 841 515 824 q 562 872 542 858 q 603 886 582 886 q 639 875 621 886 q 676 852 657 864 q 711 840 694 840 q 744 857 732 840 q 761 883 757 874 q 772 890 765 893 q 776 878 779 888 q 760 848 774 867 q 727 815 746 829 q 690 800 708 800 z "},"Œ":{"ha":1118,"x_min":19,"x_max":1308,"o":"m 701 -146 q 672 -109 689 -136 q 656 -11 656 -82 q 675 83 656 33 q 729 175 694 132 q 808 245 764 218 q 903 272 853 272 q 972 203 972 272 q 935 108 972 156 q 835 30 897 61 q 697 -1 774 -1 q 570 38 621 -1 q 519 158 519 78 q 544 232 519 190 q 611 313 568 274 q 712 378 654 353 q 835 404 769 404 q 896 399 863 404 q 953 381 929 393 q 978 346 978 368 q 969 333 978 336 q 951 331 961 331 q 883 363 908 331 q 857 454 857 396 q 886 545 857 496 q 964 639 915 594 q 1072 712 1013 683 q 1194 740 1132 740 q 1278 722 1247 740 q 1308 651 1308 703 q 1282 567 1308 608 q 1214 492 1256 525 q 1126 439 1172 458 q 1039 419 1079 419 q 979 435 993 419 q 965 472 965 451 q 985 527 965 496 q 1040 588 1006 558 q 1119 638 1074 618 q 1214 657 1164 657 q 1228 650 1226 657 q 1215 643 1229 643 q 1128 625 1169 643 q 1054 580 1086 607 q 1003 524 1022 553 q 985 471 985 494 q 995 444 985 453 q 1029 435 1006 435 q 1111 456 1067 435 q 1195 511 1156 478 q 1260 583 1235 544 q 1286 656 1286 622 q 1267 706 1286 688 q 1208 725 1249 725 q 1099 692 1154 725 q 999 610 1044 660 q 925 508 953 560 q 897 417 897 456 q 909 363 897 381 q 943 346 921 346 q 951 347 947 346 q 956 353 956 347 q 945 366 956 358 q 917 379 935 374 q 878 385 900 385 q 758 355 815 385 q 657 281 701 325 q 587 192 613 236 q 561 119 561 149 q 597 44 561 74 q 710 14 632 14 q 785 37 743 14 q 866 93 828 60 q 929 160 904 126 q 954 215 954 194 q 944 247 954 235 q 910 258 933 258 q 829 233 871 258 q 752 166 788 207 q 694 78 717 125 q 672 -14 672 31 q 678 -78 672 -56 q 692 -112 683 -100 q 710 -139 700 -125 q 711 -147 713 -143 q 701 -146 710 -151 m 169 0 q 78 24 111 0 q 33 86 46 47 q 19 171 19 125 q 53 316 19 238 q 148 471 88 394 q 290 610 208 547 q 467 710 371 672 q 664 749 563 749 q 753 728 722 749 q 796 676 785 707 q 801 610 807 644 q 775 549 794 576 q 762 539 769 539 q 763 551 754 539 q 784 608 779 576 q 780 669 789 640 q 744 716 771 697 q 668 735 717 735 q 533 705 603 735 q 394 624 463 675 q 265 510 325 574 q 157 376 204 446 q 83 240 110 307 q 57 117 57 174 q 66 78 57 103 q 101 33 75 53 q 178 13 128 13 q 292 40 229 13 q 418 117 354 68 q 535 227 482 165 q 620 357 588 289 q 653 492 653 425 q 631 562 653 539 q 565 585 610 585 q 445 551 501 585 q 344 462 389 517 q 275 343 300 407 q 249 219 250 279 q 276 115 247 160 q 277 106 281 110 q 267 110 274 103 q 231 209 233 149 q 253 338 229 269 q 322 465 276 406 q 432 563 368 525 q 572 601 496 601 q 649 571 618 601 q 679 483 679 540 q 649 349 679 418 q 566 218 618 281 q 448 106 514 156 q 310 28 382 57 q 169 0 239 0 z "},"P":{"ha":706,"x_min":-110,"x_max":835,"o":"m 0 0 q -72 15 -49 0 q -103 47 -96 29 q -110 75 -110 65 q -97 106 -110 93 q -62 118 -85 118 q -42 112 -51 118 q -33 93 -33 106 q -43 73 -33 79 q -65 67 -53 67 q -82 69 -75 67 q -89 71 -89 71 q -71 34 -89 53 q -10 15 -53 15 q 107 52 54 15 q 207 147 160 89 q 300 272 254 206 q 396 400 346 339 q 532 553 463 482 q 674 677 601 625 q 821 750 746 729 q 833 746 832 753 q 824 736 835 739 q 707 672 764 719 q 595 558 650 625 q 485 415 540 490 q 374 265 431 339 q 258 132 318 192 q 135 36 199 72 q 0 0 71 0 m 492 304 q 364 326 410 304 q 318 386 318 349 q 331 417 318 406 q 359 434 343 429 q 385 439 375 439 q 393 434 393 439 q 386 428 393 429 q 353 410 368 425 q 339 383 339 396 q 374 342 339 365 q 485 318 410 318 q 571 335 522 318 q 665 388 619 353 q 739 476 710 424 q 768 597 768 528 q 699 708 768 675 q 511 740 631 740 q 324 711 413 740 q 166 636 235 682 q 58 538 97 590 q 18 438 18 485 q 41 369 18 390 q 96 349 64 349 q 174 373 135 349 q 249 435 214 397 q 311 516 283 474 q 356 594 339 558 q 374 650 372 631 q 380 664 375 664 q 386 654 385 664 q 372 556 390 611 q 315 451 353 501 q 221 367 276 400 q 97 333 165 333 q 28 360 54 333 q 1 439 1 388 q 42 544 1 489 q 153 646 82 599 q 316 723 224 693 q 511 753 408 753 q 702 725 632 753 q 802 652 772 697 q 832 557 832 607 q 806 474 832 518 q 735 391 781 429 q 627 328 689 353 q 492 304 565 304 z "},"Þ":{"ha":778,"x_min":-389,"x_max":836,"o":"m -343 -418 q -379 -406 -369 -418 q -389 -367 -389 -394 q -358 -291 -389 -331 q -274 -210 -326 -251 q -161 -131 -222 -169 q -40 -62 -100 -93 q 68 -12 19 -32 q 142 13 117 8 q 155 10 149 14 q 142 0 161 6 q 62 -33 111 -8 q -46 -91 13 -57 q -162 -165 -104 -125 q -267 -244 -219 -204 q -343 -317 -314 -283 q -372 -376 -372 -351 q -363 -401 -372 -397 q -343 -404 -354 -404 q -217 -353 -285 -404 q -73 -215 -149 -301 q 84 -22 3 -129 q 251 196 165 85 q 410 397 332 300 q 561 572 489 494 q 693 694 633 649 q 794 740 753 740 q 827 731 818 740 q 836 708 836 721 q 805 624 836 665 q 721 548 774 583 q 603 486 668 513 q 473 444 539 460 q 349 429 407 429 q 167 470 222 429 q 111 575 111 511 q 153 670 111 629 q 260 739 196 711 q 396 778 325 767 q 524 786 467 790 q 537 778 536 785 q 518 774 538 772 q 427 768 478 778 q 325 739 376 758 q 231 692 274 719 q 161 631 188 664 q 135 560 135 597 q 153 508 135 535 q 215 462 172 481 q 331 443 258 443 q 456 460 389 443 q 586 508 522 478 q 703 573 650 538 q 787 644 756 608 q 818 711 818 681 q 814 724 818 719 q 800 729 810 729 q 716 681 768 729 q 597 550 664 632 q 453 366 531 468 q 293 156 376 264 q 125 -55 210 47 q -43 -239 40 -157 q -202 -369 -126 -321 q -343 -418 -278 -418 m 429 0 q 361 18 382 0 q 340 58 340 36 q 363 113 340 81 q 422 176 385 144 q 508 229 460 207 q 608 253 557 251 q 626 247 628 254 q 608 238 625 239 q 509 213 554 235 q 430 163 464 192 q 377 107 396 135 q 358 64 358 79 q 372 31 358 46 q 428 15 385 15 q 513 40 464 15 q 610 109 563 65 q 688 210 657 153 q 719 331 719 267 q 704 378 719 358 q 657 399 689 399 q 574 381 618 399 q 490 337 531 364 q 413 281 449 310 q 352 230 376 253 q 318 197 328 207 q 302 183 301 181 q 312 199 303 186 q 329 225 321 213 q 355 251 335 231 q 407 300 375 272 q 479 354 439 328 q 565 398 519 381 q 657 415 610 415 q 738 384 708 415 q 767 303 767 353 q 737 188 767 243 q 657 91 707 133 q 547 24 607 49 q 429 0 488 0 z "},"Q":{"ha":772,"x_min":-86,"x_max":865,"o":"m 683 -121 q 533 -99 607 -121 q 388 -47 458 -78 q 251 16 317 -15 q 125 69 185 47 q 13 90 65 90 q -32 83 -12 90 q -51 61 -51 75 q -15 29 -51 43 q 82 15 22 15 q 275 57 181 15 q 453 167 369 99 q 600 314 536 235 q 700 469 664 393 q 736 600 736 544 q 713 685 736 656 q 658 726 690 715 q 594 738 625 738 q 462 706 526 738 q 342 626 397 675 q 246 523 288 576 q 181 424 204 469 q 157 356 157 379 q 174 297 157 324 q 254 271 190 271 q 340 303 290 271 q 439 387 390 336 q 524 496 488 438 q 568 606 560 554 q 575 624 571 624 q 583 617 579 625 q 585 604 586 610 q 547 474 581 536 q 464 362 514 411 q 356 285 414 313 q 244 257 299 257 q 156 292 185 257 q 126 375 126 326 q 149 468 126 418 q 214 568 172 518 q 313 659 256 618 q 440 725 369 700 q 590 750 511 750 q 668 735 628 750 q 736 684 708 721 q 764 579 764 647 q 727 409 764 493 q 625 252 690 325 q 474 123 560 179 q 287 35 388 67 q 79 3 186 3 q -40 17 6 3 q -86 60 -86 32 q -68 85 -86 75 q -24 99 -50 94 q 28 104 3 104 q 184 83 107 104 q 334 32 261 63 q 474 -29 407 1 q 603 -80 542 -60 q 715 -100 664 -100 q 788 -90 761 -99 q 828 -69 814 -81 q 849 -53 842 -58 q 860 -51 856 -46 q 860 -61 865 -56 q 837 -80 854 -65 q 783 -108 819 -94 q 683 -121 747 -121 z "},"R":{"ha":821,"x_min":-151,"x_max":832,"o":"m -33 0 q -128 24 -104 0 q -151 72 -151 47 q -135 107 -151 96 q -104 118 -119 118 q -75 93 -75 118 q -84 74 -75 82 q -107 67 -93 67 q -124 69 -117 67 q -131 72 -131 72 q -115 35 -131 54 q -47 15 -99 15 q 57 47 10 15 q 148 130 104 78 q 238 245 192 182 q 336 372 283 308 q 424 474 374 417 q 537 585 475 531 q 668 683 599 640 q 813 740 738 725 q 832 738 832 744 q 813 726 832 731 q 690 667 750 713 q 572 555 631 621 q 454 414 513 489 q 338 265 396 339 q 219 132 279 192 q 96 36 158 72 q -33 0 33 0 m 503 0 q 424 23 443 0 q 406 74 406 46 q 426 156 406 121 q 474 217 447 190 q 521 267 500 243 q 542 314 542 290 q 524 340 542 333 q 489 347 506 347 q 470 346 478 347 q 463 342 463 344 q 470 334 463 336 q 488 332 478 332 q 576 358 532 332 q 656 424 619 383 q 714 511 692 465 q 736 596 736 557 q 675 695 736 657 q 485 733 614 733 q 310 703 392 733 q 167 626 228 674 q 71 524 106 578 q 36 425 36 471 q 57 367 36 392 q 119 342 78 342 q 210 374 164 342 q 298 453 257 406 q 367 554 339 501 q 401 649 394 607 q 410 661 404 661 q 415 649 415 661 q 390 524 415 582 q 324 422 365 465 q 231 353 282 378 q 128 328 181 328 q 47 356 75 328 q 18 433 18 383 q 54 533 18 479 q 156 637 90 588 q 312 717 222 686 q 508 749 401 749 q 646 726 583 749 q 747 660 708 704 q 785 547 785 615 q 756 462 785 503 q 683 389 728 421 q 589 339 639 357 q 494 321 539 321 q 455 326 467 321 q 443 340 443 331 q 453 353 443 347 q 493 358 464 358 q 531 353 510 358 q 567 333 551 349 q 583 286 583 318 q 562 208 583 243 q 513 147 540 174 q 463 97 485 119 q 442 51 442 74 q 456 24 442 32 q 493 15 471 15 q 574 38 533 15 q 651 99 615 61 q 712 179 688 136 q 742 264 736 222 q 751 275 744 279 q 758 257 757 271 q 741 180 764 224 q 678 95 718 136 q 592 27 639 54 q 503 0 546 0 z "},"Ŕ":{"ha":888,"x_min":-151,"x_max":900,"o":"m -33 0 q -128 24 -104 0 q -151 72 -151 47 q -135 107 -151 96 q -104 118 -119 118 q -75 93 -75 118 q -84 74 -75 82 q -107 67 -93 67 q -124 69 -117 67 q -131 72 -131 72 q -115 35 -131 54 q -47 15 -99 15 q 57 47 10 15 q 148 130 104 78 q 238 245 192 182 q 336 372 283 308 q 424 474 374 417 q 537 585 475 531 q 668 683 599 640 q 813 740 738 725 q 832 738 832 744 q 813 726 832 731 q 690 667 750 713 q 572 555 631 621 q 454 414 513 489 q 338 265 396 339 q 219 132 279 192 q 96 36 158 72 q -33 0 33 0 m 503 0 q 424 23 443 0 q 406 74 406 46 q 426 156 406 121 q 474 217 447 190 q 521 267 500 243 q 542 314 542 290 q 524 340 542 333 q 489 347 506 347 q 470 346 478 347 q 463 342 463 344 q 470 334 463 336 q 488 332 478 332 q 576 358 532 332 q 656 424 619 383 q 714 511 692 465 q 736 596 736 557 q 675 695 736 657 q 485 733 614 733 q 310 703 392 733 q 167 626 228 674 q 71 524 106 578 q 36 425 36 471 q 57 367 36 392 q 119 342 78 342 q 210 374 164 342 q 298 453 257 406 q 367 554 339 501 q 401 649 394 607 q 410 661 404 661 q 415 649 415 661 q 390 524 415 582 q 324 422 365 465 q 231 353 282 378 q 128 328 181 328 q 47 356 75 328 q 18 433 18 383 q 54 533 18 479 q 156 637 90 588 q 312 717 222 686 q 508 749 401 749 q 646 726 583 749 q 747 660 708 704 q 785 547 785 615 q 756 462 785 503 q 683 389 728 421 q 589 339 639 357 q 494 321 539 321 q 455 326 467 321 q 443 340 443 331 q 453 353 443 347 q 493 358 464 358 q 531 353 510 358 q 567 333 551 349 q 583 286 583 318 q 562 208 583 243 q 513 147 540 174 q 463 97 485 119 q 442 51 442 74 q 456 24 442 32 q 493 15 471 15 q 574 38 533 15 q 651 99 615 61 q 712 179 688 136 q 742 264 736 222 q 751 275 744 279 q 758 257 757 271 q 741 180 764 224 q 678 95 718 136 q 592 27 639 54 q 503 0 546 0 m 760 792 q 823 847 803 815 q 847 904 843 878 q 857 932 850 922 q 878 942 864 942 q 894 935 888 942 q 900 910 900 928 q 879 869 900 893 q 827 822 858 846 q 765 781 796 799 q 753 781 756 775 q 760 792 750 786 z "},"Ř":{"ha":821,"x_min":-151,"x_max":943,"o":"m -33 0 q -128 24 -104 0 q -151 72 -151 47 q -135 107 -151 96 q -104 118 -119 118 q -75 93 -75 118 q -84 74 -75 82 q -107 67 -93 67 q -124 69 -117 67 q -131 72 -131 72 q -115 35 -131 54 q -47 15 -99 15 q 57 47 10 15 q 148 130 104 78 q 238 245 192 182 q 336 372 283 308 q 424 474 374 417 q 537 585 475 531 q 668 683 599 640 q 813 740 738 725 q 832 738 832 744 q 813 726 832 731 q 690 667 750 713 q 572 555 631 621 q 454 414 513 489 q 338 265 396 339 q 219 132 279 192 q 96 36 158 72 q -33 0 33 0 m 503 0 q 424 23 443 0 q 406 74 406 46 q 426 156 406 121 q 474 217 447 190 q 521 267 500 243 q 542 314 542 290 q 524 340 542 333 q 489 347 506 347 q 470 346 478 347 q 463 342 463 344 q 470 334 463 336 q 488 332 478 332 q 576 358 532 332 q 656 424 619 383 q 714 511 692 465 q 736 596 736 557 q 675 695 736 657 q 485 733 614 733 q 310 703 392 733 q 167 626 228 674 q 71 524 106 578 q 36 425 36 471 q 57 367 36 392 q 119 342 78 342 q 210 374 164 342 q 298 453 257 406 q 367 554 339 501 q 401 649 394 607 q 410 661 404 661 q 415 649 415 661 q 390 524 415 582 q 324 422 365 465 q 231 353 282 378 q 128 328 181 328 q 47 356 75 328 q 18 433 18 383 q 54 533 18 479 q 156 637 90 588 q 312 717 222 686 q 508 749 401 749 q 646 726 583 749 q 747 660 708 704 q 785 547 785 615 q 756 462 785 503 q 683 389 728 421 q 589 339 639 357 q 494 321 539 321 q 455 326 467 321 q 443 340 443 331 q 453 353 443 347 q 493 358 464 358 q 531 353 510 358 q 567 333 551 349 q 583 286 583 318 q 562 208 583 243 q 513 147 540 174 q 463 97 485 119 q 442 51 442 74 q 456 24 442 32 q 493 15 471 15 q 574 38 533 15 q 651 99 615 61 q 712 179 688 136 q 742 264 736 222 q 751 275 744 279 q 758 257 757 271 q 741 180 764 224 q 678 95 718 136 q 592 27 639 54 q 503 0 546 0 m 724 931 q 724 942 718 938 q 740 940 731 947 q 773 903 760 931 q 789 846 786 875 q 815 866 794 851 q 859 897 835 881 q 902 926 883 914 q 925 940 921 939 q 940 939 936 944 q 933 928 943 933 q 896 901 922 922 q 838 855 869 881 q 782 806 807 829 q 749 774 757 783 q 733 767 738 760 q 733 782 729 774 q 746 833 743 803 q 744 891 749 864 q 724 931 739 918 z "},"Ŗ":{"ha":821,"x_min":-151,"x_max":832,"o":"m -33 0 q -128 24 -104 0 q -151 72 -151 47 q -135 107 -151 96 q -104 118 -119 118 q -75 93 -75 118 q -84 74 -75 82 q -107 67 -93 67 q -124 69 -117 67 q -131 72 -131 72 q -115 35 -131 54 q -47 15 -99 15 q 57 47 10 15 q 148 130 104 78 q 238 245 192 182 q 336 372 283 308 q 424 474 374 417 q 537 585 475 531 q 668 683 599 640 q 813 740 738 725 q 832 738 832 744 q 813 726 832 731 q 690 667 750 713 q 572 555 631 621 q 454 414 513 489 q 338 265 396 339 q 219 132 279 192 q 96 36 158 72 q -33 0 33 0 m 503 0 q 424 23 443 0 q 406 74 406 46 q 426 156 406 121 q 474 217 447 190 q 521 267 500 243 q 542 314 542 290 q 524 340 542 333 q 489 347 506 347 q 470 346 478 347 q 463 342 463 344 q 470 334 463 336 q 488 332 478 332 q 576 358 532 332 q 656 424 619 383 q 714 511 692 465 q 736 596 736 557 q 675 695 736 657 q 485 733 614 733 q 310 703 392 733 q 167 626 228 674 q 71 524 106 578 q 36 425 36 471 q 57 367 36 392 q 119 342 78 342 q 210 374 164 342 q 298 453 257 406 q 367 554 339 501 q 401 649 394 607 q 410 661 404 661 q 415 649 415 661 q 390 524 415 582 q 324 422 365 465 q 231 353 282 378 q 128 328 181 328 q 47 356 75 328 q 18 433 18 383 q 54 533 18 479 q 156 637 90 588 q 312 717 222 686 q 508 749 401 749 q 646 726 583 749 q 747 660 708 704 q 785 547 785 615 q 756 462 785 503 q 683 389 728 421 q 589 339 639 357 q 494 321 539 321 q 455 326 467 321 q 443 340 443 331 q 453 353 443 347 q 493 358 464 358 q 531 353 510 358 q 567 333 551 349 q 583 286 583 318 q 562 208 583 243 q 513 147 540 174 q 463 97 485 119 q 442 51 442 74 q 456 24 442 32 q 493 15 471 15 q 574 38 533 15 q 651 99 615 61 q 712 179 688 136 q 742 264 736 222 q 751 275 744 279 q 758 257 757 271 q 741 180 764 224 q 678 95 718 136 q 592 27 639 54 q 503 0 546 0 m 100 -189 q 150 -160 129 -178 q 183 -116 171 -142 q 199 -56 196 -90 q 208 -31 200 -46 q 239 -17 217 -17 q 255 -24 249 -17 q 261 -49 261 -31 q 245 -91 261 -67 q 205 -139 229 -115 q 153 -180 181 -162 q 106 -201 126 -197 q 93 -198 96 -203 q 100 -189 90 -193 z "},"S":{"ha":651,"x_min":-57,"x_max":914,"o":"m 579 735 q 587 727 589 732 q 567 728 585 722 q 435 735 507 744 q 297 697 363 726 q 189 622 231 667 q 147 521 147 576 q 172 451 147 481 q 238 403 197 422 q 330 376 279 385 q 432 367 381 367 q 572 390 504 367 q 697 450 640 413 q 797 531 754 488 q 864 617 840 575 q 888 692 888 660 q 840 736 888 736 q 747 697 793 736 q 651 591 700 657 q 551 447 603 525 q 445 290 500 368 q 331 145 390 211 q 205 40 271 79 q 67 0 139 0 q -28 24 0 0 q -57 78 -57 47 q -42 106 -57 93 q -10 118 -28 118 q 19 92 19 118 q 7 72 19 78 q -12 67 -6 67 q -28 69 -21 67 q -36 72 -36 72 q -16 35 -36 57 q 60 13 4 13 q 166 44 118 13 q 256 131 214 76 q 338 251 297 185 q 422 389 378 318 q 517 522 467 457 q 620 638 567 586 q 729 719 674 689 q 839 750 785 750 q 914 689 914 750 q 872 579 914 638 q 759 469 829 521 q 603 385 689 418 q 429 353 517 353 q 316 363 372 353 q 214 393 260 372 q 140 447 168 414 q 113 526 113 481 q 147 621 113 579 q 237 691 182 663 q 355 735 292 719 q 478 750 418 750 q 579 735 538 750 z "},"T":{"ha":671,"x_min":-119,"x_max":1121,"o":"m 21 0 q -69 17 -39 0 q -109 55 -99 33 q -119 93 -119 76 q -107 122 -119 108 q -74 135 -94 135 q -43 110 -43 135 q -53 90 -43 97 q -71 83 -62 83 q -92 85 -85 83 q -99 88 -99 88 q -93 64 -99 82 q -62 31 -87 46 q 21 15 -37 15 q 151 49 92 15 q 258 131 211 82 q 338 228 304 179 q 390 307 371 276 q 451 388 413 340 q 536 483 489 435 q 633 573 583 532 q 726 636 682 614 q 739 633 738 642 q 733 621 740 624 q 648 547 692 600 q 556 423 604 493 q 454 279 508 353 q 335 142 400 206 q 192 39 269 78 q 21 0 115 0 m 313 417 q 241 440 261 417 q 221 499 221 464 q 252 578 221 536 q 337 658 283 621 q 460 719 390 696 q 604 742 529 742 q 713 735 661 742 q 815 723 765 729 q 910 717 864 717 q 1008 734 969 717 q 1067 772 1046 751 q 1099 806 1089 793 q 1115 815 1110 821 q 1115 800 1121 810 q 1097 776 1114 796 q 1044 733 1079 757 q 955 690 1010 708 q 824 672 900 672 q 706 681 751 672 q 624 699 661 690 q 538 707 586 707 q 431 687 485 707 q 333 635 378 667 q 262 566 289 603 q 235 496 235 529 q 251 449 235 465 q 307 433 267 433 q 365 452 332 433 q 431 503 399 471 q 491 576 464 536 q 532 658 518 617 q 540 665 535 669 q 544 650 544 661 q 523 570 543 611 q 470 494 503 529 q 397 438 438 460 q 313 417 356 417 z "},"U":{"ha":671,"x_min":-4,"x_max":836,"o":"m 58 0 q 22 13 36 0 q 7 50 7 25 q 40 157 7 101 q 124 270 72 213 q 233 383 175 328 q 343 492 292 439 q 427 590 394 544 q 460 671 460 635 q 453 695 460 681 q 424 722 447 710 q 351 733 401 733 q 226 708 288 733 q 117 646 165 683 q 40 567 68 608 q 11 494 11 526 q 24 451 11 468 q 67 433 36 433 q 140 456 101 433 q 215 512 178 478 q 283 583 251 546 q 334 651 314 619 q 358 696 354 682 q 368 712 363 711 q 372 697 374 713 q 345 614 369 661 q 280 522 321 567 q 188 447 239 476 q 83 417 138 417 q 16 437 36 417 q -4 492 -4 457 q 26 572 -4 528 q 109 657 57 617 q 227 723 161 697 q 364 749 293 749 q 435 735 411 749 q 469 703 460 722 q 478 668 478 685 q 445 556 478 617 q 361 433 413 496 q 251 309 310 369 q 142 196 193 249 q 58 104 90 143 q 25 44 25 65 q 37 19 25 25 q 63 14 49 14 q 159 42 107 14 q 263 115 211 71 q 358 206 314 158 q 433 289 403 253 q 501 367 460 319 q 585 467 542 415 q 669 565 629 519 q 733 640 708 611 q 757 668 757 668 q 776 668 757 668 q 816 668 796 668 q 836 668 836 668 q 781 603 819 649 q 692 499 743 558 q 585 378 640 440 q 482 264 531 317 q 413 181 443 221 q 367 108 383 140 q 351 58 351 76 q 364 23 351 31 q 394 15 376 15 q 462 33 428 15 q 520 72 496 51 q 547 96 544 92 q 552 93 551 103 q 549 79 553 83 q 519 54 543 74 q 463 17 496 35 q 394 0 429 0 q 347 15 364 0 q 329 63 329 31 q 340 118 329 88 q 365 178 350 149 q 393 228 379 207 q 413 254 407 249 q 433 267 425 267 q 439 254 442 267 q 413 222 438 249 q 348 158 389 194 q 257 85 307 121 q 156 24 207 49 q 58 0 104 0 z "},"Ú":{"ha":671,"x_min":-4,"x_max":842,"o":"m 58 0 q 22 13 36 0 q 7 50 7 25 q 40 157 7 101 q 124 270 72 213 q 233 383 175 328 q 343 492 292 439 q 427 590 394 544 q 460 671 460 635 q 453 695 460 681 q 424 722 447 710 q 351 733 401 733 q 226 708 288 733 q 117 646 165 683 q 40 567 68 608 q 11 494 11 526 q 24 451 11 468 q 67 433 36 433 q 140 456 101 433 q 215 512 178 478 q 283 583 251 546 q 334 651 314 619 q 358 696 354 682 q 368 712 363 711 q 372 697 374 713 q 345 614 369 661 q 280 522 321 567 q 188 447 239 476 q 83 417 138 417 q 16 437 36 417 q -4 492 -4 457 q 26 572 -4 528 q 109 657 57 617 q 227 723 161 697 q 364 749 293 749 q 435 735 411 749 q 469 703 460 722 q 478 668 478 685 q 445 556 478 617 q 361 433 413 496 q 251 309 310 369 q 142 196 193 249 q 58 104 90 143 q 25 44 25 65 q 37 19 25 25 q 63 14 49 14 q 159 42 107 14 q 263 115 211 71 q 358 206 314 158 q 433 289 403 253 q 501 367 460 319 q 585 467 542 415 q 669 565 629 519 q 733 640 708 611 q 757 668 757 668 q 776 668 757 668 q 816 668 796 668 q 836 668 836 668 q 781 603 819 649 q 692 499 743 558 q 585 378 640 440 q 482 264 531 317 q 413 181 443 221 q 367 108 383 140 q 351 58 351 76 q 364 23 351 31 q 394 15 376 15 q 462 33 428 15 q 520 72 496 51 q 547 96 544 92 q 552 93 551 103 q 549 79 553 83 q 519 54 543 74 q 463 17 496 35 q 394 0 429 0 q 347 15 364 0 q 329 63 329 31 q 340 118 329 88 q 365 178 350 149 q 393 228 379 207 q 413 254 407 249 q 433 267 425 267 q 439 254 442 267 q 413 222 438 249 q 348 158 389 194 q 257 85 307 121 q 156 24 207 49 q 58 0 104 0 m 707 782 q 694 782 697 776 q 701 793 692 788 q 765 848 744 817 q 789 906 785 879 q 799 933 792 924 q 819 943 806 943 q 835 936 829 943 q 842 911 842 929 q 821 871 842 894 q 769 824 800 847 q 707 782 738 800 z "},"Û":{"ha":671,"x_min":-4,"x_max":836,"o":"m 58 0 q 22 13 36 0 q 7 50 7 25 q 40 157 7 101 q 124 270 72 213 q 233 383 175 328 q 343 492 292 439 q 427 590 394 544 q 460 671 460 635 q 453 695 460 681 q 424 722 447 710 q 351 733 401 733 q 226 708 288 733 q 117 646 165 683 q 40 567 68 608 q 11 494 11 526 q 24 451 11 468 q 67 433 36 433 q 140 456 101 433 q 215 512 178 478 q 283 583 251 546 q 334 651 314 619 q 358 696 354 682 q 368 712 363 711 q 372 697 374 713 q 345 614 369 661 q 280 522 321 567 q 188 447 239 476 q 83 417 138 417 q 16 437 36 417 q -4 492 -4 457 q 26 572 -4 528 q 109 657 57 617 q 227 723 161 697 q 364 749 293 749 q 435 735 411 749 q 469 703 460 722 q 478 668 478 685 q 445 556 478 617 q 361 433 413 496 q 251 309 310 369 q 142 196 193 249 q 58 104 90 143 q 25 44 25 65 q 37 19 25 25 q 63 14 49 14 q 159 42 107 14 q 263 115 211 71 q 358 206 314 158 q 433 289 403 253 q 501 367 460 319 q 585 467 542 415 q 669 565 629 519 q 733 640 708 611 q 757 668 757 668 q 776 668 757 668 q 816 668 796 668 q 836 668 836 668 q 781 603 819 649 q 692 499 743 558 q 585 378 640 440 q 482 264 531 317 q 413 181 443 221 q 367 108 383 140 q 351 58 351 76 q 364 23 351 31 q 394 15 376 15 q 462 33 428 15 q 520 72 496 51 q 547 96 544 92 q 552 93 551 103 q 549 79 553 83 q 519 54 543 74 q 463 17 496 35 q 394 0 429 0 q 347 15 364 0 q 329 63 329 31 q 340 118 329 88 q 365 178 350 149 q 393 228 379 207 q 413 254 407 249 q 433 267 425 267 q 439 254 442 267 q 413 222 438 249 q 348 158 389 194 q 257 85 307 121 q 156 24 207 49 q 58 0 104 0 m 582 774 q 567 769 568 764 q 572 781 567 775 q 604 808 581 789 q 657 849 628 826 q 713 896 686 872 q 758 939 740 919 q 772 947 768 950 q 774 936 776 943 q 764 906 769 925 q 758 863 758 886 q 765 813 758 838 q 781 781 771 789 q 781 771 788 775 q 764 771 775 767 q 741 795 751 776 q 724 835 731 814 q 717 867 717 857 q 695 852 713 864 q 656 824 678 840 q 613 794 633 808 q 582 774 592 781 z "},"Ü":{"ha":850,"x_min":-4,"x_max":836,"o":"m 58 0 q 22 13 36 0 q 7 50 7 25 q 40 157 7 101 q 124 270 72 213 q 233 383 175 328 q 343 492 292 439 q 427 590 394 544 q 460 671 460 635 q 453 695 460 681 q 424 722 447 710 q 351 733 401 733 q 226 708 288 733 q 117 646 165 683 q 40 567 68 608 q 11 494 11 526 q 24 451 11 468 q 67 433 36 433 q 140 456 101 433 q 215 512 178 478 q 283 583 251 546 q 334 651 314 619 q 358 696 354 682 q 368 712 363 711 q 372 697 374 713 q 345 614 369 661 q 280 522 321 567 q 188 447 239 476 q 83 417 138 417 q 16 437 36 417 q -4 492 -4 457 q 26 572 -4 528 q 109 657 57 617 q 227 723 161 697 q 364 749 293 749 q 435 735 411 749 q 469 703 460 722 q 478 668 478 685 q 445 556 478 617 q 361 433 413 496 q 251 309 310 369 q 142 196 193 249 q 58 104 90 143 q 25 44 25 65 q 37 19 25 25 q 63 14 49 14 q 159 42 107 14 q 263 115 211 71 q 358 206 314 158 q 433 289 403 253 q 501 367 460 319 q 585 467 542 415 q 669 565 629 519 q 733 640 708 611 q 757 668 757 668 q 776 668 757 668 q 816 668 796 668 q 836 668 836 668 q 781 603 819 649 q 692 499 743 558 q 585 378 640 440 q 482 264 531 317 q 413 181 443 221 q 367 108 383 140 q 351 58 351 76 q 364 23 351 31 q 394 15 376 15 q 462 33 428 15 q 520 72 496 51 q 547 96 544 92 q 552 93 551 103 q 549 79 553 83 q 519 54 543 74 q 463 17 496 35 q 394 0 429 0 q 347 15 364 0 q 329 63 329 31 q 340 118 329 88 q 365 178 350 149 q 393 228 379 207 q 413 254 407 249 q 433 267 425 267 q 439 254 442 267 q 413 222 438 249 q 348 158 389 194 q 257 85 307 121 q 156 24 207 49 q 58 0 104 0 m 653 797 q 606 783 629 774 q 583 814 583 792 q 589 834 583 825 q 600 849 594 843 q 645 864 621 869 q 669 835 669 858 q 665 813 669 822 q 653 797 660 804 m 814 797 q 767 783 790 774 q 743 814 743 792 q 758 849 743 836 q 808 863 785 871 q 831 835 831 856 q 826 813 831 822 q 814 797 821 804 z "},"Ù":{"ha":850,"x_min":-4,"x_max":836,"o":"m 58 0 q 22 13 36 0 q 7 50 7 25 q 40 157 7 101 q 124 270 72 213 q 233 383 175 328 q 343 492 292 439 q 427 590 394 544 q 460 671 460 635 q 453 695 460 681 q 424 722 447 710 q 351 733 401 733 q 226 708 288 733 q 117 646 165 683 q 40 567 68 608 q 11 494 11 526 q 24 451 11 468 q 67 433 36 433 q 140 456 101 433 q 215 512 178 478 q 283 583 251 546 q 334 651 314 619 q 358 696 354 682 q 368 712 363 711 q 372 697 374 713 q 345 614 369 661 q 280 522 321 567 q 188 447 239 476 q 83 417 138 417 q 16 437 36 417 q -4 492 -4 457 q 26 572 -4 528 q 109 657 57 617 q 227 723 161 697 q 364 749 293 749 q 435 735 411 749 q 469 703 460 722 q 478 668 478 685 q 445 556 478 617 q 361 433 413 496 q 251 309 310 369 q 142 196 193 249 q 58 104 90 143 q 25 44 25 65 q 37 19 25 25 q 63 14 49 14 q 159 42 107 14 q 263 115 211 71 q 358 206 314 158 q 433 289 403 253 q 501 367 460 319 q 585 467 542 415 q 669 565 629 519 q 733 640 708 611 q 757 668 757 668 q 776 668 757 668 q 816 668 796 668 q 836 668 836 668 q 781 603 819 649 q 692 499 743 558 q 585 378 640 440 q 482 264 531 317 q 413 181 443 221 q 367 108 383 140 q 351 58 351 76 q 364 23 351 31 q 394 15 376 15 q 462 33 428 15 q 520 72 496 51 q 547 96 544 92 q 552 93 551 103 q 549 79 553 83 q 519 54 543 74 q 463 17 496 35 q 394 0 429 0 q 347 15 364 0 q 329 63 329 31 q 340 118 329 88 q 365 178 350 149 q 393 228 379 207 q 413 254 407 249 q 433 267 425 267 q 439 254 442 267 q 413 222 438 249 q 348 158 389 194 q 257 85 307 121 q 156 24 207 49 q 58 0 104 0 m 703 778 q 667 797 690 782 q 621 832 644 811 q 581 874 597 853 q 564 915 564 896 q 569 933 564 922 q 585 943 575 943 q 609 933 603 943 q 618 907 615 922 q 649 835 628 860 q 706 792 671 811 q 714 781 717 786 q 703 778 711 775 z "},"V":{"ha":597,"x_min":-85,"x_max":889,"o":"m -61 -14 q -82 -16 -79 -22 q -74 -4 -85 -10 q -49 14 -67 0 q -22 38 -32 28 q 47 122 13 69 q 122 241 82 175 q 207 375 161 307 q 299 501 250 440 q 392 610 347 563 q 468 682 438 658 q 475 681 475 688 q 470 666 475 675 q 460 653 465 657 q 427 628 456 650 q 358 577 399 606 q 273 527 317 549 q 193 506 229 506 q 148 521 164 506 q 132 558 132 536 q 148 603 132 581 q 184 648 164 626 q 220 689 204 669 q 236 722 236 708 q 218 751 236 742 q 164 760 200 760 q 106 749 135 760 q 57 724 78 738 q 29 701 36 710 q 14 697 21 693 q 17 713 7 701 q 76 751 33 731 q 164 771 119 771 q 240 760 206 771 q 275 710 275 749 q 259 653 275 679 q 222 606 243 628 q 185 569 201 585 q 169 540 169 553 q 176 524 169 529 q 199 519 183 519 q 267 539 229 519 q 342 587 304 558 q 416 645 381 615 q 480 698 451 675 q 525 726 508 721 q 535 726 532 729 q 532 715 539 722 q 501 696 521 707 q 475 671 482 685 q 426 583 460 642 q 344 447 392 524 q 237 290 296 371 q 113 135 178 208 q -22 8 47 61 q -35 10 -33 0 q -26 25 -36 19 q 168 153 67 82 q 370 301 269 224 q 561 453 471 378 q 721 595 651 529 q 831 712 790 661 q 871 788 871 763 q 863 803 871 796 q 847 810 854 810 q 801 794 828 810 q 748 748 774 779 q 705 669 722 717 q 688 558 688 622 q 710 487 688 513 q 759 454 732 461 q 800 456 786 447 q 811 456 810 463 q 804 443 813 450 q 771 438 793 435 q 724 453 749 440 q 683 492 700 467 q 665 554 665 517 q 685 667 665 618 q 736 751 706 717 q 797 804 767 786 q 847 822 826 822 q 878 810 868 822 q 889 782 889 799 q 847 684 889 742 q 733 558 804 626 q 572 416 661 489 q 389 274 483 343 q 206 147 294 206 q 48 45 118 88 q -61 -14 -22 3 z "},"W":{"ha":985,"x_min":-283,"x_max":1324,"o":"m -90 -15 q -112 -13 -112 -22 q -101 -3 -111 -4 q -56 15 -78 1 q -17 47 -33 29 q 44 128 6 71 q 138 262 83 185 q 261 419 193 339 q 413 583 326 496 q 597 764 500 671 q 618 772 608 774 q 631 766 628 771 q 621 758 633 761 q 602 748 611 757 q 589 735 593 739 q 503 634 551 699 q 395 489 454 569 q 268 322 336 408 q 124 153 200 235 q -37 7 47 72 q -55 6 -47 0 q -42 18 -62 11 q 72 84 6 33 q 218 207 139 135 q 382 361 297 279 q 552 523 467 443 q 715 669 638 603 q 858 772 793 735 q 877 774 875 782 q 871 761 879 765 q 836 740 864 758 q 793 706 808 721 q 755 652 782 694 q 690 547 728 610 q 608 412 653 485 q 515 267 563 339 q 419 133 467 194 q 331 33 372 72 q 322 32 324 28 q 324 44 321 36 q 332 57 326 53 q 476 192 401 117 q 627 345 550 267 q 781 497 704 424 q 933 629 858 571 q 1079 722 1008 688 q 1214 757 1150 757 q 1288 740 1253 757 q 1324 683 1324 724 q 1301 625 1324 649 q 1248 590 1279 601 q 1186 578 1217 578 q 1121 595 1143 578 q 1093 626 1099 613 q 1103 644 1088 639 q 1118 636 1118 650 q 1142 602 1118 614 q 1192 590 1165 590 q 1239 601 1215 590 q 1278 634 1263 613 q 1294 683 1294 656 q 1270 724 1294 708 q 1214 740 1246 740 q 1081 706 1151 740 q 936 613 1010 671 q 788 484 863 556 q 643 338 714 413 q 508 197 572 264 q 388 79 443 129 q 323 24 351 46 q 250 -15 294 1 q 227 -13 228 -24 q 243 1 226 -3 q 296 33 271 8 q 339 94 321 57 q 413 225 367 151 q 514 376 460 299 q 623 524 568 454 q 722 647 678 594 q 793 722 767 700 q 794 713 799 728 q 764 682 790 699 q 607 556 690 633 q 435 390 524 479 q 257 218 347 301 q 79 72 167 135 q -90 -15 -8 8 m -282 489 q -253 558 -279 519 q -183 633 -226 597 q -86 692 -140 668 q 26 715 -32 715 q 142 699 85 715 q 249 665 199 682 q 339 647 300 647 q 418 663 381 647 q 483 696 456 678 q 517 721 510 714 q 530 727 528 731 q 525 715 532 724 q 494 685 521 710 q 418 639 467 661 q 303 617 369 617 q 216 625 253 617 q 147 644 179 633 q 80 663 114 654 q 1 671 46 671 q -98 651 -50 671 q -183 603 -146 632 q -242 544 -221 574 q -262 493 -264 514 q -272 474 -261 479 q -282 489 -283 468 z "},"X":{"ha":883,"x_min":-131,"x_max":1117,"o":"m -7 0 q -103 29 -75 0 q -131 89 -131 58 q -116 122 -131 108 q -85 135 -101 135 q -59 127 -65 135 q -53 111 -53 119 q -61 92 -53 101 q -85 83 -69 83 q -103 87 -96 83 q -110 90 -110 90 q -108 77 -110 89 q -98 51 -107 65 q -67 26 -89 38 q -6 15 -46 15 q 107 47 46 15 q 229 126 168 78 q 343 227 290 174 q 431 327 396 281 q 476 399 467 374 q 495 401 476 399 q 532 404 514 403 q 550 406 550 406 q 574 437 551 410 q 637 505 597 464 q 726 590 676 546 q 833 673 776 633 q 947 737 890 713 q 1057 761 1004 761 q 1103 749 1090 761 q 1117 722 1117 736 q 1111 696 1117 707 q 1090 685 1106 685 q 1069 694 1075 685 q 1063 717 1063 703 q 1071 735 1063 728 q 1079 743 1079 743 q 1051 746 1074 746 q 937 714 1001 746 q 803 631 872 682 q 672 520 735 579 q 565 404 610 461 q 504 307 521 347 q 488 308 504 307 q 453 310 471 310 q 436 311 436 311 q 402 263 432 299 q 325 183 372 228 q 221 97 278 139 q 105 28 164 56 q -7 0 46 0 m 503 0 q 406 28 438 0 q 375 107 375 56 q 394 217 375 160 q 443 332 414 274 q 501 450 472 390 q 549 567 529 510 q 568 679 568 625 q 546 731 568 707 q 471 756 524 756 q 390 735 433 756 q 303 682 346 715 q 224 609 260 649 q 166 531 188 569 q 144 460 144 492 q 155 426 144 438 q 193 415 165 415 q 280 442 236 415 q 362 511 324 468 q 430 604 400 554 q 476 700 460 654 q 489 714 482 715 q 496 701 496 713 q 469 608 496 660 q 397 510 442 557 q 297 432 351 463 q 189 401 243 401 q 128 457 128 401 q 150 535 128 493 q 209 618 172 576 q 291 694 246 660 q 383 749 336 728 q 471 769 429 769 q 558 748 528 769 q 599 694 588 726 q 610 628 610 663 q 592 510 610 569 q 547 394 574 451 q 494 282 521 336 q 449 178 467 228 q 431 85 431 128 q 453 32 431 50 q 507 14 475 14 q 599 38 550 14 q 692 102 649 61 q 764 197 736 143 q 792 313 792 251 q 774 360 792 336 q 725 383 757 383 q 678 366 700 383 q 644 325 657 349 q 631 282 631 301 q 641 242 631 251 q 654 226 651 233 q 653 215 657 222 q 638 213 650 207 q 608 279 608 225 q 624 328 608 301 q 667 376 640 356 q 725 396 694 396 q 788 372 765 396 q 811 313 811 349 q 783 197 811 253 q 710 96 756 140 q 610 26 664 51 q 503 0 556 0 z "},"Y":{"ha":669,"x_min":-126,"x_max":853,"o":"m 8 -144 q -53 -136 -22 -144 q -106 -107 -85 -128 q -126 -49 -126 -86 q -110 -12 -126 -24 q -83 0 -94 0 q -60 -8 -68 0 q -53 -24 -53 -15 q -60 -44 -53 -35 q -82 -53 -68 -53 q -99 -51 -93 -53 q -106 -50 -106 -50 q -101 -75 -107 -56 q -71 -112 -96 -94 q 10 -129 -46 -129 q 145 -89 79 -129 q 272 15 211 -49 q 386 154 332 79 q 487 301 440 229 q 572 426 533 372 q 638 499 610 479 q 659 508 653 510 q 646 489 665 506 q 608 449 639 482 q 533 372 578 417 q 438 285 489 328 q 339 213 388 242 q 253 183 290 183 q 207 201 219 183 q 194 244 194 218 q 224 342 194 290 q 299 444 254 393 q 387 540 343 494 q 460 619 431 585 q 490 672 490 654 q 465 713 490 696 q 381 731 439 731 q 249 701 314 731 q 130 628 183 672 q 44 537 76 583 q 13 456 13 490 q 24 424 13 436 q 63 411 35 411 q 133 434 94 411 q 208 492 171 457 q 275 564 244 526 q 325 631 306 601 q 347 671 344 660 q 353 682 350 683 q 358 669 357 681 q 346 607 364 643 q 294 533 328 571 q 220 462 261 494 q 138 409 179 429 q 64 389 97 389 q 9 407 22 389 q -4 450 -4 425 q 28 539 -4 489 q 115 636 60 589 q 240 714 169 683 q 385 744 310 744 q 488 722 457 744 q 518 667 518 699 q 488 569 518 617 q 413 475 457 521 q 323 386 368 429 q 247 305 278 343 q 217 233 217 267 q 225 208 217 219 q 250 196 233 196 q 319 219 278 196 q 408 281 361 243 q 499 360 454 318 q 576 442 543 403 q 673 548 626 500 q 760 626 719 596 q 836 665 801 657 q 851 663 850 668 q 843 653 853 657 q 707 549 763 617 q 603 396 651 481 q 500 224 556 311 q 404 91 457 157 q 290 -28 351 25 q 157 -112 228 -81 q 8 -144 86 -144 z "},"Ý":{"ha":669,"x_min":-126,"x_max":871,"o":"m 8 -144 q -53 -136 -22 -144 q -106 -107 -85 -128 q -126 -49 -126 -86 q -110 -12 -126 -24 q -83 0 -94 0 q -60 -8 -68 0 q -53 -24 -53 -15 q -60 -44 -53 -35 q -82 -53 -68 -53 q -99 -51 -93 -53 q -106 -50 -106 -50 q -101 -75 -107 -56 q -71 -112 -96 -94 q 10 -129 -46 -129 q 145 -89 79 -129 q 272 15 211 -49 q 386 154 332 79 q 487 301 440 229 q 572 426 533 372 q 638 499 610 479 q 659 508 653 510 q 646 489 665 506 q 608 449 639 482 q 533 372 578 417 q 438 285 489 328 q 339 213 388 242 q 253 183 290 183 q 207 201 219 183 q 194 244 194 218 q 224 342 194 290 q 299 444 254 393 q 387 540 343 494 q 460 619 431 585 q 490 672 490 654 q 465 713 490 696 q 381 731 439 731 q 249 701 314 731 q 130 628 183 672 q 44 537 76 583 q 13 456 13 490 q 24 424 13 436 q 63 411 35 411 q 133 434 94 411 q 208 492 171 457 q 275 564 244 526 q 325 631 306 601 q 347 671 344 660 q 353 682 350 683 q 358 669 357 681 q 346 607 364 643 q 294 533 328 571 q 220 462 261 494 q 138 409 179 429 q 64 389 97 389 q 9 407 22 389 q -4 450 -4 425 q 28 539 -4 489 q 115 636 60 589 q 240 714 169 683 q 385 744 310 744 q 488 722 457 744 q 518 667 518 699 q 488 569 518 617 q 413 475 457 521 q 323 386 368 429 q 247 305 278 343 q 217 233 217 267 q 225 208 217 219 q 250 196 233 196 q 319 219 278 196 q 408 281 361 243 q 499 360 454 318 q 576 442 543 403 q 673 548 626 500 q 760 626 719 596 q 836 665 801 657 q 851 663 850 668 q 843 653 853 657 q 707 549 763 617 q 603 396 651 481 q 500 224 556 311 q 404 91 457 157 q 290 -28 351 25 q 157 -112 228 -81 q 8 -144 86 -144 m 736 781 q 724 781 726 775 q 731 792 721 786 q 794 847 774 815 q 818 904 814 878 q 828 932 821 922 q 849 942 835 942 q 865 935 858 942 q 871 910 871 928 q 850 869 871 893 q 798 822 829 846 q 736 781 767 799 z "},"Z":{"ha":874,"x_min":-19,"x_max":918,"o":"m 547 -25 q 423 -8 481 -25 q 314 31 365 8 q 211 71 263 54 q 106 88 160 88 q 22 74 49 88 q -4 51 -4 60 q 1 35 -4 44 q 28 19 7 25 q 99 13 50 13 q 217 49 161 13 q 326 147 274 86 q 434 281 379 207 q 549 428 489 354 q 713 603 628 524 q 885 729 797 682 l 890 726 q 854 706 886 724 q 778 674 822 689 q 686 658 733 658 q 601 670 644 658 q 513 693 558 682 q 418 704 468 704 q 342 688 379 704 q 276 644 306 671 q 230 585 247 617 q 213 524 213 553 q 228 476 213 497 q 274 454 243 454 q 336 477 306 454 q 392 533 367 500 q 433 599 417 567 q 450 649 449 631 q 459 663 453 668 q 467 649 465 657 q 462 568 478 606 q 415 502 446 531 q 348 457 383 474 q 283 440 313 440 q 218 467 238 440 q 199 524 199 493 q 219 599 199 560 q 276 672 239 638 q 363 728 314 707 q 471 750 413 750 q 581 737 536 750 q 669 710 626 724 q 768 696 713 696 q 824 706 796 696 q 874 729 851 715 q 885 742 876 732 q 901 753 894 751 q 915 749 913 756 q 910 738 918 742 q 795 644 853 708 q 677 496 738 579 q 552 326 617 413 q 417 165 488 239 q 267 46 346 92 q 99 0 189 0 q 23 8 49 0 q -11 28 -3 17 q -19 50 -19 40 q 8 85 -19 65 q 107 106 36 106 q 217 93 164 106 q 326 65 271 81 q 438 38 381 50 q 557 25 494 25 q 667 43 624 25 q 733 92 711 61 q 756 157 756 122 q 742 206 756 190 q 713 226 728 221 q 692 233 697 232 q 686 217 692 233 q 657 201 681 201 q 633 207 642 201 q 624 228 624 213 q 634 244 624 235 q 665 253 644 253 q 708 244 682 253 q 753 215 733 236 q 772 156 772 194 q 747 69 772 111 q 672 1 722 28 q 547 -25 622 -25 z "},"a":{"ha":476,"x_min":-58,"x_max":489,"o":"m 303 256 q 287 236 297 244 q 272 226 276 228 q 274 233 267 224 q 306 290 299 264 q 306 333 314 317 q 278 349 299 349 q 213 326 250 349 q 135 268 175 304 q 62 191 96 232 q 7 112 28 150 q -14 46 -14 74 q -6 19 -14 25 q 11 14 3 14 q 85 44 43 14 q 172 119 128 74 q 257 213 217 165 q 327 300 297 261 q 368 353 357 339 q 405 349 383 347 q 442 351 426 350 q 413 317 439 347 q 352 244 388 286 q 281 157 317 201 q 222 79 246 113 q 199 35 199 46 q 205 17 199 21 q 225 14 211 14 q 274 30 242 15 q 356 88 306 44 q 476 215 406 131 q 483 211 476 215 q 489 207 489 207 q 335 55 406 110 q 206 0 264 0 q 165 10 175 0 q 154 38 154 19 q 166 72 154 51 q 193 111 178 92 q 218 142 208 131 q 215 143 218 142 q 213 144 213 144 q 144 72 181 106 q 73 19 108 39 q 4 0 38 0 q -44 17 -31 0 q -58 71 -58 35 q -36 155 -58 106 q 28 252 -14 204 q 128 332 69 300 q 261 364 188 364 q 311 351 297 364 q 324 319 325 338 q 315 283 322 301 q 303 256 308 265 z "},"á":{"ha":476,"x_min":-58,"x_max":522,"o":"m 303 256 q 287 236 297 244 q 272 226 276 228 q 274 233 267 224 q 306 290 299 264 q 306 333 314 317 q 278 349 299 349 q 213 326 250 349 q 135 268 175 304 q 62 191 96 232 q 7 112 28 150 q -14 46 -14 74 q -6 19 -14 25 q 11 14 3 14 q 85 44 43 14 q 172 119 128 74 q 257 213 217 165 q 327 300 297 261 q 368 353 357 339 q 405 349 383 347 q 442 351 426 350 q 413 317 439 347 q 352 244 388 286 q 281 157 317 201 q 222 79 246 113 q 199 35 199 46 q 205 17 199 21 q 225 14 211 14 q 274 30 242 15 q 356 88 306 44 q 476 215 406 131 q 483 211 476 215 q 489 207 489 207 q 335 55 406 110 q 206 0 264 0 q 165 10 175 0 q 154 38 154 19 q 166 72 154 51 q 193 111 178 92 q 218 142 208 131 q 215 143 218 142 q 213 144 213 144 q 144 72 181 106 q 73 19 108 39 q 4 0 38 0 q -44 17 -31 0 q -58 71 -58 35 q -36 155 -58 106 q 28 252 -14 204 q 128 332 69 300 q 261 364 188 364 q 311 351 297 364 q 324 319 325 338 q 315 283 322 301 q 303 256 308 265 m 382 489 q 445 544 425 513 q 469 601 465 575 q 479 629 472 619 q 500 639 486 639 q 516 632 510 639 q 522 607 522 625 q 501 567 522 590 q 449 519 481 543 q 388 478 418 496 q 375 478 378 472 q 382 489 372 483 z "},"â":{"ha":476,"x_min":-58,"x_max":489,"o":"m 303 256 q 287 236 297 244 q 272 226 276 228 q 274 233 267 224 q 306 290 299 264 q 306 333 314 317 q 278 349 299 349 q 213 326 250 349 q 135 268 175 304 q 62 191 96 232 q 7 112 28 150 q -14 46 -14 74 q -6 19 -14 25 q 11 14 3 14 q 85 44 43 14 q 172 119 128 74 q 257 213 217 165 q 327 300 297 261 q 368 353 357 339 q 405 349 383 347 q 442 351 426 350 q 413 317 439 347 q 352 244 388 286 q 281 157 317 201 q 222 79 246 113 q 199 35 199 46 q 205 17 199 21 q 225 14 211 14 q 274 30 242 15 q 356 88 306 44 q 476 215 406 131 q 483 211 476 215 q 489 207 489 207 q 335 55 406 110 q 206 0 264 0 q 165 10 175 0 q 154 38 154 19 q 166 72 154 51 q 193 111 178 92 q 218 142 208 131 q 215 143 218 142 q 213 144 213 144 q 144 72 181 106 q 73 19 108 39 q 4 0 38 0 q -44 17 -31 0 q -58 71 -58 35 q -36 155 -58 106 q 28 252 -14 204 q 128 332 69 300 q 261 364 188 364 q 311 351 297 364 q 324 319 325 338 q 315 283 322 301 q 303 256 308 265 m 271 481 q 303 508 279 489 q 356 549 326 526 q 412 596 385 572 q 457 639 439 619 q 471 647 467 650 q 472 636 475 643 q 463 606 468 625 q 457 563 457 586 q 463 513 457 538 q 479 481 469 489 q 480 471 486 475 q 463 471 474 467 q 440 495 450 476 q 422 535 429 514 q 415 567 415 557 q 394 552 411 564 q 354 524 376 540 q 311 494 332 508 q 281 474 290 481 q 266 469 267 464 q 271 481 265 475 z "},"ä":{"ha":476,"x_min":-58,"x_max":518,"o":"m 303 256 q 287 236 297 244 q 272 226 276 228 q 274 233 267 224 q 306 290 299 264 q 306 333 314 317 q 278 349 299 349 q 213 326 250 349 q 135 268 175 304 q 62 191 96 232 q 7 112 28 150 q -14 46 -14 74 q -6 19 -14 25 q 11 14 3 14 q 85 44 43 14 q 172 119 128 74 q 257 213 217 165 q 327 300 297 261 q 368 353 357 339 q 405 349 383 347 q 442 351 426 350 q 413 317 439 347 q 352 244 388 286 q 281 157 317 201 q 222 79 246 113 q 199 35 199 46 q 205 17 199 21 q 225 14 211 14 q 274 30 242 15 q 356 88 306 44 q 476 215 406 131 q 483 211 476 215 q 489 207 489 207 q 335 55 406 110 q 206 0 264 0 q 165 10 175 0 q 154 38 154 19 q 166 72 154 51 q 193 111 178 92 q 218 142 208 131 q 215 143 218 142 q 213 144 213 144 q 144 72 181 106 q 73 19 108 39 q 4 0 38 0 q -44 17 -31 0 q -58 71 -58 35 q -36 155 -58 106 q 28 252 -14 204 q 128 332 69 300 q 261 364 188 364 q 311 351 297 364 q 324 319 325 338 q 315 283 322 301 q 303 256 308 265 m 501 521 q 454 506 478 497 q 431 538 431 515 q 446 572 431 560 q 495 587 472 594 q 518 558 518 579 q 513 537 518 546 q 501 521 508 528 m 340 521 q 294 506 317 497 q 271 538 271 515 q 276 558 271 549 q 288 572 282 567 q 333 588 308 593 q 357 558 357 582 q 352 537 357 546 q 340 521 347 528 z "},"à":{"ha":476,"x_min":-58,"x_max":489,"o":"m 303 256 q 287 236 297 244 q 272 226 276 228 q 274 233 267 224 q 306 290 299 264 q 306 333 314 317 q 278 349 299 349 q 213 326 250 349 q 135 268 175 304 q 62 191 96 232 q 7 112 28 150 q -14 46 -14 74 q -6 19 -14 25 q 11 14 3 14 q 85 44 43 14 q 172 119 128 74 q 257 213 217 165 q 327 300 297 261 q 368 353 357 339 q 405 349 383 347 q 442 351 426 350 q 413 317 439 347 q 352 244 388 286 q 281 157 317 201 q 222 79 246 113 q 199 35 199 46 q 205 17 199 21 q 225 14 211 14 q 274 30 242 15 q 356 88 306 44 q 476 215 406 131 q 483 211 476 215 q 489 207 489 207 q 335 55 406 110 q 206 0 264 0 q 165 10 175 0 q 154 38 154 19 q 166 72 154 51 q 193 111 178 92 q 218 142 208 131 q 215 143 218 142 q 213 144 213 144 q 144 72 181 106 q 73 19 108 39 q 4 0 38 0 q -44 17 -31 0 q -58 71 -58 35 q -36 155 -58 106 q 28 252 -14 204 q 128 332 69 300 q 261 364 188 364 q 311 351 297 364 q 324 319 325 338 q 315 283 322 301 q 303 256 308 265 m 246 604 q 251 622 246 611 q 267 632 257 632 q 291 622 285 632 q 300 596 297 611 q 331 524 310 549 q 388 481 353 500 q 396 469 399 475 q 385 467 393 464 q 349 485 372 471 q 303 521 326 500 q 263 563 279 542 q 246 604 246 585 z "},"å":{"ha":476,"x_min":-58,"x_max":489,"o":"m 303 256 q 287 236 297 244 q 272 226 276 228 q 274 233 267 224 q 306 290 299 264 q 306 333 314 317 q 278 349 299 349 q 213 326 250 349 q 135 268 175 304 q 62 191 96 232 q 7 112 28 150 q -14 46 -14 74 q -6 19 -14 25 q 11 14 3 14 q 85 44 43 14 q 172 119 128 74 q 257 213 217 165 q 327 300 297 261 q 368 353 357 339 q 405 349 383 347 q 442 351 426 350 q 413 317 439 347 q 352 244 388 286 q 281 157 317 201 q 222 79 246 113 q 199 35 199 46 q 205 17 199 21 q 225 14 211 14 q 274 30 242 15 q 356 88 306 44 q 476 215 406 131 q 483 211 476 215 q 489 207 489 207 q 335 55 406 110 q 206 0 264 0 q 165 10 175 0 q 154 38 154 19 q 166 72 154 51 q 193 111 178 92 q 218 142 208 131 q 215 143 218 142 q 213 144 213 144 q 144 72 181 106 q 73 19 108 39 q 4 0 38 0 q -44 17 -31 0 q -58 71 -58 35 q -36 155 -58 106 q 28 252 -14 204 q 128 332 69 300 q 261 364 188 364 q 311 351 297 364 q 324 319 325 338 q 315 283 322 301 q 303 256 308 265 m 349 458 q 321 466 335 458 q 307 500 307 474 q 327 547 307 524 q 378 587 347 571 q 438 603 408 603 q 468 591 457 603 q 479 564 479 579 q 460 517 479 542 q 412 475 442 492 q 349 458 382 458 m 361 472 q 405 487 385 472 q 437 522 425 501 q 449 561 449 543 q 444 580 449 571 q 426 589 440 589 q 383 574 404 589 q 350 538 363 558 q 338 503 338 518 q 342 482 338 492 q 361 472 347 472 z "},"ã":{"ha":476,"x_min":-58,"x_max":522,"o":"m 303 256 q 287 236 297 244 q 272 226 276 228 q 274 233 267 224 q 306 290 299 264 q 306 333 314 317 q 278 349 299 349 q 213 326 250 349 q 135 268 175 304 q 62 191 96 232 q 7 112 28 150 q -14 46 -14 74 q -6 19 -14 25 q 11 14 3 14 q 85 44 43 14 q 172 119 128 74 q 257 213 217 165 q 327 300 297 261 q 368 353 357 339 q 405 349 383 347 q 442 351 426 350 q 413 317 439 347 q 352 244 388 286 q 281 157 317 201 q 222 79 246 113 q 199 35 199 46 q 205 17 199 21 q 225 14 211 14 q 274 30 242 15 q 356 88 306 44 q 476 215 406 131 q 483 211 476 215 q 489 207 489 207 q 335 55 406 110 q 206 0 264 0 q 165 10 175 0 q 154 38 154 19 q 166 72 154 51 q 193 111 178 92 q 218 142 208 131 q 215 143 218 142 q 213 144 213 144 q 144 72 181 106 q 73 19 108 39 q 4 0 38 0 q -44 17 -31 0 q -58 71 -58 35 q -36 155 -58 106 q 28 252 -14 204 q 128 332 69 300 q 261 364 188 364 q 311 351 297 364 q 324 319 325 338 q 315 283 322 301 q 303 256 308 265 m 256 489 q 272 516 258 499 q 305 547 285 533 q 346 561 325 561 q 382 550 364 561 q 419 527 400 539 q 454 515 438 515 q 488 532 475 515 q 504 558 500 549 q 515 565 508 568 q 519 553 522 563 q 503 523 517 542 q 470 490 489 504 q 433 475 451 475 q 392 487 411 475 q 356 510 372 499 q 322 521 339 521 q 290 509 303 521 q 272 482 278 497 q 260 472 268 468 q 256 489 253 475 z "},"æ":{"ha":675,"x_min":-49,"x_max":689,"o":"m 14 0 q -35 17 -21 0 q -49 71 -49 35 q -26 155 -49 106 q 38 252 -4 204 q 138 332 79 300 q 271 364 197 364 q 321 351 307 364 q 334 319 335 338 q 326 283 333 301 q 313 256 318 265 q 297 236 307 244 q 281 226 286 228 q 283 233 276 224 q 315 291 308 265 q 315 333 322 317 q 288 349 308 349 q 222 326 260 349 q 145 268 185 304 q 72 191 106 232 q 17 112 38 150 q -4 46 -4 74 q 4 19 -4 25 q 21 14 13 14 q 90 42 51 14 q 171 113 129 69 q 251 203 213 156 q 320 292 290 251 q 364 356 350 333 q 394 351 379 350 q 424 354 408 353 q 394 308 413 333 q 355 259 376 283 q 313 212 333 235 q 276 172 293 189 q 249 144 258 154 q 168 75 210 108 q 87 21 126 42 q 14 0 47 0 m 374 0 q 288 30 308 0 q 267 93 267 60 q 296 199 267 150 q 371 288 325 249 q 466 348 417 326 q 554 369 515 369 q 599 362 582 369 q 615 331 615 354 q 589 283 615 308 q 522 235 563 258 q 438 194 482 213 q 358 164 394 175 q 306 153 322 153 q 306 160 306 153 q 306 168 306 168 q 349 176 318 167 q 419 202 381 186 q 495 239 458 218 q 556 283 532 260 q 581 329 581 307 q 574 349 581 340 q 553 357 568 357 q 499 335 531 357 q 436 279 468 314 q 376 206 404 244 q 331 131 349 167 q 314 72 314 96 q 331 31 314 44 q 379 17 347 17 q 484 44 435 17 q 574 108 533 71 q 642 177 614 144 q 679 219 669 210 q 684 215 679 219 q 689 211 689 211 q 651 167 679 200 q 582 94 624 133 q 488 28 540 56 q 374 0 435 0 z "},"b":{"ha":426,"x_min":-51,"x_max":650,"o":"m 21 0 q -28 16 -6 0 q -51 67 -51 32 q -24 163 -51 103 q 50 296 3 222 q 156 447 97 369 q 280 595 215 524 q 407 724 344 667 q 522 816 469 782 q 611 850 575 850 q 642 841 635 849 q 650 818 650 833 q 622 721 650 771 q 546 623 593 671 q 443 533 499 575 q 333 460 388 492 q 233 410 278 428 q 164 392 188 392 q 146 401 149 392 q 164 410 143 410 q 274 441 213 410 q 399 522 336 472 q 514 627 461 571 q 599 733 567 683 q 632 815 632 783 q 610 838 632 838 q 547 803 588 838 q 456 713 507 769 q 349 585 406 656 q 235 443 292 515 q 116 293 175 367 q 18 158 57 219 q -21 56 -21 97 q -10 24 -21 35 q 24 14 0 14 q 114 39 71 14 q 190 103 157 64 q 243 187 224 143 q 263 268 263 231 q 258 298 263 276 q 258 338 253 319 q 289 356 263 356 q 311 345 303 356 q 319 319 319 335 q 295 213 319 268 q 229 108 271 157 q 134 30 188 60 q 21 0 81 0 m 294 104 q 262 118 271 104 q 253 148 253 132 q 253 172 253 164 q 261 174 253 172 q 269 178 269 176 q 268 158 269 172 q 272 131 267 143 q 294 118 276 118 q 338 133 315 118 q 382 167 361 147 q 416 202 403 186 q 431 222 429 218 q 436 218 431 222 q 442 214 442 214 q 424 192 439 210 q 388 155 410 175 q 342 119 367 135 q 294 104 318 104 z "},"c":{"ha":378,"x_min":-44,"x_max":392,"o":"m 268 261 q 240 270 249 261 q 231 292 231 279 q 241 316 231 304 q 269 328 251 328 q 289 325 281 328 q 297 322 297 322 q 290 347 299 336 q 258 357 282 357 q 204 338 236 357 q 138 286 172 318 q 74 217 104 254 q 26 141 44 179 q 8 72 8 103 q 31 26 8 38 q 79 15 53 15 q 178 40 129 15 q 267 99 226 64 q 338 168 308 135 q 379 219 367 201 l 392 211 q 350 160 381 194 q 276 88 319 125 q 179 26 232 51 q 68 0 126 0 q -12 22 21 0 q -44 89 -44 43 q -22 176 -44 128 q 40 267 0 224 q 134 340 79 311 q 256 368 189 368 q 301 357 282 368 q 321 318 321 346 q 303 277 321 293 q 268 261 286 261 z "},"ç":{"ha":378,"x_min":-44,"x_max":392,"o":"m 268 261 q 240 270 249 261 q 231 292 231 279 q 241 316 231 304 q 269 328 251 328 q 289 325 281 328 q 297 322 297 322 q 290 347 299 336 q 258 357 282 357 q 204 338 236 357 q 138 286 172 318 q 74 217 104 254 q 26 141 44 179 q 8 72 8 103 q 31 26 8 38 q 79 15 53 15 q 178 40 129 15 q 267 99 226 64 q 338 168 308 135 q 379 219 367 201 l 392 211 q 350 160 381 194 q 276 88 319 125 q 179 26 232 51 q 68 0 126 0 q -12 22 21 0 q -44 89 -44 43 q -22 176 -44 128 q 40 267 0 224 q 134 340 79 311 q 256 368 189 368 q 301 357 282 368 q 321 318 321 346 q 303 277 321 293 q 268 261 286 261 m 58 13 l 76 13 l 50 -31 q 58 -29 50 -31 q 78 -28 67 -28 q 103 -40 90 -28 q 117 -69 117 -51 q 94 -120 117 -96 q 41 -162 72 -144 q -21 -186 10 -179 q -37 -183 -35 -189 q -26 -171 -39 -178 q 3 -159 -19 -167 q 47 -133 26 -151 q 68 -85 68 -115 q 58 -67 68 -71 q 36 -62 47 -62 q 17 -65 26 -62 q 8 -67 8 -67 l 58 13 z "},"d":{"ha":485,"x_min":-57,"x_max":774,"o":"m 13 0 q -42 19 -26 0 q -57 78 -57 38 q -29 169 -57 119 q 45 265 -1 219 q 150 339 92 310 q 269 368 208 368 q 316 355 303 368 q 330 324 329 342 q 321 293 331 306 q 313 285 321 293 q 299 267 306 276 q 292 258 292 258 q 312 328 319 307 q 272 350 304 350 q 213 328 249 350 q 138 269 178 306 q 64 192 99 233 q 8 111 29 150 q -14 44 -14 72 q -4 24 -14 31 q 21 17 6 17 q 69 33 42 17 q 126 75 97 50 q 181 125 156 100 q 222 168 206 150 q 239 189 238 186 q 272 235 244 196 q 340 332 299 274 q 430 459 382 390 q 525 597 478 528 q 613 722 572 665 q 678 815 653 779 q 706 854 703 851 q 733 845 719 847 q 774 846 746 843 q 740 799 771 842 q 661 689 710 757 q 556 540 613 621 q 441 379 499 460 q 335 231 383 299 q 256 120 286 163 q 222 74 225 78 q 210 52 217 65 q 204 28 204 39 q 215 17 204 17 q 298 41 257 17 q 376 100 339 65 q 440 167 413 135 q 485 218 468 200 l 496 210 q 450 156 481 190 q 380 85 419 121 q 297 25 340 50 q 214 0 254 0 q 174 9 188 0 q 160 33 160 18 q 173 74 160 51 q 201 116 186 96 q 224 144 217 136 q 222 145 224 144 q 219 146 219 146 q 198 122 218 144 q 147 72 178 100 q 81 22 115 43 q 13 0 46 0 z "},"ð":{"ha":488,"x_min":-46,"x_max":568,"o":"m 38 0 q -26 24 -6 0 q -46 88 -46 47 q -21 181 -46 132 q 46 272 4 229 q 138 341 88 314 q 238 368 188 368 q 295 353 276 368 q 317 315 314 338 q 315 270 321 293 q 301 231 310 247 q 279 208 290 210 q 283 229 268 206 q 299 263 292 243 q 304 301 306 282 q 291 332 303 319 q 250 344 279 344 q 190 322 224 344 q 122 263 156 299 q 60 188 89 228 q 15 112 32 147 q -3 56 -3 76 q 13 21 -3 29 q 42 13 28 13 q 113 49 69 13 q 206 145 157 85 q 301 281 256 206 q 378 438 346 357 q 421 594 411 519 q 407 729 431 669 q 410 744 404 738 q 422 736 417 750 q 448 582 450 664 q 421 417 446 500 q 353 260 396 335 q 258 126 311 185 q 149 34 206 68 q 38 0 92 0 m 256 0 q 215 13 226 0 q 206 44 204 25 q 217 83 208 63 q 234 118 225 103 q 247 139 243 133 q 258 140 247 139 q 268 143 268 142 q 253 121 263 136 q 236 88 244 106 q 224 53 228 69 q 228 25 221 36 q 256 14 235 14 q 324 41 288 14 q 394 105 360 68 q 455 174 429 142 q 490 218 481 207 q 496 214 490 218 q 501 210 501 210 q 465 165 492 199 q 403 94 439 132 q 328 28 367 56 q 256 0 289 0 m 299 526 q 326 537 299 526 q 392 563 353 547 q 472 593 432 578 q 540 619 513 608 q 567 629 567 629 q 566 622 565 625 q 568 614 567 618 q 541 603 568 614 q 474 576 514 592 q 395 546 435 561 q 328 521 356 531 q 301 511 301 511 q 299 526 301 519 z "},"e":{"ha":368,"x_min":-42,"x_max":381,"o":"m 65 0 q -21 30 0 0 q -42 93 -42 60 q -12 199 -42 150 q 63 288 17 249 q 158 348 108 326 q 246 369 207 369 q 290 362 274 369 q 307 331 307 354 q 281 283 307 308 q 214 235 254 258 q 130 194 174 213 q 50 164 86 175 q -3 153 14 153 q -3 160 -3 153 q -3 168 -3 168 q 41 176 10 167 q 111 202 72 186 q 187 239 150 218 q 248 283 224 260 q 272 329 272 307 q 266 349 272 340 q 244 357 260 357 q 191 335 222 357 q 128 279 160 314 q 68 206 96 244 q 23 131 40 167 q 6 72 6 96 q 22 31 6 44 q 71 17 39 17 q 176 44 126 17 q 265 108 225 71 q 333 177 306 144 q 371 219 361 210 q 376 215 371 219 q 381 211 381 211 q 343 167 371 200 q 274 94 315 133 q 179 28 232 56 q 65 0 126 0 z "},"é":{"ha":368,"x_min":-42,"x_max":464,"o":"m 65 0 q -21 30 0 0 q -42 93 -42 60 q -12 199 -42 150 q 63 288 17 249 q 158 348 108 326 q 246 369 207 369 q 290 362 274 369 q 307 331 307 354 q 281 283 307 308 q 214 235 254 258 q 130 194 174 213 q 50 164 86 175 q -3 153 14 153 q -3 160 -3 153 q -3 168 -3 168 q 41 176 10 167 q 111 202 72 186 q 187 239 150 218 q 248 283 224 260 q 272 329 272 307 q 266 349 272 340 q 244 357 260 357 q 191 335 222 357 q 128 279 160 314 q 68 206 96 244 q 23 131 40 167 q 6 72 6 96 q 22 31 6 44 q 71 17 39 17 q 176 44 126 17 q 265 108 225 71 q 333 177 306 144 q 371 219 361 210 q 376 215 371 219 q 381 211 381 211 q 343 167 371 200 q 274 94 315 133 q 179 28 232 56 q 65 0 126 0 m 329 467 q 317 467 319 461 q 324 478 314 472 q 387 533 367 501 q 411 590 407 564 q 421 618 414 608 q 442 628 428 628 q 458 621 451 628 q 464 596 464 614 q 443 556 464 579 q 391 508 422 532 q 329 467 360 485 z "},"ê":{"ha":368,"x_min":-42,"x_max":426,"o":"m 65 0 q -21 30 0 0 q -42 93 -42 60 q -12 199 -42 150 q 63 288 17 249 q 158 348 108 326 q 246 369 207 369 q 290 362 274 369 q 307 331 307 354 q 281 283 307 308 q 214 235 254 258 q 130 194 174 213 q 50 164 86 175 q -3 153 14 153 q -3 160 -3 153 q -3 168 -3 168 q 41 176 10 167 q 111 202 72 186 q 187 239 150 218 q 248 283 224 260 q 272 329 272 307 q 266 349 272 340 q 244 357 260 357 q 191 335 222 357 q 128 279 160 314 q 68 206 96 244 q 23 131 40 167 q 6 72 6 96 q 22 31 6 44 q 71 17 39 17 q 176 44 126 17 q 265 108 225 71 q 333 177 306 144 q 371 219 361 210 q 376 215 371 219 q 381 211 381 211 q 343 167 371 200 q 274 94 315 133 q 179 28 232 56 q 65 0 126 0 m 221 471 q 206 467 207 461 q 211 478 206 472 q 243 505 219 486 q 296 547 267 524 q 352 593 325 569 q 397 636 379 617 q 411 644 407 647 q 413 633 415 640 q 403 603 408 622 q 397 560 397 583 q 403 510 397 535 q 419 478 410 486 q 420 468 426 472 q 403 468 414 464 q 380 492 390 474 q 363 533 369 511 q 356 564 356 554 q 334 549 351 561 q 294 522 317 538 q 251 492 272 506 q 221 471 231 478 z "},"ë":{"ha":368,"x_min":-42,"x_max":461,"o":"m 65 0 q -21 30 0 0 q -42 93 -42 60 q -12 199 -42 150 q 63 288 17 249 q 158 348 108 326 q 246 369 207 369 q 290 362 274 369 q 307 331 307 354 q 281 283 307 308 q 214 235 254 258 q 130 194 174 213 q 50 164 86 175 q -3 153 14 153 q -3 160 -3 153 q -3 168 -3 168 q 41 176 10 167 q 111 202 72 186 q 187 239 150 218 q 248 283 224 260 q 272 329 272 307 q 266 349 272 340 q 244 357 260 357 q 191 335 222 357 q 128 279 160 314 q 68 206 96 244 q 23 131 40 167 q 6 72 6 96 q 22 31 6 44 q 71 17 39 17 q 176 44 126 17 q 265 108 225 71 q 333 177 306 144 q 371 219 361 210 q 376 215 371 219 q 381 211 381 211 q 343 167 371 200 q 274 94 315 133 q 179 28 232 56 q 65 0 126 0 m 283 526 q 237 512 260 503 q 214 543 214 521 q 219 563 214 554 q 231 578 225 572 q 276 593 251 599 q 300 564 300 588 q 295 542 300 551 q 283 526 290 533 m 444 526 q 397 512 421 503 q 374 543 374 521 q 389 578 374 565 q 438 592 415 600 q 461 564 461 585 q 456 542 461 551 q 444 526 451 533 z "},"è":{"ha":367,"x_min":-42,"x_max":381,"o":"m 65 0 q -21 30 0 0 q -42 93 -42 60 q -12 199 -42 150 q 63 288 17 249 q 158 348 108 326 q 246 369 207 369 q 290 362 274 369 q 307 331 307 354 q 281 283 307 308 q 214 235 254 258 q 130 194 174 213 q 50 164 86 175 q -3 153 14 153 q -3 160 -3 153 q -3 168 -3 168 q 41 176 10 167 q 111 202 72 186 q 187 239 150 218 q 248 283 224 260 q 272 329 272 307 q 266 349 272 340 q 244 357 260 357 q 191 335 222 357 q 128 279 160 314 q 68 206 96 244 q 23 131 40 167 q 6 72 6 96 q 22 31 6 44 q 71 17 39 17 q 176 44 126 17 q 265 108 225 71 q 333 177 306 144 q 371 219 361 210 q 376 215 371 219 q 381 211 381 211 q 343 167 371 200 q 274 94 315 133 q 179 28 232 56 q 65 0 126 0 m 325 467 q 290 485 313 471 q 243 521 267 500 q 203 563 219 542 q 186 604 186 585 q 192 622 186 611 q 207 632 197 632 q 231 622 225 632 q 240 596 238 611 q 272 524 250 549 q 328 481 293 500 q 336 469 339 475 q 325 467 333 464 z "},"f":{"ha":297,"x_min":-336,"x_max":546,"o":"m -279 -418 q -321 -402 -306 -418 q -336 -360 -336 -386 q -289 -231 -336 -314 q -165 -33 -242 -149 q 3 221 -87 82 q 150 448 78 336 q 288 650 222 560 q 407 794 353 740 q 500 847 461 847 q 546 792 546 847 q 517 689 546 747 q 442 566 489 631 q 336 438 394 501 q 217 319 278 375 q 103 224 157 264 q 11 165 50 183 q 1 170 1 161 q 10 183 0 179 q 97 240 46 200 q 205 334 147 279 q 319 451 263 389 q 421 577 375 514 q 494 698 467 640 q 522 799 522 756 q 515 824 522 814 q 497 835 508 835 q 434 783 475 835 q 336 642 393 732 q 208 438 279 553 q 51 196 136 322 q -74 8 -11 103 q -188 -169 -136 -87 q -272 -308 -240 -251 q -304 -379 -304 -364 q -295 -399 -304 -393 q -275 -404 -286 -404 q -211 -362 -250 -404 q -133 -249 -172 -321 q -66 -87 -93 -178 q -39 100 -39 3 q -31 119 -39 115 q -24 113 -24 124 q -47 -85 -24 10 q -109 -256 -71 -181 q -192 -374 -147 -331 q -279 -418 -237 -418 m 94 88 q 15 105 46 88 q -35 147 -17 122 q -60 198 -53 172 q -67 242 -67 224 q -56 272 -67 260 q -32 283 -46 283 q -8 272 -14 283 q -3 253 -3 261 q -19 218 -3 233 q -37 200 -35 203 q -33 185 -37 200 q -14 150 -28 169 q 26 115 0 131 q 94 100 51 100 q 174 116 139 100 q 235 153 210 132 q 277 194 261 175 q 299 219 293 214 l 311 211 q 290 186 307 206 q 246 144 274 167 q 180 104 218 121 q 94 88 142 88 z "},"g":{"ha":490,"x_min":-364,"x_max":504,"o":"m 261 367 q 319 354 303 367 q 335 322 335 342 q 325 281 335 301 q 305 244 315 261 q 292 222 294 228 q 272 205 283 208 q 279 226 261 201 q 314 285 303 257 q 316 333 325 314 q 268 351 307 351 q 206 328 242 351 q 133 269 171 306 q 63 190 96 232 q 10 109 31 147 q -10 44 -10 71 q -1 21 -10 25 q 19 17 7 17 q 93 45 51 17 q 179 118 135 74 q 265 210 224 163 q 336 298 306 258 q 379 356 367 338 q 410 351 394 351 q 453 354 426 350 q 282 139 361 249 q 131 -71 203 29 q -12 -249 58 -171 q -154 -374 -82 -328 q -306 -419 -226 -419 q -348 -408 -332 -419 q -364 -379 -364 -397 q -332 -316 -364 -349 q -249 -253 -300 -283 q -138 -194 -197 -222 q -24 -143 -79 -165 q 68 -106 31 -121 q 199 -39 133 -79 q 322 49 264 1 q 424 140 379 96 q 494 219 469 185 q 499 214 494 219 q 504 208 504 208 q 408 103 469 163 q 263 -14 347 44 q 72 -117 178 -72 q -17 -154 36 -132 q -126 -203 -69 -176 q -233 -260 -183 -231 q -315 -320 -283 -290 q -346 -378 -346 -350 q -336 -397 -346 -387 q -306 -407 -326 -407 q -219 -374 -267 -407 q -120 -286 -172 -340 q -16 -169 -68 -232 q 83 -43 36 -106 q 169 69 131 19 q 231 144 207 119 q 228 146 231 144 q 226 147 226 147 q 199 117 221 140 q 146 67 178 94 q 78 20 114 40 q 7 0 42 0 q -42 21 -29 0 q -56 68 -56 42 q -31 164 -56 113 q 37 261 -7 215 q 138 337 81 307 q 261 367 196 367 z "},"h":{"ha":485,"x_min":-144,"x_max":521,"o":"m 447 854 q 483 851 464 851 q 521 854 501 850 q 497 822 519 853 q 437 738 475 790 q 352 621 399 686 q 256 487 306 556 q 160 353 207 418 q 76 236 114 289 q 15 151 38 183 q -8 118 -7 119 q -7 116 -8 118 q -6 113 -6 114 q 69 194 29 150 q 151 278 110 239 q 234 343 193 318 q 310 368 275 368 q 367 348 354 368 q 381 313 381 328 q 361 249 381 283 q 313 179 342 214 q 256 115 285 144 q 208 63 228 85 q 189 31 189 40 q 206 17 189 19 q 235 15 224 15 q 304 39 267 15 q 378 97 342 63 q 443 165 414 132 q 488 218 472 199 l 499 210 q 457 159 485 193 q 391 88 429 125 q 308 26 353 51 q 215 0 264 0 q 174 9 197 0 q 150 47 150 18 q 169 102 150 71 q 215 167 188 133 q 272 233 243 201 q 319 292 300 265 q 338 336 338 319 q 311 354 338 354 q 231 323 278 354 q 133 240 185 292 q 31 129 82 189 q -62 11 -19 69 q -103 14 -81 14 q -144 8 -125 14 q -119 44 -144 8 q -52 140 -94 79 q 43 276 -10 200 q 151 431 96 351 q 260 587 207 511 q 355 723 313 663 q 422 819 397 783 q 447 854 447 854 z "},"ħ":{"ha":485,"x_min":-144,"x_max":521,"o":"m 447 854 q 483 851 464 851 q 521 854 501 850 q 497 822 519 853 q 437 738 475 790 q 352 621 399 686 q 256 487 306 556 q 160 353 207 418 q 76 236 114 289 q 15 151 38 183 q -8 118 -7 119 l -6 113 q 69 194 29 150 q 151 278 110 239 q 234 343 193 318 q 310 368 275 368 q 367 348 354 368 q 381 313 381 328 q 361 249 381 283 q 313 179 342 214 q 256 115 285 144 q 208 63 228 85 q 189 31 189 40 q 206 17 189 19 q 235 15 224 15 q 304 39 267 15 q 378 97 342 63 q 443 165 414 132 q 488 218 472 199 l 499 210 q 457 159 485 193 q 391 88 429 125 q 308 26 353 51 q 215 0 264 0 q 174 9 197 0 q 150 47 150 18 q 169 102 150 71 q 215 167 188 133 q 272 233 243 201 q 319 292 300 265 q 338 336 338 319 q 311 354 338 354 q 231 323 278 354 q 133 240 185 292 q 31 129 82 189 q -62 11 -19 69 q -103 14 -81 14 q -144 8 -125 14 l 447 854 m 224 628 q 232 635 229 632 q 238 643 235 639 l 514 643 q 511 637 513 640 q 507 628 510 633 l 224 628 z "},"i":{"ha":249,"x_min":-96,"x_max":304,"o":"m -28 0 q -72 10 -47 0 q -96 44 -96 21 q -69 118 -96 74 q -5 210 -43 163 q 69 299 33 257 q 124 364 106 340 q 160 363 139 363 q 199 364 182 363 q 148 304 179 340 q 83 227 117 268 q 17 147 49 186 q -33 78 -14 108 q -53 33 -53 47 q -44 19 -53 24 q -17 15 -36 15 q 58 41 17 15 q 138 103 99 67 q 207 172 176 139 q 250 219 238 204 l 261 210 q 219 162 249 196 q 148 90 189 128 q 62 26 107 53 q -28 0 17 0 m 250 469 q 225 480 233 469 q 217 504 217 490 q 233 536 217 519 q 268 553 250 553 q 296 542 288 553 q 304 522 304 532 q 288 485 304 501 q 250 469 271 469 z "},"ı":{"ha":249,"x_min":-96,"x_max":261,"o":"m 124 364 q 160 363 139 363 q 199 364 182 363 q 148 304 179 340 q 83 227 117 268 q 17 147 49 186 q -33 78 -14 108 q -53 33 -53 47 q -44 19 -53 24 q -17 15 -36 15 q 58 41 17 15 q 138 103 99 67 q 207 172 176 139 q 250 219 238 204 l 261 210 q 219 162 249 196 q 148 90 189 128 q 62 26 107 53 q -28 0 17 0 q -72 10 -47 0 q -96 44 -96 21 q -69 118 -96 74 q -5 210 -43 163 q 69 299 33 257 q 124 364 106 340 z "},"í":{"ha":249,"x_min":-96,"x_max":392,"o":"m 251 474 q 315 528 294 497 q 339 586 335 560 q 349 614 342 604 q 369 624 356 624 q 385 617 379 624 q 392 592 392 610 q 371 551 392 575 q 319 504 350 528 q 257 463 288 481 q 244 463 247 457 q 251 474 242 468 m 124 364 q 160 363 139 363 q 199 364 182 363 q 148 304 179 340 q 83 227 117 268 q 17 147 49 186 q -33 78 -14 108 q -53 33 -53 47 q -44 19 -53 24 q -17 15 -36 15 q 58 41 17 15 q 138 103 99 67 q 207 172 176 139 q 250 219 238 204 l 261 210 q 219 162 249 196 q 148 90 189 128 q 62 26 107 53 q -28 0 17 0 q -72 10 -47 0 q -96 44 -96 21 q -69 118 -96 74 q -5 210 -43 163 q 69 299 33 257 q 124 364 106 340 z "},"î":{"ha":249,"x_min":-96,"x_max":356,"o":"m 124 364 q 160 363 139 363 q 199 364 182 363 q 148 304 179 340 q 83 227 117 268 q 17 147 49 186 q -33 78 -14 108 q -53 33 -53 47 q -44 19 -53 24 q -17 15 -36 15 q 58 41 17 15 q 138 103 99 67 q 207 172 176 139 q 250 219 238 204 l 261 210 q 219 162 249 196 q 148 90 189 128 q 62 26 107 53 q -28 0 17 0 q -72 10 -47 0 q -96 44 -96 21 q -69 118 -96 74 q -5 210 -43 163 q 69 299 33 257 q 124 364 106 340 m 140 472 q 172 499 149 481 q 225 541 196 518 q 281 588 254 564 q 326 631 308 611 q 340 638 336 642 q 342 628 344 635 q 332 597 338 617 q 326 554 326 578 q 333 505 326 529 q 349 472 339 481 q 349 463 356 467 q 332 463 343 458 q 309 487 319 468 q 292 527 299 506 q 285 558 285 549 q 263 544 281 556 q 224 516 246 532 q 181 486 201 500 q 150 465 160 472 q 135 461 136 456 q 140 472 135 467 z "},"ï":{"ha":249,"x_min":-96,"x_max":389,"o":"m 124 364 q 160 363 139 363 q 199 364 182 363 q 148 304 179 340 q 83 227 117 268 q 17 147 49 186 q -33 78 -14 108 q -53 33 -53 47 q -44 19 -53 24 q -17 15 -36 15 q 58 41 17 15 q 138 103 99 67 q 207 172 176 139 q 250 219 238 204 l 261 210 q 219 162 249 196 q 148 90 189 128 q 62 26 107 53 q -28 0 17 0 q -72 10 -47 0 q -96 44 -96 21 q -69 118 -96 74 q -5 210 -43 163 q 69 299 33 257 q 124 364 106 340 m 372 519 q 325 505 349 496 q 301 536 301 514 q 317 571 301 558 q 366 585 343 593 q 389 557 389 578 q 384 535 389 544 q 372 519 379 526 m 211 519 q 165 505 188 496 q 142 536 142 514 q 147 556 142 547 q 158 571 153 565 q 203 586 179 592 q 228 557 228 581 q 223 535 228 544 q 211 519 218 526 z "},"ì":{"ha":249,"x_min":-96,"x_max":271,"o":"m 124 364 q 160 363 139 363 q 199 364 182 363 q 148 304 179 340 q 83 227 117 268 q 17 147 49 186 q -33 78 -14 108 q -53 33 -53 47 q -44 19 -53 24 q -17 15 -36 15 q 58 41 17 15 q 138 103 99 67 q 207 172 176 139 q 250 219 238 204 l 261 210 q 219 162 249 196 q 148 90 189 128 q 62 26 107 53 q -28 0 17 0 q -72 10 -47 0 q -96 44 -96 21 q -69 118 -96 74 q -5 210 -43 163 q 69 299 33 257 q 124 364 106 340 m 118 599 q 124 616 118 606 q 139 626 129 626 q 163 616 157 626 q 172 590 169 606 q 203 519 182 543 q 260 475 225 494 q 268 464 271 469 q 257 461 265 458 q 222 480 244 465 q 175 515 199 494 q 135 558 151 536 q 118 599 118 579 z "},"ĩ":{"ha":249,"x_min":-96,"x_max":389,"o":"m 124 364 q 160 363 139 363 q 199 364 182 363 q 148 304 179 340 q 83 227 117 268 q 17 147 49 186 q -33 78 -14 108 q -53 33 -53 47 q -44 19 -53 24 q -17 15 -36 15 q 58 41 17 15 q 138 103 99 67 q 207 172 176 139 q 250 219 238 204 l 261 210 q 219 162 249 196 q 148 90 189 128 q 62 26 107 53 q -28 0 17 0 q -72 10 -47 0 q -96 44 -96 21 q -69 118 -96 74 q -5 210 -43 163 q 69 299 33 257 q 124 364 106 340 m 122 492 q 138 519 125 501 q 172 550 151 536 q 213 564 192 564 q 249 553 231 564 q 285 530 267 542 q 321 518 304 518 q 354 535 342 518 q 371 561 367 551 q 382 568 375 571 q 386 556 389 565 q 369 526 383 544 q 337 492 356 507 q 300 478 318 478 q 258 490 278 478 q 222 513 239 501 q 189 524 206 524 q 157 512 169 524 q 139 485 144 500 q 127 474 135 471 q 122 492 119 478 z "},"ĳ":{"ha":458,"x_min":-424,"x_max":519,"o":"m -371 -419 q -412 -408 -401 -419 q -424 -378 -424 -397 q -389 -317 -424 -350 q -294 -249 -354 -285 q -158 -179 -235 -214 q 4 -111 -81 -144 q 197 -22 118 -67 q 336 80 275 22 q 458 217 397 138 l 468 208 q 344 70 407 128 q 203 -33 282 13 q 10 -124 124 -79 q -147 -190 -72 -156 q -279 -257 -221 -224 q -372 -321 -337 -290 q -406 -379 -406 -351 q -395 -400 -406 -394 q -365 -406 -385 -406 q -269 -372 -319 -406 q -166 -283 -219 -339 q -56 -157 -112 -226 q 57 -17 0 -87 q 156 108 107 47 q 247 222 206 169 q 313 311 288 274 q 339 364 338 349 q 376 360 350 363 q 424 363 401 358 q 288 183 369 292 q 110 -42 207 74 q -1 -175 54 -108 q -113 -297 -56 -242 q -234 -386 -171 -353 q -371 -419 -297 -419 m -28 0 q -72 10 -47 0 q -96 44 -96 21 q -69 118 -96 74 q -5 210 -43 163 q 69 299 33 257 q 124 364 106 340 q 160 363 139 363 q 199 364 182 363 q 148 304 179 340 q 83 227 117 268 q 17 147 49 186 q -33 78 -14 108 q -53 33 -53 47 q -44 19 -53 24 q -17 15 -36 15 q 58 41 17 15 q 138 103 99 67 q 207 172 176 139 q 250 219 238 204 l 261 210 q 219 162 249 196 q 148 90 189 128 q 62 26 107 53 q -28 0 17 0 m 250 469 q 225 480 233 469 q 217 504 217 490 q 233 536 217 519 q 268 553 250 553 q 296 542 288 553 q 304 522 304 532 q 288 485 304 501 q 250 469 271 469 m 465 468 q 440 478 449 468 q 432 503 432 489 q 449 535 432 518 q 483 551 465 551 q 511 541 503 551 q 519 521 519 531 q 503 484 519 500 q 465 468 486 468 z "},"j":{"ha":217,"x_min":-665,"x_max":278,"o":"m -612 -419 q -654 -408 -643 -419 q -665 -378 -665 -397 q -631 -317 -665 -350 q -536 -249 -596 -285 q -399 -179 -476 -214 q -237 -111 -322 -144 q -45 -22 -124 -67 q 94 80 33 22 q 217 217 156 138 l 226 208 q 103 70 165 128 q -39 -33 40 13 q -232 -124 -118 -79 q -388 -190 -314 -156 q -521 -257 -462 -224 q -613 -321 -579 -290 q -647 -379 -647 -351 q -637 -400 -647 -394 q -607 -406 -626 -406 q -511 -372 -561 -406 q -407 -283 -461 -339 q -297 -157 -353 -226 q -185 -17 -240 -87 q -85 108 -135 47 q 5 222 -36 169 q 71 311 46 274 q 97 364 96 349 q 134 360 108 363 q 182 363 160 358 q 47 183 128 292 q -132 -42 -35 74 q -242 -175 -187 -108 q -355 -297 -297 -242 q -476 -386 -412 -353 q -612 -419 -539 -419 m 224 468 q 199 478 207 468 q 190 503 190 489 q 207 535 190 518 q 242 551 224 551 q 269 541 261 551 q 278 521 278 531 q 261 484 278 500 q 224 468 244 468 z "},"ȷ":{"ha":217,"x_min":-665,"x_max":226,"o":"m 97 364 q 134 360 108 363 q 182 363 160 358 q 47 183 128 292 q -132 -42 -35 74 q -242 -175 -187 -108 q -355 -297 -297 -242 q -476 -386 -412 -353 q -612 -419 -539 -419 q -654 -408 -643 -419 q -665 -378 -665 -397 q -631 -317 -665 -350 q -536 -249 -596 -285 q -399 -179 -476 -214 q -237 -111 -322 -144 q -45 -22 -124 -67 q 94 80 33 22 q 217 217 156 138 l 226 208 q 103 70 165 128 q -39 -33 40 13 q -232 -124 -118 -79 q -388 -190 -314 -156 q -521 -257 -462 -224 q -613 -321 -579 -290 q -647 -379 -647 -351 q -637 -400 -647 -394 q -607 -406 -626 -406 q -511 -372 -561 -406 q -407 -283 -461 -339 q -297 -157 -353 -226 q -185 -17 -240 -87 q -85 108 -135 47 q 5 222 -36 169 q 71 311 46 274 q 97 364 96 349 z "},"ĵ":{"ha":217,"x_min":-665,"x_max":329,"o":"m 97 364 q 134 360 108 363 q 182 363 160 358 q 47 183 128 292 q -132 -42 -35 74 q -242 -175 -187 -108 q -355 -297 -297 -242 q -476 -386 -412 -353 q -612 -419 -539 -419 q -654 -408 -643 -419 q -665 -378 -665 -397 q -631 -317 -665 -350 q -536 -249 -596 -285 q -399 -179 -476 -214 q -237 -111 -322 -144 q -45 -22 -124 -67 q 94 80 33 22 q 217 217 156 138 l 226 208 q 103 70 165 128 q -39 -33 40 13 q -232 -124 -118 -79 q -388 -190 -314 -156 q -521 -257 -462 -224 q -613 -321 -579 -290 q -647 -379 -647 -351 q -637 -400 -647 -394 q -607 -406 -626 -406 q -511 -372 -561 -406 q -407 -283 -461 -339 q -297 -157 -353 -226 q -185 -17 -240 -87 q -85 108 -135 47 q 5 222 -36 169 q 71 311 46 274 q 97 364 96 349 m 114 474 q 146 501 122 482 q 199 542 169 519 q 255 589 228 565 q 300 632 282 613 q 314 640 310 643 q 315 629 318 636 q 306 599 311 618 q 300 556 300 579 q 306 506 300 531 q 322 474 313 482 q 323 464 329 468 q 306 464 317 460 q 283 488 293 469 q 265 528 272 507 q 258 560 258 550 q 237 545 254 557 q 197 517 219 533 q 154 488 175 501 q 124 467 133 474 q 109 463 110 457 q 114 474 108 468 z "},"k":{"ha":460,"x_min":-146,"x_max":518,"o":"m 444 853 q 480 850 460 850 q 518 853 500 850 q 490 815 515 850 q 422 721 464 779 q 329 590 381 663 q 222 441 278 518 q 115 290 167 364 q 22 156 64 217 q -47 57 -21 96 q -78 11 -74 18 q -146 8 -106 21 q -121 44 -146 8 q -53 140 -96 79 q 41 275 -11 200 q 149 431 93 350 q 258 586 206 511 q 352 722 310 661 q 419 817 394 782 q 444 853 444 853 m 408 317 q 384 325 394 317 q 374 347 374 333 q 384 369 374 363 q 394 376 394 376 q 383 381 392 381 q 368 382 375 382 q 317 358 342 382 q 265 301 292 333 q 208 244 239 268 q 138 219 178 219 q 110 223 121 219 q 100 238 100 226 q 117 255 100 249 q 151 261 135 261 q 210 249 185 261 q 250 220 236 238 q 264 183 264 203 q 249 130 264 154 q 217 86 235 106 q 184 52 199 67 q 169 29 169 38 q 176 19 169 22 q 200 15 183 15 q 263 34 229 15 q 333 83 297 53 q 401 149 368 114 q 461 218 435 185 l 472 208 q 385 117 433 165 q 288 34 338 68 q 190 0 238 0 q 151 10 167 0 q 135 49 135 21 q 149 99 135 75 q 181 145 163 124 q 213 182 199 167 q 226 206 226 197 q 208 231 226 225 q 170 235 190 236 q 143 235 150 235 q 124 235 133 235 q 114 238 114 235 q 126 242 114 242 q 143 242 138 242 q 208 265 181 242 q 262 320 236 289 q 316 375 288 351 q 385 399 344 399 q 426 387 410 399 q 443 354 443 375 q 431 327 443 338 q 408 317 419 317 z "},"ķ":{"ha":460,"x_min":-146,"x_max":518,"o":"m 444 853 q 480 850 460 850 q 518 853 500 850 q 490 815 515 850 q 422 721 464 779 q 329 590 381 663 q 222 441 278 518 q 115 290 167 364 q 22 156 64 217 q -47 57 -21 96 q -78 11 -74 18 q -146 8 -106 21 q -121 44 -146 8 q -53 140 -96 79 q 41 275 -11 200 q 149 431 93 350 q 258 586 206 511 q 352 722 310 661 q 419 817 394 782 q 444 853 444 853 m 408 317 q 384 325 394 317 q 374 347 374 333 q 384 369 374 363 q 394 376 394 376 q 383 381 392 381 q 368 382 375 382 q 317 358 342 382 q 265 301 292 333 q 208 244 239 268 q 138 219 178 219 q 110 223 121 219 q 100 238 100 226 q 117 255 100 249 q 151 261 135 261 q 210 249 185 261 q 250 220 236 238 q 264 183 264 203 q 249 130 264 154 q 217 86 235 106 q 184 52 199 67 q 169 29 169 38 q 176 19 169 22 q 200 15 183 15 q 263 34 229 15 q 333 83 297 53 q 401 149 368 114 q 461 218 435 185 l 472 208 q 385 117 433 165 q 288 34 338 68 q 190 0 238 0 q 151 10 167 0 q 135 49 135 21 q 149 99 135 75 q 181 145 163 124 q 213 182 199 167 q 226 206 226 197 q 208 231 226 225 q 170 235 190 236 q 143 235 150 235 q 124 235 133 235 q 114 238 114 235 q 126 242 114 242 q 143 242 138 242 q 208 265 181 242 q 262 320 236 289 q 316 375 288 351 q 385 399 344 399 q 426 387 410 399 q 443 354 443 375 q 431 327 443 338 q 408 317 419 317 m -108 -193 q -59 -163 -79 -181 q -26 -120 -39 -146 q -10 -60 -14 -94 q 0 -35 -8 -50 q 31 -21 8 -21 q 47 -28 40 -21 q 53 -53 53 -35 q 37 -95 53 -71 q -3 -143 21 -119 q -55 -184 -28 -167 q -103 -206 -82 -201 q -115 -202 -112 -207 q -108 -193 -118 -197 z "},"ĸ":{"ha":460,"x_min":-146,"x_max":472,"o":"m 129 400 q 161 397 144 397 q 196 400 178 397 q 173 369 193 396 q 124 301 153 342 q 61 214 94 260 q -2 126 28 168 q -52 52 -32 83 q -78 11 -72 21 q -146 8 -106 21 q -126 37 -146 8 q -74 110 -106 65 q -8 204 -43 154 q 58 299 26 254 q 109 372 89 343 q 129 400 129 400 m 408 317 q 384 325 394 317 q 374 347 374 333 q 384 369 374 363 q 394 376 394 376 q 383 381 392 381 q 368 382 375 382 q 317 358 342 382 q 265 301 292 333 q 208 244 239 268 q 138 219 178 219 q 110 223 121 219 q 100 238 100 226 q 117 255 100 249 q 151 261 135 261 q 210 249 185 261 q 250 220 236 238 q 264 183 264 203 q 249 130 264 154 q 217 86 235 106 q 184 52 199 67 q 169 29 169 38 q 176 19 169 22 q 200 15 183 15 q 263 34 229 15 q 333 83 297 53 q 401 149 368 114 q 461 218 435 185 l 472 208 q 385 117 433 165 q 288 34 338 68 q 190 0 238 0 q 151 10 167 0 q 135 49 135 21 q 149 99 135 75 q 181 145 163 124 q 213 182 199 167 q 226 206 226 197 q 208 231 226 225 q 170 235 190 236 q 143 235 150 235 q 124 235 133 235 q 114 238 114 235 q 126 242 114 242 q 143 242 138 242 q 208 265 181 242 q 262 320 236 289 q 316 375 288 351 q 385 399 344 399 q 426 387 410 399 q 443 354 443 375 q 431 327 443 338 q 408 317 419 317 z "},"l":{"ha":244,"x_min":-92,"x_max":519,"o":"m 444 854 q 483 851 460 851 q 519 854 506 851 l 36 181 q -7 118 14 147 q -41 67 -28 89 q -54 33 -54 46 q -47 19 -54 24 q -25 15 -39 15 q 46 38 7 15 q 123 96 85 61 q 194 164 161 131 q 246 218 226 197 l 256 210 q 206 156 238 190 q 133 85 174 121 q 48 25 92 50 q -37 0 4 0 q -76 13 -60 0 q -92 49 -92 25 q -81 88 -92 64 q -53 137 -69 111 q -23 184 -37 163 q 0 217 -8 206 l 444 854 z "},"ŀ":{"ha":244,"x_min":-92,"x_max":519,"o":"m 444 854 q 483 851 460 851 q 519 854 506 851 l 36 181 q -7 118 14 147 q -41 67 -28 89 q -54 33 -54 46 q -47 19 -54 24 q -25 15 -39 15 q 46 38 7 15 q 123 96 85 61 q 194 164 161 131 q 246 218 226 197 l 256 210 q 206 156 238 190 q 133 85 174 121 q 48 25 92 50 q -37 0 4 0 q -76 13 -60 0 q -92 49 -92 25 q -81 88 -92 64 q -53 137 -69 111 q -23 184 -37 163 q 0 217 -8 206 l 444 854 m 310 410 q 289 419 296 410 q 285 442 282 428 q 299 463 288 454 q 324 472 310 472 q 343 463 336 472 q 347 442 350 454 q 333 419 344 428 q 310 410 322 410 z "},"ł":{"ha":244,"x_min":-92,"x_max":519,"o":"m 444 854 q 483 851 460 851 q 519 854 506 851 l 36 181 q -7 118 14 147 q -41 67 -28 89 q -54 33 -54 46 q -47 19 -54 24 q -25 15 -39 15 q 46 38 7 15 q 123 96 85 61 q 194 164 161 131 q 246 218 226 197 l 256 210 q 206 156 238 190 q 133 85 174 121 q 48 25 92 50 q -37 0 4 0 q -76 13 -60 0 q -92 49 -92 25 q -81 88 -92 64 q -53 137 -69 111 q -23 184 -37 163 q 0 217 -8 206 l 444 854 m 24 367 q 36 394 33 382 l 414 578 q 408 564 411 572 q 404 550 404 556 l 24 367 z "},"m":{"ha":767,"x_min":-64,"x_max":782,"o":"m 510 0 q 461 13 479 0 q 443 44 443 25 q 463 101 443 69 q 510 167 482 132 q 567 234 539 201 q 615 293 596 267 q 635 336 635 319 q 629 351 635 347 q 610 356 624 356 q 555 334 589 356 q 480 276 521 313 q 397 194 439 239 q 315 101 354 149 q 249 13 276 54 q 211 17 232 18 q 167 11 190 15 q 240 101 199 51 q 318 197 281 150 q 381 283 356 244 q 406 339 406 321 q 398 352 406 349 q 376 356 390 356 q 301 321 347 356 q 204 233 256 286 q 103 120 153 179 q 17 13 54 61 q -17 17 3 17 q -64 11 -36 18 q 38 156 -12 88 q 123 275 89 225 q 157 342 157 325 q 155 348 157 346 q 149 350 153 350 q 110 324 135 350 q 60 264 86 297 q 13 207 33 231 l 0 215 q 33 256 14 231 q 76 308 53 282 q 122 351 99 333 q 168 369 146 369 q 197 360 185 369 q 208 338 208 351 q 197 298 208 319 q 167 249 186 276 q 123 190 147 222 q 72 119 99 158 l 75 114 q 133 178 103 143 q 194 246 163 213 q 258 307 226 279 q 324 351 290 335 q 389 368 357 368 q 435 351 422 368 q 447 319 447 335 q 439 275 447 297 q 418 233 431 253 q 393 197 406 213 q 371 171 381 181 q 360 158 361 161 l 351 165 q 382 199 361 175 q 431 251 403 222 q 492 306 460 279 q 556 351 524 333 q 617 368 588 368 q 665 351 651 368 q 678 319 678 333 q 658 252 678 289 q 610 178 639 215 q 551 110 581 142 q 503 56 522 78 q 483 29 483 35 q 513 17 483 17 q 588 40 550 17 q 661 98 626 64 q 724 166 696 132 q 771 219 753 200 l 782 211 q 735 158 765 193 q 668 87 706 124 q 590 25 631 50 q 510 0 550 0 z "},"n":{"ha":554,"x_min":-65,"x_max":568,"o":"m 293 0 q 219 43 219 0 q 238 103 219 71 q 285 167 257 135 q 341 232 313 200 q 388 291 369 264 q 407 338 407 318 q 401 349 407 344 q 383 354 394 354 q 337 338 367 354 q 262 281 307 321 q 156 176 217 242 q 15 11 94 110 q -22 14 3 14 q -65 8 -47 14 q 14 122 -25 67 q 85 224 53 178 q 138 299 118 269 q 157 336 157 329 q 144 349 157 349 q 110 327 131 349 q 64 273 89 306 q 13 207 39 240 l 0 215 q 54 282 28 247 q 108 342 81 317 q 167 367 136 367 q 195 359 182 367 q 208 335 208 351 q 197 298 208 319 q 165 249 185 276 q 122 190 146 222 q 71 119 97 157 l 72 111 q 197 242 146 192 q 281 319 247 292 q 341 356 315 346 q 390 367 367 367 q 436 353 422 367 q 450 318 450 340 q 431 248 450 285 q 383 176 411 211 q 326 110 354 140 q 278 60 297 81 q 258 32 258 39 q 263 19 258 24 q 289 15 268 15 q 387 47 340 15 q 476 126 433 79 q 557 218 519 172 l 568 208 q 486 115 531 164 q 393 33 442 67 q 293 0 344 0 z "},"ń":{"ha":554,"x_min":-65,"x_max":568,"o":"m 293 0 q 219 43 219 0 q 238 103 219 71 q 285 167 257 135 q 341 232 313 200 q 388 291 369 264 q 407 338 407 318 q 401 349 407 344 q 383 354 394 354 q 337 338 367 354 q 262 281 307 321 q 156 176 217 242 q 15 11 94 110 q -22 14 3 14 q -65 8 -47 14 q 14 122 -25 67 q 85 224 53 178 q 138 299 118 269 q 157 336 157 329 q 144 349 157 349 q 110 327 131 349 q 64 273 89 306 q 13 207 39 240 l 0 215 q 54 282 28 247 q 108 342 81 317 q 167 367 136 367 q 195 359 182 367 q 208 335 208 351 q 197 298 208 319 q 165 249 185 276 q 122 190 146 222 q 71 119 97 157 l 72 111 q 197 242 146 192 q 281 319 247 292 q 341 356 315 346 q 390 367 367 367 q 436 353 422 367 q 450 318 450 340 q 431 248 450 285 q 383 176 411 211 q 326 110 354 140 q 278 60 297 81 q 258 32 258 39 q 263 19 258 24 q 289 15 268 15 q 387 47 340 15 q 476 126 433 79 q 557 218 519 172 l 568 208 q 486 115 531 164 q 393 33 442 67 q 293 0 344 0 m 404 422 q 392 422 394 417 q 399 433 389 428 q 462 488 442 457 q 486 546 482 519 q 496 574 489 564 q 517 583 503 583 q 533 576 526 583 q 539 551 539 569 q 518 511 539 535 q 466 464 497 488 q 404 422 435 440 z "},"ñ":{"ha":554,"x_min":-65,"x_max":568,"o":"m 293 0 q 219 43 219 0 q 238 103 219 71 q 285 167 257 135 q 341 232 313 200 q 388 291 369 264 q 407 338 407 318 q 401 349 407 344 q 383 354 394 354 q 337 338 367 354 q 262 281 307 321 q 156 176 217 242 q 15 11 94 110 q -22 14 3 14 q -65 8 -47 14 q 14 122 -25 67 q 85 224 53 178 q 138 299 118 269 q 157 336 157 329 q 144 349 157 349 q 110 327 131 349 q 64 273 89 306 q 13 207 39 240 l 0 215 q 54 282 28 247 q 108 342 81 317 q 167 367 136 367 q 195 359 182 367 q 208 335 208 351 q 197 298 208 319 q 165 249 185 276 q 122 190 146 222 q 71 119 97 157 l 72 111 q 197 242 146 192 q 281 319 247 292 q 341 356 315 346 q 390 367 367 367 q 436 353 422 367 q 450 318 450 340 q 431 248 450 285 q 383 176 411 211 q 326 110 354 140 q 278 60 297 81 q 258 32 258 39 q 263 19 258 24 q 289 15 268 15 q 387 47 340 15 q 476 126 433 79 q 557 218 519 172 l 568 208 q 486 115 531 164 q 393 33 442 67 q 293 0 344 0 m 451 436 q 410 448 429 436 q 374 471 390 460 q 340 482 357 482 q 308 470 321 482 q 290 443 296 458 q 278 433 286 429 q 274 450 271 436 q 290 477 276 460 q 323 508 303 494 q 364 522 343 522 q 400 511 382 522 q 437 488 418 500 q 472 476 456 476 q 506 493 493 476 q 522 519 518 510 q 533 526 526 529 q 538 514 540 524 q 521 484 535 503 q 488 451 507 465 q 451 436 469 436 z "},"o":{"ha":408,"x_min":-50,"x_max":421,"o":"m 240 367 q 310 300 310 367 q 286 195 310 249 q 222 98 263 142 q 135 27 182 54 q 39 0 88 0 q -24 19 1 0 q -50 81 -50 38 q -26 170 -50 121 q 38 264 -3 219 q 131 338 79 308 q 240 367 183 367 m 256 347 q 200 326 232 347 q 135 272 168 306 q 73 201 101 239 q 27 126 44 163 q 10 65 10 90 q 25 27 10 38 q 60 17 40 17 q 132 44 92 17 q 210 113 172 71 q 272 201 247 154 q 296 286 296 247 q 283 335 296 322 q 256 347 271 347 m 281 204 q 287 199 288 204 q 279 194 286 194 q 263 180 274 194 q 244 150 253 165 q 236 133 236 135 q 260 101 236 101 q 310 122 282 101 q 366 170 339 143 q 410 218 393 197 l 421 208 q 375 159 403 188 q 317 109 347 131 q 260 88 286 88 q 229 97 238 88 q 221 132 221 107 q 244 185 221 165 q 281 204 267 204 z "},"ó":{"ha":408,"x_min":-50,"x_max":464,"o":"m 240 367 q 310 300 310 367 q 286 195 310 249 q 222 98 263 142 q 135 27 182 54 q 39 0 88 0 q -24 19 1 0 q -50 81 -50 38 q -26 170 -50 121 q 38 264 -3 219 q 131 338 79 308 q 240 367 183 367 m 256 347 q 200 326 232 347 q 135 272 168 306 q 73 201 101 239 q 27 126 44 163 q 10 65 10 90 q 25 27 10 38 q 60 17 40 17 q 132 44 92 17 q 210 113 172 71 q 272 201 247 154 q 296 286 296 247 q 283 335 296 322 q 256 347 271 347 m 281 204 q 287 199 288 204 q 279 194 286 194 q 263 180 274 194 q 244 150 253 165 q 236 133 236 135 q 260 101 236 101 q 310 122 282 101 q 366 170 339 143 q 410 218 393 197 l 421 208 q 375 159 403 188 q 317 109 347 131 q 260 88 286 88 q 229 97 238 88 q 221 132 221 107 q 244 185 221 165 q 281 204 267 204 m 324 472 q 387 527 367 496 q 411 585 407 558 q 421 613 414 603 q 442 622 428 622 q 458 615 451 622 q 464 590 464 608 q 443 550 464 574 q 391 503 422 526 q 329 461 360 479 q 317 461 319 456 q 324 472 314 467 z "},"ô":{"ha":408,"x_min":-50,"x_max":433,"o":"m 240 367 q 310 300 310 367 q 286 195 310 249 q 222 98 263 142 q 135 27 182 54 q 39 0 88 0 q -24 19 1 0 q -50 81 -50 38 q -26 170 -50 121 q 38 264 -3 219 q 131 338 79 308 q 240 367 183 367 m 256 347 q 200 326 232 347 q 135 272 168 306 q 73 201 101 239 q 27 126 44 163 q 10 65 10 90 q 25 27 10 38 q 60 17 40 17 q 132 44 92 17 q 210 113 172 71 q 272 201 247 154 q 296 286 296 247 q 283 335 296 322 q 256 347 271 347 m 281 204 q 287 199 288 204 q 279 194 286 194 q 263 180 274 194 q 244 150 253 165 q 236 133 236 135 q 260 101 236 101 q 310 122 282 101 q 366 170 339 143 q 410 218 393 197 l 421 208 q 375 159 403 188 q 317 109 347 131 q 260 88 286 88 q 229 97 238 88 q 221 132 221 107 q 244 185 221 165 q 281 204 267 204 m 218 474 q 250 501 226 482 q 303 542 274 519 q 359 589 332 565 q 404 632 386 613 q 418 640 414 643 q 419 629 422 636 q 410 599 415 618 q 404 556 404 579 q 410 506 404 531 q 426 474 417 482 q 427 464 433 468 q 410 464 421 460 q 387 488 397 469 q 369 528 376 507 q 363 560 363 550 q 341 545 358 557 q 301 517 324 533 q 258 488 279 501 q 228 467 238 474 q 213 463 214 457 q 218 474 213 468 z "},"ö":{"ha":408,"x_min":-50,"x_max":467,"o":"m 39 0 q -24 19 1 0 q -50 81 -50 38 q -26 170 -50 121 q 38 264 -3 219 q 131 338 79 308 q 240 367 183 367 q 310 300 310 367 q 286 195 310 249 q 222 98 263 142 q 135 27 182 54 q 39 0 88 0 m 60 17 q 132 44 92 17 q 210 113 172 71 q 272 201 247 154 q 296 286 296 247 q 283 335 296 322 q 256 347 271 347 q 200 326 232 347 q 135 272 168 306 q 73 201 101 239 q 27 126 44 163 q 10 65 10 90 q 25 27 10 38 q 60 17 40 17 m 260 88 q 229 97 238 88 q 221 132 221 107 q 244 185 221 165 q 281 204 267 204 q 287 199 288 204 q 279 194 286 194 q 263 180 274 194 q 244 150 253 165 q 236 133 236 135 q 260 101 236 101 q 310 122 282 101 q 366 170 339 143 q 410 218 393 197 l 421 208 q 375 159 403 188 q 317 109 347 131 q 260 88 286 88 m 250 504 q 225 515 233 504 q 217 539 217 525 q 233 571 217 554 q 268 588 250 588 q 296 577 288 588 q 304 557 304 567 q 288 520 304 536 q 250 504 271 504 m 413 504 q 388 515 396 504 q 379 539 379 525 q 396 571 379 554 q 431 588 413 588 q 458 577 450 588 q 467 557 467 567 q 450 520 467 536 q 413 504 433 504 z "},"ò":{"ha":408,"x_min":-50,"x_max":421,"o":"m 240 367 q 310 300 310 367 q 286 195 310 249 q 222 98 263 142 q 135 27 182 54 q 39 0 88 0 q -24 19 1 0 q -50 81 -50 38 q -26 170 -50 121 q 38 264 -3 219 q 131 338 79 308 q 240 367 183 367 m 256 347 q 200 326 232 347 q 135 272 168 306 q 73 201 101 239 q 27 126 44 163 q 10 65 10 90 q 25 27 10 38 q 60 17 40 17 q 132 44 92 17 q 210 113 172 71 q 272 201 247 154 q 296 286 296 247 q 283 335 296 322 q 256 347 271 347 m 281 204 q 287 199 288 204 q 279 194 286 194 q 263 180 274 194 q 244 150 253 165 q 236 133 236 135 q 260 101 236 101 q 310 122 282 101 q 366 170 339 143 q 410 218 393 197 l 421 208 q 375 159 403 188 q 317 109 347 131 q 260 88 286 88 q 229 97 238 88 q 221 132 221 107 q 244 185 221 165 q 281 204 267 204 m 194 597 q 200 615 194 604 q 215 625 206 625 q 240 615 233 625 q 249 589 246 604 q 280 517 258 542 q 336 474 301 493 q 344 463 347 468 q 333 460 342 457 q 298 478 321 464 q 251 514 275 493 q 211 556 228 535 q 194 597 194 578 z "},"ø":{"ha":408,"x_min":-56,"x_max":421,"o":"m 240 367 q 310 300 310 367 q 286 195 310 249 q 222 98 263 142 q 135 27 182 54 q 39 0 88 0 q -24 19 1 0 q -50 81 -50 38 q -26 170 -50 121 q 38 264 -3 219 q 131 338 79 308 q 240 367 183 367 m 256 347 q 200 326 232 347 q 135 272 168 306 q 73 201 101 239 q 27 126 44 163 q 10 65 10 90 q 25 27 10 38 q 60 17 40 17 q 132 44 92 17 q 210 113 172 71 q 272 201 247 154 q 296 286 296 247 q 283 335 296 322 q 256 347 271 347 m 281 204 q 287 199 288 204 q 279 194 286 194 q 263 180 274 194 q 244 150 253 165 q 236 133 236 135 q 260 101 236 101 q 310 122 282 101 q 366 170 339 143 q 410 218 393 197 l 421 208 q 375 159 403 188 q 317 109 347 131 q 260 88 286 88 q 229 97 238 88 q 221 132 221 107 q 244 185 221 165 q 281 204 267 204 m 364 471 q 376 469 371 469 q 386 469 381 468 l -35 -90 q -56 -90 -43 -87 l 364 471 z "},"õ":{"ha":408,"x_min":-50,"x_max":469,"o":"m 240 367 q 310 300 310 367 q 286 195 310 249 q 222 98 263 142 q 135 27 182 54 q 39 0 88 0 q -24 19 1 0 q -50 81 -50 38 q -26 170 -50 121 q 38 264 -3 219 q 131 338 79 308 q 240 367 183 367 m 256 347 q 200 326 232 347 q 135 272 168 306 q 73 201 101 239 q 27 126 44 163 q 10 65 10 90 q 25 27 10 38 q 60 17 40 17 q 132 44 92 17 q 210 113 172 71 q 272 201 247 154 q 296 286 296 247 q 283 335 296 322 q 256 347 271 347 m 281 204 q 287 199 288 204 q 279 194 286 194 q 263 180 274 194 q 244 150 253 165 q 236 133 236 135 q 260 101 236 101 q 310 122 282 101 q 366 170 339 143 q 410 218 393 197 l 421 208 q 375 159 403 188 q 317 109 347 131 q 260 88 286 88 q 229 97 238 88 q 221 132 221 107 q 244 185 221 165 q 281 204 267 204 m 203 490 q 219 517 206 500 q 252 549 232 535 q 293 563 272 563 q 329 551 311 563 q 366 528 347 540 q 401 517 385 517 q 435 533 422 517 q 451 560 447 550 q 463 567 456 569 q 467 554 469 564 q 450 524 464 543 q 417 491 436 506 q 381 476 399 476 q 339 488 358 476 q 303 511 319 500 q 269 522 286 522 q 238 510 250 522 q 219 483 225 499 q 208 473 215 469 q 203 490 200 476 z "},"œ":{"ha":651,"x_min":-50,"x_max":664,"o":"m 349 0 q 263 30 283 0 q 242 93 242 60 q 271 199 242 150 q 346 288 300 249 q 441 348 392 326 q 529 369 490 369 q 574 362 557 369 q 590 331 590 354 q 564 283 590 308 q 497 235 538 258 q 413 194 457 213 q 333 164 369 175 q 281 153 297 153 q 281 160 281 153 q 281 168 281 168 q 324 176 293 167 q 394 202 356 186 q 470 239 433 218 q 531 283 507 260 q 556 329 556 307 q 549 349 556 340 q 528 357 543 357 q 474 335 506 357 q 411 279 443 314 q 351 206 379 244 q 306 131 324 167 q 289 72 289 96 q 306 31 289 44 q 354 17 322 17 q 459 44 410 17 q 549 108 508 71 q 617 177 589 144 q 654 219 644 210 q 659 215 654 219 q 664 211 664 211 q 626 167 654 200 q 557 94 599 133 q 463 28 515 56 q 349 0 410 0 m 39 0 q -24 19 1 0 q -50 81 -50 38 q -26 170 -50 121 q 38 264 -3 219 q 131 338 79 308 q 240 367 183 367 q 310 300 310 367 q 286 195 310 249 q 222 98 263 142 q 135 27 182 54 q 39 0 88 0 m 60 17 q 132 44 92 17 q 210 113 172 71 q 272 201 247 154 q 296 286 296 247 q 283 335 296 322 q 256 347 271 347 q 200 326 232 347 q 135 272 168 306 q 73 201 101 239 q 27 126 44 163 q 10 65 10 90 q 25 27 10 38 q 60 17 40 17 z "},"p":{"ha":460,"x_min":-426,"x_max":472,"o":"m 228 522 q 269 519 244 519 q 310 524 293 519 q 284 491 301 513 q 243 441 267 469 q 194 381 219 413 q 141 315 168 349 q 89 249 114 281 q 44 190 64 218 q 10 143 24 163 l 14 139 q 80 199 49 169 q 140 253 111 228 q 197 299 169 278 q 251 335 225 319 q 302 358 278 350 q 350 367 326 367 q 396 354 386 367 q 406 322 406 342 q 381 248 406 283 q 319 181 356 213 q 247 122 283 149 q 185 74 210 96 q 160 39 160 53 q 169 19 160 25 q 193 14 179 14 q 283 46 236 14 q 376 124 331 78 q 460 217 422 171 l 472 208 q 387 115 433 164 q 291 33 340 67 q 194 0 242 0 q 144 17 156 0 q 132 50 132 35 q 157 124 132 89 q 218 189 182 158 q 290 246 254 219 q 351 294 326 272 q 376 335 376 317 q 371 348 376 343 q 350 353 365 353 q 274 330 317 353 q 184 271 231 307 q 92 193 138 235 q 9 111 47 151 q -55 42 -29 71 q -90 3 -81 13 q -118 -35 -97 -6 q -166 -105 -139 -64 q -222 -190 -193 -146 q -277 -274 -251 -235 q -319 -340 -303 -314 q -337 -372 -335 -367 q -362 -378 -343 -376 q -401 -378 -382 -379 q -426 -372 -419 -376 q -397 -333 -425 -369 q -325 -234 -369 -296 q -224 -95 -281 -172 q -108 64 -168 -18 q 8 224 -49 146 q 113 367 65 303 q 192 473 161 432 q 228 522 222 514 z "},"þ":{"ha":456,"x_min":-465,"x_max":579,"o":"m 497 844 q 538 842 514 842 q 579 846 563 842 q 545 805 571 836 q 481 727 519 774 q 397 624 443 681 q 301 509 350 568 q 203 392 251 450 q 115 283 156 333 q 46 197 75 233 q 6 143 17 160 l 10 139 q 76 199 44 169 q 136 253 107 228 q 193 299 165 278 q 247 335 221 319 q 298 358 274 350 q 346 367 322 367 q 392 354 382 367 q 401 322 401 342 q 376 248 401 283 q 315 181 351 213 q 242 122 279 149 q 181 74 206 96 q 156 39 156 53 q 165 19 156 25 q 189 14 175 14 q 279 46 232 14 q 372 124 326 78 q 456 217 418 171 l 468 208 q 383 115 429 164 q 287 33 336 67 q 190 0 238 0 q 140 17 151 0 q 128 50 128 35 q 153 124 128 89 q 214 189 178 158 q 286 246 250 219 q 347 294 322 272 q 372 335 372 317 q 367 348 372 343 q 346 353 361 353 q 269 330 313 353 q 180 271 226 307 q 88 193 133 235 q 5 111 43 151 q -59 42 -33 71 q -94 3 -85 13 q -124 -35 -101 -6 q -178 -105 -147 -64 q -244 -190 -210 -146 q -307 -274 -278 -235 q -355 -340 -336 -314 q -376 -372 -374 -367 q -401 -378 -382 -376 q -440 -378 -421 -379 q -465 -372 -458 -376 q -431 -329 -464 -369 q -344 -219 -399 -289 q -219 -61 -289 -150 q -71 126 -149 28 q 85 324 7 225 q 235 514 164 424 q 364 676 307 604 q 456 793 421 749 q 497 844 492 838 z "},"q":{"ha":496,"x_min":-158,"x_max":508,"o":"m 256 361 q 298 351 275 361 q 321 300 321 340 q 300 241 321 278 q 245 163 279 204 q 169 84 211 121 q 83 24 126 47 q 0 0 39 0 q -61 72 -61 0 q -33 169 -61 119 q 43 263 -4 219 q 146 334 90 307 q 256 361 201 361 m 269 343 q 210 322 246 343 q 135 266 175 300 q 61 191 96 232 q 5 111 26 150 q -17 42 -17 72 q -9 22 -17 26 q 17 17 -1 17 q 78 36 42 17 q 155 88 115 56 q 230 160 194 121 q 287 239 265 199 q 308 314 308 279 q 292 339 308 335 q 269 343 276 343 m 376 349 q 413 345 392 344 q 447 346 435 346 q 421 313 446 343 q 356 235 396 283 q 267 130 315 188 q 169 15 218 72 q 78 -94 121 -43 q 8 -178 36 -144 q -26 -221 -19 -212 q -48 -248 -31 -226 q -87 -297 -65 -269 q -126 -351 -110 -325 q -142 -389 -142 -376 q -136 -404 -142 -400 q -121 -408 -131 -408 q -49 -373 -90 -408 q 36 -281 -7 -337 q 117 -162 79 -225 q 178 -45 154 -100 q 201 42 201 10 q 198 63 201 54 q 189 79 194 72 q 188 88 183 86 q 199 86 193 89 q 210 74 206 83 q 215 46 215 65 q 195 -58 215 3 q 140 -181 175 -118 q 60 -298 104 -243 q -30 -386 17 -353 q -121 -419 -76 -419 q -148 -410 -137 -419 q -158 -378 -158 -401 q -144 -314 -158 -349 q -110 -246 -129 -279 q -74 -188 -90 -212 q -51 -158 -57 -164 q 59 -31 10 -86 q 156 76 108 24 q 256 193 203 129 q 376 349 308 257 m 254 158 q 263 158 263 158 q 274 158 264 158 q 248 131 261 146 q 225 98 235 115 q 215 63 215 81 q 225 27 215 40 q 261 14 235 14 q 324 40 289 14 q 394 101 360 65 q 457 170 429 138 q 497 218 485 203 l 508 208 q 469 161 496 194 q 406 90 442 128 q 333 26 371 53 q 260 0 294 0 q 200 63 200 0 q 208 102 200 86 q 229 131 217 118 q 254 158 242 144 z "},"r":{"ha":365,"x_min":-11,"x_max":378,"o":"m 0 194 q -8 194 -6 189 q -10 204 -11 199 q 37 260 14 228 q 76 319 60 292 q 94 357 92 347 q 103 361 97 357 q 115 364 110 365 q 112 346 114 354 q 121 331 110 338 q 167 317 132 324 q 272 301 201 310 q 283 297 279 300 q 278 286 286 293 q 219 233 251 265 q 158 166 188 201 q 109 97 128 131 q 90 42 90 64 q 113 17 90 17 q 176 39 140 17 q 247 94 211 61 q 315 160 283 126 q 367 217 346 194 l 378 208 q 328 154 358 189 q 259 84 297 119 q 178 24 221 49 q 89 0 135 0 q 42 12 63 0 q 21 54 21 24 q 46 115 21 83 q 108 180 71 147 q 187 242 146 213 q 260 297 228 272 l 269 285 q 221 295 256 290 q 149 309 186 300 q 84 333 111 318 q 57 375 57 349 q 69 409 57 389 q 101 429 81 429 q 128 422 121 429 q 135 401 135 414 q 121 367 135 393 q 86 308 107 342 q 42 243 65 274 q 0 194 19 213 z "},"ŕ":{"ha":365,"x_min":-11,"x_max":378,"o":"m 231 435 q 294 490 274 458 q 318 547 314 521 q 328 575 321 565 q 349 585 335 585 q 365 578 358 585 q 371 553 371 571 q 350 513 371 536 q 298 465 329 489 q 236 424 267 442 q 224 424 226 418 q 231 435 221 429 m 0 194 q -8 194 -6 189 q -10 204 -11 199 q 37 260 14 228 q 76 319 60 292 q 94 357 92 347 q 103 361 97 357 q 115 364 110 365 q 112 346 114 354 q 121 331 110 338 q 167 317 132 324 q 272 301 201 310 q 283 297 279 300 q 278 286 286 293 q 219 233 251 265 q 158 166 188 201 q 109 97 128 131 q 90 42 90 64 q 113 17 90 17 q 176 39 140 17 q 247 94 211 61 q 315 160 283 126 q 367 217 346 194 l 378 208 q 328 154 358 189 q 259 84 297 119 q 178 24 221 49 q 89 0 135 0 q 42 12 63 0 q 21 54 21 24 q 46 115 21 83 q 108 180 71 147 q 187 242 146 213 q 260 297 228 272 l 269 285 q 221 295 256 290 q 149 309 186 300 q 84 333 111 318 q 57 375 57 349 q 69 409 57 389 q 101 429 81 429 q 128 422 121 429 q 135 401 135 414 q 121 367 135 393 q 86 308 107 342 q 42 243 65 274 q 0 194 19 213 z "},"ř":{"ha":365,"x_min":-11,"x_max":463,"o":"m 0 194 q -8 194 -6 189 q -10 204 -11 199 q 37 260 14 228 q 76 319 60 292 q 94 357 92 347 q 103 361 97 357 q 115 364 110 365 q 112 346 114 354 q 121 331 110 338 q 167 317 132 324 q 272 301 201 310 q 283 297 279 300 q 278 286 286 293 q 219 233 251 265 q 158 166 188 201 q 109 97 128 131 q 90 42 90 64 q 113 17 90 17 q 176 39 140 17 q 247 94 211 61 q 315 160 283 126 q 367 217 346 194 l 378 208 q 328 154 358 189 q 259 84 297 119 q 178 24 221 49 q 89 0 135 0 q 42 12 63 0 q 21 54 21 24 q 46 115 21 83 q 108 180 71 147 q 187 242 146 213 q 260 297 228 272 l 269 285 q 221 295 256 290 q 149 309 186 300 q 84 333 111 318 q 57 375 57 349 q 69 409 57 389 q 101 429 81 429 q 128 422 121 429 q 135 401 135 414 q 121 367 135 393 q 86 308 107 342 q 42 243 65 274 q 0 194 19 213 m 243 631 q 244 642 238 638 q 260 640 250 647 q 292 602 279 629 q 308 546 306 575 q 334 566 314 551 q 378 597 354 581 q 422 626 403 614 q 444 640 440 639 q 459 639 456 644 q 453 628 463 633 q 415 601 442 622 q 358 555 389 581 q 301 506 326 529 q 268 474 276 483 q 253 467 257 460 q 253 482 249 474 q 266 533 264 503 q 263 590 268 563 q 243 631 257 617 z "},"ŗ":{"ha":365,"x_min":-233,"x_max":378,"o":"m 0 194 q -8 194 -6 189 q -10 204 -11 199 q 37 260 14 228 q 76 319 60 292 q 94 357 92 347 q 103 361 97 357 q 115 364 110 365 q 112 346 114 354 q 121 331 110 338 q 167 317 132 324 q 272 301 201 310 q 283 297 279 300 q 278 286 286 293 q 219 233 251 265 q 158 166 188 201 q 109 97 128 131 q 90 42 90 64 q 113 17 90 17 q 176 39 140 17 q 247 94 211 61 q 315 160 283 126 q 367 217 346 194 l 378 208 q 328 154 358 189 q 259 84 297 119 q 178 24 221 49 q 89 0 135 0 q 42 12 63 0 q 21 54 21 24 q 46 115 21 83 q 108 180 71 147 q 187 242 146 213 q 260 297 228 272 l 269 285 q 221 295 256 290 q 149 309 186 300 q 84 333 111 318 q 57 375 57 349 q 69 409 57 389 q 101 429 81 429 q 128 422 121 429 q 135 401 135 414 q 121 367 135 393 q 86 308 107 342 q 42 243 65 274 q 0 194 19 213 m -224 -193 q -174 -163 -194 -181 q -142 -120 -154 -146 q -125 -60 -129 -94 q -115 -35 -124 -50 q -85 -21 -107 -21 q -69 -28 -75 -21 q -62 -53 -62 -35 q -78 -95 -62 -71 q -119 -143 -94 -119 q -170 -184 -143 -167 q -218 -206 -197 -201 q -231 -202 -228 -207 q -224 -193 -233 -197 z "},"s":{"ha":314,"x_min":-143,"x_max":326,"o":"m -44 -19 q -118 -1 -93 -19 q -143 47 -143 17 q -128 87 -143 69 q -94 115 -114 104 q -64 125 -75 125 q -44 119 -49 125 q -39 106 -39 113 q -52 88 -39 94 q -74 81 -65 81 q -91 87 -83 81 q -99 93 -99 93 q -118 78 -106 92 q -131 47 -131 64 q -112 15 -131 31 q -54 0 -94 0 q 26 28 -12 0 q 89 99 64 56 q 114 186 114 142 q 114 227 114 201 q 114 269 114 253 q 121 317 114 290 q 137 368 128 344 q 151 397 146 392 q 168 403 163 407 q 171 394 174 399 q 153 373 169 393 q 111 324 136 353 q 61 265 86 294 q 17 214 36 236 q -4 188 -1 192 q -17 183 -11 178 q -14 197 -22 189 q 24 244 1 217 q 71 297 47 271 q 112 342 94 324 q 131 364 129 361 q 138 383 135 369 q 148 410 142 397 q 164 422 154 422 q 188 406 188 422 q 169 375 188 393 q 147 346 150 357 q 148 299 143 329 q 159 232 153 269 q 165 153 165 194 q 143 63 165 97 q 88 11 121 29 q 19 -13 54 -7 q -44 -19 -17 -19 m 169 76 q 123 90 133 76 q 116 123 113 104 q 125 157 119 142 l 139 156 q 131 126 135 142 q 135 100 128 111 q 171 89 142 89 q 218 108 192 89 q 270 156 244 128 q 314 210 296 183 l 326 200 q 283 149 308 178 q 228 98 257 119 q 169 76 199 76 z "},"ß":{"ha":547,"x_min":-347,"x_max":653,"o":"m 557 849 q 631 826 608 849 q 653 771 653 803 q 629 700 653 735 q 569 633 606 665 q 493 573 532 600 q 424 526 454 546 q 382 494 393 506 q 351 456 360 472 q 345 419 343 439 q 357 368 347 400 q 383 214 385 278 q 360 108 382 150 q 306 43 338 67 q 240 10 274 19 q 182 0 206 0 q 93 28 118 0 q 68 90 68 56 q 85 139 68 124 q 121 154 103 154 q 150 132 150 154 q 140 109 150 115 q 118 103 129 103 q 101 105 108 103 q 92 108 94 107 q 83 79 83 113 q 107 36 83 57 q 171 15 131 15 q 248 42 218 15 q 294 113 278 69 q 317 207 311 156 q 323 308 324 258 q 317 396 322 357 q 319 443 313 424 q 350 488 325 463 q 385 516 357 494 q 449 569 413 538 q 522 636 486 600 q 581 710 557 672 q 604 783 604 749 q 594 818 604 806 q 557 831 585 831 q 503 807 533 831 q 442 747 474 783 q 381 671 410 711 q 328 596 351 631 q 293 542 306 561 q 252 482 286 532 q 167 357 218 432 q 55 194 115 282 q -66 20 -6 107 q -178 -140 -126 -67 q -264 -260 -231 -214 q -307 -265 -286 -265 q -347 -258 -328 -264 q -277 -168 -319 -225 q -183 -40 -235 -111 q -78 107 -132 31 q 28 256 -24 183 q 122 390 79 329 q 192 492 164 451 q 226 542 219 532 q 264 593 238 557 q 326 672 290 629 q 401 756 361 715 q 482 822 442 796 q 557 849 522 849 m 251 40 q 263 36 257 38 q 276 35 268 35 q 360 56 317 35 q 441 110 403 78 q 508 172 479 142 q 549 219 536 203 l 561 211 q 520 163 549 194 q 452 99 492 132 q 367 44 413 67 q 275 21 321 21 q 253 23 265 21 q 233 29 242 25 l 251 40 z "},"t":{"ha":231,"x_min":-94,"x_max":404,"o":"m 279 613 q 316 608 292 607 q 354 611 340 608 q 256 476 310 550 q 147 330 201 403 q 45 194 92 257 q -29 88 -1 131 q -57 33 -57 44 q -48 21 -57 25 q -25 17 -39 17 q 42 38 6 17 q 116 92 79 60 q 184 159 153 125 q 233 218 215 193 l 244 210 q 193 150 225 185 q 122 81 161 115 q 42 23 83 46 q -36 0 1 0 q -78 10 -62 0 q -94 46 -94 21 q -68 115 -94 68 q 1 222 -42 161 q 93 352 43 283 q 192 488 143 421 q 279 613 242 556 m 126 457 q 113 465 113 457 q 126 472 113 472 l 390 472 q 399 471 394 472 q 404 465 404 469 q 399 458 404 460 q 390 457 394 457 l 126 457 z "},"u":{"ha":475,"x_min":-89,"x_max":488,"o":"m 124 365 q 162 360 136 360 q 206 363 188 360 q 128 273 171 321 q 46 178 85 225 q -19 93 7 131 q -44 35 -44 56 q -37 17 -44 21 q -18 13 -29 13 q 56 39 15 13 q 141 108 97 65 q 226 199 185 150 q 303 291 268 247 q 364 364 339 335 q 403 360 378 360 q 446 363 428 360 q 365 266 410 317 q 280 169 321 215 q 213 87 239 122 q 186 33 186 51 q 194 20 186 25 q 215 15 201 15 q 281 37 246 15 q 352 91 317 58 q 420 158 388 124 q 476 218 453 192 l 488 208 q 433 149 465 185 q 362 80 400 114 q 285 23 324 46 q 211 0 246 0 q 175 11 192 0 q 158 51 158 22 q 171 106 158 78 q 197 156 183 135 q 214 182 211 178 l 224 178 q 184 130 211 160 q 122 70 157 100 q 47 20 86 40 q -29 0 8 0 q -89 63 -89 0 q -67 126 -89 89 q -10 205 -44 163 q 60 289 24 247 q 124 365 96 331 z "},"ú":{"ha":475,"x_min":-89,"x_max":496,"o":"m 124 365 q 162 360 136 360 q 206 363 188 360 q 128 273 171 321 q 46 178 85 225 q -19 93 7 131 q -44 35 -44 56 q -37 17 -44 21 q -18 13 -29 13 q 56 39 15 13 q 141 108 97 65 q 226 199 185 150 q 303 291 268 247 q 364 364 339 335 q 403 360 378 360 q 446 363 428 360 q 365 266 410 317 q 280 169 321 215 q 213 87 239 122 q 186 33 186 51 q 194 20 186 25 q 215 15 201 15 q 281 37 246 15 q 352 91 317 58 q 420 158 388 124 q 476 218 453 192 l 488 208 q 433 149 465 185 q 362 80 400 114 q 285 23 324 46 q 211 0 246 0 q 175 11 192 0 q 158 51 158 22 q 171 106 158 78 q 197 156 183 135 q 214 182 211 178 l 224 178 q 184 130 211 160 q 122 70 157 100 q 47 20 86 40 q -29 0 8 0 q -89 63 -89 0 q -67 126 -89 89 q -10 205 -44 163 q 60 289 24 247 q 124 365 96 331 m 356 474 q 419 528 399 497 q 443 586 439 560 q 453 614 446 604 q 474 624 460 624 q 490 617 483 624 q 496 592 496 610 q 475 551 496 575 q 423 504 454 528 q 361 463 392 481 q 349 463 351 457 q 356 474 346 468 z "},"û":{"ha":475,"x_min":-89,"x_max":488,"o":"m 124 365 q 162 360 136 360 q 206 363 188 360 q 128 273 171 321 q 46 178 85 225 q -19 93 7 131 q -44 35 -44 56 q -37 17 -44 21 q -18 13 -29 13 q 56 39 15 13 q 141 108 97 65 q 226 199 185 150 q 303 291 268 247 q 364 364 339 335 q 403 360 378 360 q 446 363 428 360 q 365 266 410 317 q 280 169 321 215 q 213 87 239 122 q 186 33 186 51 q 194 20 186 25 q 215 15 201 15 q 281 37 246 15 q 352 91 317 58 q 420 158 388 124 q 476 218 453 192 l 488 208 q 433 149 465 185 q 362 80 400 114 q 285 23 324 46 q 211 0 246 0 q 175 11 192 0 q 158 51 158 22 q 171 106 158 78 q 197 156 183 135 q 214 182 211 178 l 224 178 q 184 130 211 160 q 122 70 157 100 q 47 20 86 40 q -29 0 8 0 q -89 63 -89 0 q -67 126 -89 89 q -10 205 -44 163 q 60 289 24 247 q 124 365 96 331 m 244 472 q 276 499 253 481 q 329 541 300 518 q 385 588 358 564 q 431 631 413 611 q 444 638 440 642 q 446 628 449 635 q 436 597 442 617 q 431 554 431 578 q 437 505 431 529 q 453 472 443 481 q 453 463 460 467 q 436 463 447 458 q 413 487 424 468 q 396 527 403 506 q 389 558 389 549 q 367 544 385 556 q 328 516 350 532 q 285 486 306 500 q 254 465 264 472 q 240 461 240 456 q 244 472 239 467 z "},"ü":{"ha":475,"x_min":-89,"x_max":490,"o":"m 124 365 q 162 360 136 360 q 206 363 188 360 q 128 273 171 321 q 46 178 85 225 q -19 93 7 131 q -44 35 -44 56 q -37 17 -44 21 q -18 13 -29 13 q 56 39 15 13 q 141 108 97 65 q 226 199 185 150 q 303 291 268 247 q 364 364 339 335 q 403 360 378 360 q 446 363 428 360 q 365 266 410 317 q 280 169 321 215 q 213 87 239 122 q 186 33 186 51 q 194 20 186 25 q 215 15 201 15 q 281 37 246 15 q 352 91 317 58 q 420 158 388 124 q 476 218 453 192 l 488 208 q 433 149 465 185 q 362 80 400 114 q 285 23 324 46 q 211 0 246 0 q 175 11 192 0 q 158 51 158 22 q 171 106 158 78 q 197 156 183 135 q 214 182 211 178 l 224 178 q 184 130 211 160 q 122 70 157 100 q 47 20 86 40 q -29 0 8 0 q -89 63 -89 0 q -67 126 -89 89 q -10 205 -44 163 q 60 289 24 247 q 124 365 96 331 m 474 519 q 426 505 450 496 q 403 536 403 514 q 418 571 403 558 q 467 585 444 593 q 490 557 490 578 q 485 535 490 544 q 474 519 481 526 m 313 519 q 266 505 289 496 q 243 536 243 514 q 249 556 243 547 q 260 571 254 565 q 305 586 281 592 q 329 557 329 581 q 324 535 329 544 q 313 519 319 526 z "},"ù":{"ha":475,"x_min":-89,"x_max":488,"o":"m 124 365 q 162 360 136 360 q 206 363 188 360 q 128 273 171 321 q 46 178 85 225 q -19 93 7 131 q -44 35 -44 56 q -37 17 -44 21 q -18 13 -29 13 q 56 39 15 13 q 141 108 97 65 q 226 199 185 150 q 303 291 268 247 q 364 364 339 335 q 403 360 378 360 q 446 363 428 360 q 365 266 410 317 q 280 169 321 215 q 213 87 239 122 q 186 33 186 51 q 194 20 186 25 q 215 15 201 15 q 281 37 246 15 q 352 91 317 58 q 420 158 388 124 q 476 218 453 192 l 488 208 q 433 149 465 185 q 362 80 400 114 q 285 23 324 46 q 211 0 246 0 q 175 11 192 0 q 158 51 158 22 q 171 106 158 78 q 197 156 183 135 q 214 182 211 178 l 224 178 q 184 130 211 160 q 122 70 157 100 q 47 20 86 40 q -29 0 8 0 q -89 63 -89 0 q -67 126 -89 89 q -10 205 -44 163 q 60 289 24 247 q 124 365 96 331 m 224 596 q 229 613 224 603 q 244 624 235 624 q 269 613 263 624 q 278 588 275 603 q 309 516 288 540 q 365 472 331 492 q 374 461 376 467 q 363 458 371 456 q 327 477 350 463 q 281 513 304 492 q 240 555 257 533 q 224 596 224 576 z "},"v":{"ha":435,"x_min":-97,"x_max":447,"o":"m 138 364 q 176 360 151 363 q 222 363 200 358 q 165 303 200 339 q 91 229 131 268 q 17 153 51 190 q -39 86 -17 115 q -61 42 -61 57 q -53 21 -61 28 q -24 14 -44 14 q 38 31 -1 14 q 124 75 78 47 q 213 138 169 103 q 285 212 256 174 q 321 288 315 250 q 325 339 325 313 q 338 367 325 354 q 365 381 351 381 q 396 344 396 381 q 365 268 396 313 q 283 177 333 224 q 173 90 232 131 q 58 25 114 50 q -40 0 1 0 q -81 13 -65 0 q -97 49 -97 25 q -75 113 -97 75 q -19 192 -53 150 q 49 271 15 233 q 108 333 83 308 q 138 364 133 358 m 274 188 l 285 179 q 262 153 271 167 q 253 125 253 140 q 279 103 253 103 q 333 124 304 103 q 389 172 361 144 q 436 218 417 200 l 447 210 q 399 160 428 189 q 339 111 371 132 q 279 90 307 90 q 239 124 239 90 q 246 155 239 143 q 274 188 253 167 z "},"w":{"ha":624,"x_min":-93,"x_max":638,"o":"m 374 364 q 410 360 388 363 q 456 363 433 358 q 353 253 404 307 q 261 153 303 200 q 194 75 219 107 q 168 31 168 43 q 173 18 168 21 q 186 15 178 15 q 247 35 208 15 q 332 85 286 54 q 420 153 378 117 q 491 226 463 190 q 525 292 519 263 q 529 343 529 317 q 538 369 529 354 q 569 385 547 385 q 593 376 585 385 q 601 349 601 368 q 569 270 601 315 q 485 178 536 225 q 375 90 433 131 q 265 25 317 50 q 179 0 213 0 q 147 12 153 0 q 140 44 140 24 q 167 122 140 76 q 233 213 194 167 q 311 300 272 260 q 374 364 350 340 m 464 188 l 475 179 q 452 153 461 167 q 443 125 443 140 q 469 103 443 103 q 523 124 494 103 q 579 172 551 144 q 626 218 607 200 l 638 210 q 590 160 618 189 q 529 111 561 132 q 469 90 497 90 q 429 124 429 90 q 436 155 429 143 q 464 188 443 167 m 140 364 q 174 360 149 361 q 222 363 199 358 q 165 301 200 338 q 89 222 129 264 q 13 140 49 179 q -47 69 -24 100 q -69 26 -69 39 q -56 15 -69 15 q 29 47 -24 15 q 142 127 82 78 q 250 232 201 176 q 252 227 250 231 q 249 213 254 224 q 221 179 243 203 q 130 95 181 136 q 30 27 79 54 q -58 0 -19 0 q -93 35 -93 0 q -72 108 -93 67 q -18 191 -50 149 q 48 270 14 233 q 108 333 82 307 q 140 364 133 358 z "},"x":{"ha":483,"x_min":-106,"x_max":496,"o":"m 0 217 q 114 333 71 299 q 204 367 157 367 q 249 347 232 367 q 267 301 267 328 q 254 233 267 267 q 225 166 242 199 q 196 104 208 133 q 183 50 183 75 q 187 28 183 42 q 217 15 190 15 q 308 48 258 15 q 404 128 357 81 q 485 218 451 175 l 496 208 q 436 142 471 178 q 363 74 401 106 q 285 21 324 42 q 213 0 246 0 q 152 26 169 0 q 135 78 135 53 q 148 146 135 111 q 178 213 161 181 q 208 272 194 246 q 221 317 221 299 q 214 343 221 336 q 193 350 207 350 q 121 319 161 350 q 11 207 81 288 q 0 217 6 208 m -72 53 q -49 45 -56 53 q -17 38 -43 38 q 38 57 8 38 q 98 109 68 76 q 155 181 128 142 q 201 258 182 219 q 206 241 201 258 q 215 206 211 224 q 219 189 219 189 q 259 247 235 217 q 313 305 283 278 q 374 349 342 332 q 436 367 406 367 q 479 355 468 367 q 490 329 490 343 q 482 307 490 318 q 457 296 474 296 q 433 306 440 296 q 422 326 425 315 q 419 340 419 338 q 365 324 393 340 q 308 279 336 307 q 256 216 281 251 q 214 144 232 181 q 204 156 214 144 q 185 178 194 167 q 175 189 175 189 q 97 83 139 125 q 13 20 54 40 q -62 0 -28 0 q -98 10 -90 0 q -106 28 -106 19 q -97 44 -106 35 q -72 53 -87 53 z "},"y":{"ha":488,"x_min":-354,"x_max":499,"o":"m 139 365 q 179 360 158 360 q 222 363 200 361 q 138 277 185 326 q 49 178 92 228 q -21 91 7 129 q -49 39 -49 53 q -42 22 -49 29 q -18 14 -35 14 q 83 43 31 14 q 184 117 135 72 q 276 212 233 163 q 352 302 319 261 q 400 363 385 343 q 437 360 411 360 q 472 361 463 360 q 222 45 329 189 q 28 -202 114 -99 q -137 -362 -58 -306 q -301 -419 -215 -419 q -354 -378 -354 -419 q -316 -314 -354 -347 q -214 -245 -278 -281 q -72 -175 -150 -210 q 86 -108 6 -140 q 260 -17 192 -65 q 381 90 329 32 q 488 218 433 149 l 499 211 q 389 81 443 140 q 265 -28 335 22 q 90 -121 196 -78 q -65 -187 11 -153 q -202 -253 -140 -221 q -301 -318 -264 -286 q -337 -378 -337 -350 q -326 -399 -337 -394 q -297 -404 -315 -404 q -205 -371 -254 -404 q -101 -281 -156 -337 q 9 -152 -47 -224 q 124 -4 65 -81 q 242 144 182 72 l 236 147 q 217 126 233 143 q 174 89 200 110 q 114 47 147 68 q 44 13 81 26 q -31 0 7 0 q -72 12 -57 0 q -86 44 -86 24 q -64 120 -86 78 q -6 207 -42 163 q 68 293 29 251 q 139 365 107 335 z "},"ý":{"ha":488,"x_min":-354,"x_max":499,"o":"m 139 365 q 179 360 158 360 q 222 363 200 361 q 138 277 185 326 q 49 178 92 228 q -21 91 7 129 q -49 39 -49 53 q -42 22 -49 29 q -18 14 -35 14 q 83 43 31 14 q 184 117 135 72 q 276 212 233 163 q 352 302 319 261 q 400 363 385 343 q 437 360 411 360 q 472 361 463 360 q 222 45 329 189 q 28 -202 114 -99 q -137 -362 -58 -306 q -301 -419 -215 -419 q -354 -378 -354 -419 q -316 -314 -354 -347 q -214 -245 -278 -281 q -72 -175 -150 -210 q 86 -108 6 -140 q 260 -17 192 -65 q 381 90 329 32 q 488 218 433 149 l 499 211 q 389 81 443 140 q 265 -28 335 22 q 90 -121 196 -78 q -65 -187 11 -153 q -202 -253 -140 -221 q -301 -318 -264 -286 q -337 -378 -337 -350 q -326 -399 -337 -394 q -297 -404 -315 -404 q -205 -371 -254 -404 q -101 -281 -156 -337 q 9 -152 -47 -224 q 124 -4 65 -81 q 242 144 182 72 l 236 147 q 217 126 233 143 q 174 89 200 110 q 114 47 147 68 q 44 13 81 26 q -31 0 7 0 q -72 12 -57 0 q -86 44 -86 24 q -64 120 -86 78 q -6 207 -42 163 q 68 293 29 251 q 139 365 107 335 m 357 475 q 420 530 400 499 q 444 588 440 561 q 454 615 447 606 q 475 625 461 625 q 491 618 485 625 q 497 593 497 611 q 476 553 497 576 q 424 506 456 529 q 363 464 393 482 q 350 464 353 458 q 357 475 347 469 z "},"ÿ":{"ha":488,"x_min":-354,"x_max":499,"o":"m -301 -419 q -354 -378 -354 -419 q -316 -314 -354 -347 q -214 -245 -278 -281 q -72 -175 -150 -210 q 86 -108 6 -140 q 260 -17 192 -65 q 381 90 329 32 q 488 218 433 149 l 499 211 q 389 81 443 140 q 265 -28 335 22 q 90 -121 196 -78 q -65 -187 11 -153 q -202 -253 -140 -221 q -301 -318 -264 -286 q -337 -378 -337 -350 q -326 -399 -337 -394 q -297 -404 -315 -404 q -205 -371 -254 -404 q -101 -281 -156 -337 q 9 -152 -47 -224 q 124 -4 65 -81 q 242 144 182 72 l 236 147 q 217 126 233 143 q 174 89 200 110 q 114 47 147 68 q 44 13 81 26 q -31 0 7 0 q -72 12 -57 0 q -86 44 -86 24 q -64 120 -86 78 q -6 207 -42 163 q 68 293 29 251 q 139 365 107 335 q 179 360 158 360 q 222 363 200 361 q 138 277 185 326 q 49 178 92 228 q -21 91 7 129 q -49 39 -49 53 q -42 22 -49 29 q -18 14 -35 14 q 83 43 31 14 q 184 117 135 72 q 276 212 233 163 q 352 302 319 261 q 400 363 385 343 q 437 360 411 360 q 472 361 463 360 q 222 45 329 189 q 28 -202 114 -99 q -137 -362 -58 -306 q -301 -419 -215 -419 m 281 508 q 256 519 264 508 q 247 543 247 529 q 264 575 247 558 q 299 592 281 592 q 326 581 318 592 q 335 561 335 571 q 318 524 335 540 q 281 508 301 508 m 443 508 q 418 519 426 508 q 410 543 410 529 q 426 575 410 558 q 461 592 443 592 q 489 581 481 592 q 497 561 497 571 q 481 524 497 540 q 443 508 464 508 z "},"z":{"ha":374,"x_min":-318,"x_max":401,"o":"m -36 174 q 21 240 -12 194 q 78 338 54 285 l 90 325 q 31 231 64 275 q -26 167 -3 186 q -33 169 -28 167 q -36 174 -37 172 m 107 432 q 128 428 118 432 q 139 414 139 424 q 129 384 139 393 q 110 368 119 375 q 100 344 100 361 q 125 294 100 322 q 215 265 150 265 q 292 278 253 265 q 357 312 331 292 q 383 351 383 332 q 376 365 383 358 q 351 371 368 371 q 294 342 319 371 q 249 272 269 314 q 211 191 229 231 q 175 128 193 151 q 105 50 135 76 q 49 10 75 24 q 0 -13 24 -3 q -51 -44 -24 -24 q -66 -44 -57 -49 q -71 -35 -75 -39 q -44 -18 -65 -28 q -10 0 -24 -8 q 46 54 22 21 q 88 122 69 88 q 118 181 106 157 q 181 273 143 226 q 262 351 218 319 q 347 382 306 382 q 386 374 371 382 q 401 351 401 367 q 374 307 401 329 q 305 269 347 285 q 215 254 263 254 q 117 276 150 254 q 72 324 83 297 q 60 368 60 351 q 74 412 60 392 q 107 432 89 432 m 376 219 l 388 211 q 229 35 307 103 q 85 -65 151 -32 q 20 -100 65 -75 q -80 -158 -25 -125 q -185 -230 -135 -192 q -269 -306 -236 -268 q -301 -374 -301 -343 q -269 -404 -301 -404 q -204 -382 -244 -404 q -119 -322 -164 -360 q -35 -235 -75 -283 q 29 -137 4 -187 q 54 -39 54 -86 q 41 -6 54 -14 q 15 1 28 1 q 13 3 17 1 q 12 8 10 6 q 29 10 14 10 q 84 -12 61 10 q 107 -87 107 -35 q 83 -166 107 -122 q 18 -253 58 -210 q -72 -335 -22 -297 q -172 -395 -121 -372 q -267 -418 -222 -418 q -318 -374 -318 -418 q -284 -301 -318 -340 q -197 -223 -250 -262 q -88 -149 -144 -183 q 15 -88 -32 -114 q 81 -53 61 -62 q 219 44 143 -21 q 376 219 296 110 z "}}}
